<svg version="1.2" xmlns="http://www.w3.org/2000/svg" viewBox="0 0 710 360" width="710" height="360"><defs><linearGradient id="P" gradientUnits="userSpaceOnUse"/><linearGradient id="g1" x2="1" href="#P" gradientTransform="matrix(NaN,NaN,NaN,NaN,NaN,NaN)"><stop stop-color="#b27c2d"/><stop offset=".5" stop-color="#f5c665"/><stop offset=".62" stop-color="#f1c060"/><stop offset=".79" stop-color="#e5af50"/><stop offset=".98" stop-color="#d19338"/><stop offset="1" stop-color="#ce8f34"/></linearGradient><linearGradient id="g2" x2="1" href="#P" gradientTransform="matrix(0,-72.44,48.081,0,41.071,204.065)"><stop stop-color="#b27c2d"/><stop offset=".5" stop-color="#f5c665"/><stop offset=".62" stop-color="#f1c060"/><stop offset=".79" stop-color="#e5af50"/><stop offset=".98" stop-color="#d19338"/><stop offset="1" stop-color="#ce8f34"/></linearGradient><linearGradient id="g3" x2="1" href="#P" gradientTransform="matrix(0,-195.623,197.674,0,136.122,277.656)"><stop stop-color="#b27c2d"/><stop offset=".5" stop-color="#f5c665"/><stop offset=".62" stop-color="#f1c060"/><stop offset=".79" stop-color="#e5af50"/><stop offset=".98" stop-color="#d19338"/><stop offset="1" stop-color="#ce8f34"/></linearGradient><linearGradient id="g4" x2="1" href="#P" gradientTransform="matrix(0,-72.407,48.059,0,231.068,204.065)"><stop stop-color="#b27c2d"/><stop offset=".5" stop-color="#f5c665"/><stop offset=".62" stop-color="#f1c060"/><stop offset=".79" stop-color="#e5af50"/><stop offset=".98" stop-color="#d19338"/><stop offset="1" stop-color="#ce8f34"/></linearGradient></defs><style>.a{fill:url(#g1)}.b{fill:url(#g2)}.c{fill:url(#g3)}.d{fill:url(#g4)}.e{fill:#231f20}</style><path class="a" d=""/><path fill-rule="evenodd" class="b" d="m59 182.7q1 0.1 2 0.2 1.1 0.2 2.1 0.4 1 0.1 2 0.3v2.6l-6 0.1h-0.3l-5.7 0.1-7.2 0.1c2.6 1.1 7.6 3.3 12.3 4.1-1.3 4.3-4.1 7.9-7.8 10.3-3.7 2.5-8.2 3.5-12.6 3-4.5-0.5-8.6-2.5-11.6-5.7-3.2-3.3-5.1-7.4-5.4-11.9h-3.8v-2.7c2.8-0.6 5.5-0.9 8.3-1.2l14.6-50.8q0 0 0.2 0.1 0.2 0.1 0.4 0.1 0.2 0 0.3 0.1 0.2 0 0.4 0 0 0 0 0 0.1 0 0.2 0 0 0 0.1 0 0.1 0 0.1 0 0.5 0.4 1 0.9l14.3 49.7q1 0 2.1 0.2zm-6.6-0.7l-11.3-39.7-11.4 39.7q2.7-0.1 5.4-0.2l6-0.1q3 0 6 0.1 2.7 0.1 5.3 0.2z"/><path class="c" d="m235 127.9q0 0.6-0.2 1.2-0.2 0.7-0.5 1.1-0.3 0.5-0.9 0.9-0.5 0.4-1.1 0.5-0.1 0.1-0.3 0.2-0.2 0-0.3 0-0.2 0.1-0.3 0.1-0.2 0-0.3 0-0.1 0-0.1 0-0.1 0-0.2 0-0.1 0-0.1 0-0.1 0-0.2 0-0.4 0.4-1 0.9-0.9 0.7-1.9 1.3-0.9 0.7-1.9 1.2-1.1 0.5-2.1 0.9-1.1 0.5-2.2 0.8c-8.5 2.2-16.2-1.7-20.8-3.8-1.5-0.7-5.1-3-12.1-7.5l-7.5-4.7q-0.8-0.7-1.7-1.2-1-0.6-1.9-1.1-0.8-0.5-1.8-0.9-1-0.5-2-0.9-0.9-0.4-1.9-0.6-1.1-0.3-2-0.5-1.1-0.2-2.1-0.3-1-0.2-2.1-0.3-1.4 0-2.6 0-1.4 0-2.7 0.3-1.4 0.2-2.7 0.6-1.3 0.4-2.5 1c-8 3.9-11.4 13.1-12.6 21.3q-0.2 2-0.3 3.8-0.1 2-0.1 3.8 0 2 0.1 3.9 0.1 1.8 0.3 3.8 0.3 1.9 0.5 3.9 0.3 1.9 0.7 3.9 0.3 1.9 0.7 3.8 0.5 2 1 3.9 0.4 1.8 0.8 3.7 0.3 1.9 0.4 3.8 0.1 1.9 0.1 3.8-0.1 2-0.4 3.8l-1.6 11.8q-0.8 3.3-1.4 6.7-0.6 3.4-1 6.8-0.4 3.5-0.6 6.9-0.2 3.5-0.2 6.9v19c0 3.4 0.6 6.7 1.9 9.8 1.2 3 3.1 5.8 5.4 8.2 2.4 2.3 5.2 4.2 8.2 5.4 3.1 1.3 6.4 1.9 9.8 1.9h13.1c8.3 0 12.3 5.6 12.3 10h-112.1c0-4.4 4-10 12.4-10h13.1c3.3 0 6.6-0.6 9.7-1.9 3-1.2 5.8-3.1 8.2-5.4 2.3-2.4 4.2-5.2 5.4-8.2 1.3-3.1 1.9-6.4 1.9-9.8v-19q0-3.5-0.1-6.9-0.3-3.5-0.7-6.9-0.4-3.4-0.9-6.8-0.7-3.4-1.5-6.8l-1.6-11.8q-0.3-1.8-0.3-3.8-0.1-1.8 0-3.8 0.1-1.9 0.4-3.7 0.4-1.9 0.9-3.7 0.5-2 0.9-3.9 0.4-1.9 0.8-3.8 0.4-2 0.6-3.9 0.3-2.1 0.5-4 0.2-1.9 0.3-3.8 0.2-1.9 0.2-3.8 0-1.9-0.1-3.8-0.2-1.9-0.3-3.8c-1.2-8.2-4.6-17.5-12.6-21.4q-1.3-0.5-2.6-0.9-1.2-0.5-2.6-0.7-1.3-0.2-2.7-0.2-1.3-0.1-2.6 0-1.1 0-2.1 0.2-1 0.2-2.1 0.3-0.9 0.3-2 0.5-1 0.3-1.9 0.7-1 0.4-2 0.9-0.9 0.4-1.9 0.9-0.8 0.5-1.7 1.1-1 0.5-1.8 1.1l-7.5 4.8c-7 4.5-10.6 6.7-12.1 7.4q-0.8 0.4-1.7 0.8-0.8 0.4-1.7 0.8-0.9 0.3-1.7 0.6-0.9 0.5-1.7 0.8-1 0.3-2 0.5-1 0.3-1.9 0.5-1 0.2-2 0.4-1 0-1.9 0.1-0.8 0-1.6 0-0.8 0-1.5-0.1-0.8 0-1.6-0.2-0.8-0.2-1.5-0.3-1.1-0.4-2.2-0.8-1-0.4-2.1-0.9-1-0.5-2-1.2-1-0.6-1.9-1.3-0.5-0.5-1-0.9 0 0-0.1 0 0 0-0.1 0-0.1 0-0.1 0-0.1 0-0.1 0-0.2 0-0.4 0-0.1 0-0.3-0.1-0.2 0-0.3-0.1-0.2 0-0.3-0.1c-1.4-0.5-2.4-1.7-2.6-3.1-0.2-1.5 0.5-3 1.7-3.9 1.1-0.8 2.7-0.8 4-0.2 1.3 0.7 2.1 2 2.1 3.5q0 0.2 0 0.2 0 0.1 0 0.2 0 0.2 0 0.2 0 0.1 0 0.2 0.7 0.5 1.5 0.9 0.8 0.3 1.6 0.6 0.9 0.3 1.8 0.4 0.8 0.2 1.7 0.3l0.6 0.1q1 0 2-0.1 1-0.1 1.9-0.3 1-0.3 2-0.6 0.9-0.4 1.8-0.8 0.5-0.3 1.1-0.7 0.7-0.3 1.2-0.6 0.6-0.3 1.2-0.7 0.5-0.3 1.1-0.7c8.8-5.7 11.2-9.6 17.8-15 7.7-6.5 20.1-14.3 30-13.6q1.6 0.2 3.3 0.5 1.6 0.2 3.1 0.8 1.7 0.5 3.1 1.1 1.5 0.8 2.9 1.6 0.6 0.3 1.2 0.4 0.7 0 1.3-0.1 0.7-0.3 1.2-0.7 0.5-0.4 0.8-1c2.3-4.7 4.5-13.8 6.8-18.5 2.3 4.7 4.5 13.8 6.8 18.5q0.3 0.6 0.7 1 0.5 0.4 1.2 0.6 0.6 0.2 1.3 0.2 0.6-0.1 1.2-0.4 1.4-0.8 2.9-1.6 1.5-0.6 3-1.1 1.6-0.6 3.2-0.8 1.7-0.3 3.3-0.5c10-0.7 22.4 7.1 30.1 13.5 6.6 5.5 9 9.4 17.8 15.1 5 3.2 8.6 4.7 12.8 4.4q0.9-0.1 1.8-0.3 0.9-0.2 1.7-0.4 0.9-0.4 1.7-0.7 0.8-0.4 1.5-0.8 0-0.2 0-0.2 0-0.1 0-0.2 0-0.1 0-0.2 0 0 0-0.2c0-1 0.4-2 1.2-2.7 0.7-0.6 1.8-1 2.7-1 1.1 0 2.1 0.4 2.8 1 0.7 0.7 1.1 1.7 1.2 2.7z"/><path fill-rule="evenodd" class="d" d="m249 182.7q1 0.1 2 0.2 1 0.2 2.1 0.4 1 0.1 2 0.4v2.6l-6 0.1h-0.3l-5.7 0.1-7.2 0.1c2.5 1.1 7.6 3.3 12.2 4-1.3 4.3-4 8-7.7 10.4-3.8 2.4-8.2 3.5-12.7 3-4.4-0.5-8.5-2.6-11.6-5.7-3.1-3.3-4.9-7.4-5.3-11.9l-3.8-0.1v-2.6c2.7-0.6 5.5-1 8.2-1.2l14.3-49.7q0.6-0.5 1-0.9 0.1 0 0.1 0 0.1 0 0.2 0 0.1 0 0.2 0 0 0 0 0 0.2 0 0.4 0 0.1 0 0.3-0.1 0.1 0 0.3 0 0.2-0.1 0.3-0.1l14.6 50.8q1 0 2.1 0.2zm-6.5-0.7l-11.5-39.7-11.3 39.7q2.7-0.1 5.3-0.2l6-0.1c2.1 0 4.1 0 6.1 0.1q2.7 0.1 5.4 0.2z"/><path class="e" d="m122.1 218.6v12.8l-60.4-87.1 7-2.7z"/><path class="e" d="m56 123.5q-0.9 0.4-1.8 0.8-1 0.3-1.9 0.6-0.9 0.2-2 0.3-1 0.1-1.9 0.1l-8.5-12.2 7.3-2.2z"/><path class="e" d="m216.2 123.5q0.9 0.4 1.8 0.8 1 0.3 1.9 0.6 0.9 0.2 2 0.3 0.9 0.1 1.9 0.1l8.5-12.2-7.3-2.2z"/><path class="e" d="m149.7 228.5v3.3l53.9-77.7 0.1-12.9-53.5 77.2v0.2c-0.3 3.4-0.5 6.7-0.5 9.9z"/><path class="e" d="m122.2 245.4c0 0-1.3 4.7-3.6 7.3q-0.4 0.4-0.9 0.9-0.5 0.4-1 0.8-0.5 0.4-1 0.8-0.4 0.4-1 0.7-0.6 0.4-1.2 0.7-0.7 0.4-1.3 0.8-0.7 0.2-1.3 0.4-0.7 0.4-1.3 0.5l-2.4-3.5-2.1-2.9-31.3-45-1.4-13.6 11.8 14.4-12.6-22-1.8-16z"/><path class="e" d="m150 245.4c0 0 1.3 4.7 3.5 7.3q0.5 0.4 1 0.9 0.4 0.4 1 0.8 0.5 0.4 0.9 0.8 0.5 0.4 1.1 0.7 0.6 0.4 1.2 0.7 0.7 0.4 1.3 0.8 0.6 0.2 1.3 0.4 0.7 0.4 1.3 0.5c0.8-1.1 1.6-2.3 2.4-3.5l2.1-2.9q15.6-22.5 31.3-45l1.4-13.6-11.8 14.4 12.6-22 1.8-16z"/><path class="e" d="m63 271.8v5.8h-29.3v-64.6l5.8 7.5 4.1 47.7z"/><path class="e" d="m209.1 271.8v5.8h29.4v-64.6l-5.9 7.5-4 47.7z"/><path class="e" d="m102.1 85.7v-3.7h-68.4v20l5.8-3.5 4.1-7.1z"/><path class="e" d="m170.1 85.7v-3.7h68.4v20l-5.9-3.5-4-7.1z"/><path class="e" d="m729 449.8q-0.7 0-1.3-0.1-0.7-0.1-1.3-0.3-0.6-0.2-1.2-0.5-0.6-0.3-1.1-0.7-0.5-0.5-1-1-0.4-0.6-0.6-1.2-0.3-0.6-0.4-1.3-0.1-0.7-0.1-1.4 0-0.9 0.2-1.8 0.3-0.9 0.8-1.7 0.5-0.8 1.3-1.4 0.7-0.6 1.6-0.9 3.8-1.8 11.6-1.8v1.5q-0.7 0-1.4 0-0.7 0-1.4 0.1-0.7 0-1.4 0.1-0.7 0.1-1.3 0.2-0.5 0.1-1 0.2-0.4 0.2-0.8 0.4-0.5 0.2-0.9 0.4-0.3 0.3-0.7 0.6-0.3 0.3-0.5 0.7-0.2 0.4-0.4 0.8-0.1 0.5-0.2 0.9-0.1 0.4 0 0.9-0.1 0.5 0 1 0 0.5 0.1 1 0.2 0.5 0.4 0.9 0.2 0.5 0.5 0.9 0.2 0.3 0.5 0.5 0.3 0.3 0.7 0.4 0.3 0.2 0.7 0.2 0.4 0.1 0.7 0.1 0.5 0 1-0.1 0.4-0.1 0.9-0.3 0.4-0.2 0.8-0.4 0.4-0.3 0.7-0.6 0.5-0.4 0.9-0.9 0.3-0.5 0.6-1 0.3-0.5 0.5-1.1 0.2-0.5 0.3-1.1v-9.8q0.1-0.6 0-1.2 0-0.5-0.2-1.1-0.1-0.5-0.4-1.1-0.2-0.5-0.5-1-0.3-0.3-0.7-0.6-0.4-0.3-0.9-0.5-0.4-0.1-0.9-0.2-0.5-0.1-0.9-0.1-0.3 0-0.6 0-0.3 0.1-0.6 0.1-0.3 0.1-0.6 0.2-0.3 0.2-0.5 0.3-0.2 0.2-0.3 0.3-0.2 0.2-0.3 0.4-0.2 0.1-0.3 0.3-0.1 0.2-0.2 0.5 0 0.2-0.1 0.4-0.1 0.2-0.2 0.4 0 0.2-0.1 0.4 0 0.2-0.1 0.5-0.1 0.2-0.1 0.4-0.1 0.2-0.2 0.3-0.1 0.2-0.2 0.4-0.1 0.2-0.3 0.3-0.1 0.2-0.3 0.3-0.2 0.1-0.4 0.2-0.3 0.1-0.5 0.1-0.2 0.1-0.4 0-0.3 0.1-0.5 0-0.3 0-0.5-0.1-0.3-0.1-0.5-0.2-0.2-0.2-0.4-0.4-0.2-0.1-0.3-0.3-0.1-0.2-0.2-0.4-0.1-0.2-0.1-0.5-0.1-0.2-0.1-0.4 0-1.9 2.3-3.4 2.4-1.5 7-1.5 0.7 0 1.3 0 0.7 0.1 1.3 0.2 0.6 0.1 1.2 0.3 0.7 0.2 1.2 0.4 0.5 0.2 1 0.5 0.5 0.3 0.9 0.7 0.4 0.3 0.7 0.7 0.4 0.4 0.6 0.9 0.3 0.6 0.6 1.1 0.2 0.6 0.3 1.3 0.2 0.6 0.2 1.2 0.1 0.6 0.1 1.3v11.5q0 2.9 1.4 2.9 0.2-0.1 0.4-0.1 0.2-0.1 0.4-0.2 0.2-0.2 0.3-0.4 0.1-0.1 0.2-0.3 0.2-0.4 0.3-0.8 0.1-0.3 0.2-0.7 0.1-0.4 0.1-0.8 0.1-0.4 0.1-0.7h1.4q0 0.4 0 0.8 0 0.4-0.1 0.8-0.1 0.4-0.2 0.8-0.1 0.3-0.2 0.7-0.1 0.3-0.3 0.6-0.1 0.3-0.3 0.5-0.2 0.3-0.5 0.5-0.2 0.2-0.5 0.4-0.3 0.2-0.7 0.3-0.3 0.2-0.7 0.3-0.4 0-0.7 0.1-0.4 0-0.8 0-0.5 0-1-0.1-0.5 0-1-0.2-0.4-0.2-0.8-0.5-0.5-0.4-0.8-0.8-0.3-0.4-0.5-0.9-0.3-0.5-0.4-1-0.2-0.5-0.3-1-0.1-0.5-0.2-1.1h0.3q-0.1 0.5-0.3 0.9-0.1 0.4-0.3 0.7-0.2 0.4-0.5 0.7-0.3 0.4-0.6 0.7-0.3 0.3-0.7 0.6-0.3 0.3-0.7 0.5-0.4 0.3-0.8 0.5-0.4 0.2-0.8 0.4-0.4 0.1-0.8 0.2-0.5 0.2-0.9 0.2-0.5 0.1-0.9 0.2-0.5 0-0.9 0z"/><path  d="m265.1 161.1c0 1 0 1.1 0.8 1.1 1.3 0 3.1-0.2 4.8-0.2 1.8 0 3.9 0.2 5.2 0.2 0.6 0 0.7-0.1 0.7-1 0-0.7 0-0.8-0.7-0.8h-4.2c-0.2 0-0.3-2.4-0.3-6 0-7.7 0.2-19.7 0.5-27.4 0-1.3 0-1.9 0.2-1.9 0.2 0 0.4 0.5 0.9 1.7l13.8 34c0.4 1 0.7 1.6 1 1.6 0.2 0 0.5-0.3 0.9-1.1 1.4-2.8 2.1-3 3.3-5.7 4.2-10.4 11.7-30.2 11.9-30.2 0.2 0 0.4 17.7 0.4 24.6 0 5.7-0.1 10.4-0.5 10.4h-2.7c-1 0-1.1 0-1.1 0.7 0 1 0.1 1.1 0.8 1.1 1.4 0 4.5-0.2 6.3-0.2 1.7 0 4.9 0.2 6.3 0.2 0.6 0 0.6-0.1 0.6-1 0-0.7-0.1-0.8-0.7-0.8h-3.2c-0.6 0-1-15.4-1-26.1v-5.3c0-2.9 0.1-4.7 0.5-4.7h2.7c0.9 0 1 0 1-0.7 0-1 0-1.1-0.8-1.1-1.4 0-4.1 0.2-5.9 0.2h-2.7c-0.9 0-1 0.1-1.5 1.4l-11.6 30.1c-0.2 0.8-0.5 1.3-0.6 1.3-0.1 0-0.3-0.4-0.7-1.3l-12.3-30.9c-0.3-0.7-0.6-0.8-1.2-0.8-0.4 0-2.2 0.2-3.5 0.2-1.2 0-5.5-0.2-6.3-0.2-0.6 0-0.7 0.1-0.7 1 0 0.7 0 0.8 0.7 0.8h2.7c1.1 0 1.3 0.2 1.3 0.8 0 4.1-0.9 25.7-1.1 29.3-0.1 3.6-0.1 6-0.5 6h-2.5c-0.9 0-1 0-1 0.7zm52.8-3.3c0 3 2.1 5 5.8 5 2.4 0 5.6-1.7 6.7-2.4 0.5-0.2 1.1-0.7 1.2-0.7 0.1 0 0.3 3.3 2.4 3.3 0.6 0 1.1-0.4 1.5-0.6 1.3-0.9 3.8-2.7 3.8-2.9 0-0.4-0.5-0.9-0.7-0.9-0.2 0-2 1.4-2.3 1.4-1 0-1.3-1.2-1.3-1.8 0-1.3 0.4-9 0.4-12 0-4.7-1.8-7.7-7.7-7.7-3.9 0-9 2.8-9 7.7 0 0.6 0.2 0.9 0.5 0.9 0.2 0 2.2-1 3.1-1.7 0.3-0.2 0.4-0.9 0.4-1.2 0.1-2.4 0.2-3.3 1.9-4 0.6-0.2 1.2-0.3 1.8-0.3 5.1 0 5.2 4.1 5.2 8.2 0 0.5 0 0.9-0.5 1-5.9 1-13.2 3.5-13.2 8.7zm4.1-1.6c0-2.8 2.8-4.4 5.5-5.3 1.8-0.5 3.5-0.9 3.7-0.9 0.3 0 0.4 0.3 0.4 0.7v7.9c0 0.3-3.2 1.6-5.8 1.6-2.4 0-3.8-2.2-3.8-4zm19.7-32.3c0 0.2 0.1 0.2 0.5 0.2 0.2 0 2.5-0.2 2.8-0.2 0.6 0 0.5 0.1 0.7 1.1 0.2 2.7 0.4 9.7 0.5 16.3 0 0.7-0.1 0.8-0.5 1-2.5 1.4-3.2 1.8-3.3 1.9-0.2 0.1-0.2 1-0.2 1 0 0.4 0.1 0.6 0.2 0.6 0 0 2.6-1.5 3.3-1.9 0.3-0.1 0.5-0.2 0.5 0.2 0 5.5 0.1 10.2 0.1 11.4 0 1.5 0 5-0.2 5h-3.1c-0.6 0-0.7 0.3-0.7 0.8 0 0.6 0 0.8 0.8 0.8 1.7 0 4-0.1 5.4-0.1 1.8 0 3.6 0.1 4.7 0.1 0.8 0 0.8-0.3 0.8-0.8 0-0.5-0.1-0.8-0.8-0.8h-2.3c-0.5 0-0.5-0.9-0.5-2.3 0-6.3-0.1-10.9-0.1-16.5 0-0.5 0.2-0.5 0.5-0.7l3.1-1.8c0 0 0-0.3 0-0.5 0-0.5 0-1.1-0.2-1.1 0 0-2.3 1.4-3 1.8-0.4 0.2-0.5 0.3-0.5-0.3-0.1-4.2-0.1-9.3-0.1-16.2 0-0.7 0-0.9-0.4-0.9-0.4 0-4.9 0.4-7.3 0.5-0.5 0.1-0.5 0-0.6 0.5 0 0.4-0.1 0.8-0.1 0.9zm14.9 48.3c0 4.7 6 6.9 10.9 6.9 7.6 0 13-3.8 13-9.8 0-7.6-12.1-6.8-19.6-7.3-0.2-0.1-0.8-1.1-0.8-1.8 0-0.2 0.1-0.4 0.3-0.5 3.9-1.1 7.4-2 10.2-3.1 4.1-1.6 6.7-3.9 6.7-8.9 0-2.6-0.7-3.9-0.7-4.3 0-0.2 2.7-0.8 3.5-0.8 0.1 0 0.1-0.1 0.1-0.4 0-0.7-0.3-1.6-0.5-1.6-1.8 0.1-4.1 1.1-4.4 1.1-0.2 0-2.7-3-7.2-3-5.3 0-10.4 3.6-10.4 8.8 0 5.6 3.3 8.2 7.5 9.5 0.6 0.2 1.1 0.2 1.1 0.3 0 0.1-1.6 0.5-2.2 0.7-1.9 0.5-3 0.8-4.5 1.2-0.8 0.1-1.1 0.8-1.1 1.9 0 0.6 0.1 1.7 0.6 2.8 0.3 0.8 1.3 1.1 2.3 1.1h3.4c0.9 0 1.2 0 1.2 0.1 0 0-0.8 0.2-1.3 0.3-2.9 0.6-8.1 2.7-8.1 6.8zm2.6-0.4c0-3.9 4.8-5.8 7.6-5.8 4.3 0 10.3 1.3 10.3 4.7 0 5.2-5.2 6.9-9.7 6.9-3.5 0-8.2-1.9-8.2-5.8zm2.3-24.6c0-3.8 2.9-7 6.3-7 3.6 0 5.9 2.7 5.9 7.4 0 5.3-3.4 8.8-5.8 8.8-1.5 0-6.4-3.4-6.4-9.2zm21 4c0 6.4 4.9 11.7 11.2 11.7 7.3 0 11.6-5.3 11.6-12.5 0-6.5-4.2-11.8-10.7-11.8-7.2 0-12.1 5.6-12.1 12.6zm4.2 0.8c0-6.5 1.7-11.8 7.2-11.8 5 0 7.1 5.2 7.1 9.8 0 5.3-1.4 11.4-7.3 11.4-4.6 0-7-4.9-7-9.4zm21.9-10.6c0 0.2 0 0.2 0.1 0.2 0.3 0 3.6-0.1 3.8-0.1 0.2 0 0.4 5.7 0.4 10.9 0 4.3 0 8.1-0.5 8.1h-2.5c-0.6 0-0.8 0.3-0.8 0.8 0 0.6 0 0.8 0.8 0.8 1.8 0 3.6-0.1 5.1-0.1 1.7 0 5.1 0.1 6.2 0.1 0.8 0 0.8-0.3 0.8-0.8 0-0.5-0.1-0.8-0.8-0.8h-3.7c-0.7 0-0.7-3.5-0.7-6.6 0-5 0.4-12 3.4-12 1.2 0 2.2 1.8 3.5 1.8 1 0 2.2-1.8 2.2-2.4 0-0.7-1.6-2.5-3.4-2.5-1.7 0-4.1 1.8-5.5 5-0.2 0.5-0.4 1.4-0.5 1.4 0 0 0-0.3 0-1 0-1.1 0-2.4 0-3.6 0-0.5 0.3-0.5-0.7-0.5-0.4 0-5.4 0.1-6.2 0.1-0.8 0.1-0.7 0-0.9 0.5-0.1 0.3-0.1 0.5-0.1 0.7zm19.7 20c0 0.6 0.4 0.6 1.3 0.6h17.4c0.8 0 0.8-0.1 0.9-0.9 0.1-1.7 0.3-5.1 0.3-5.5 0-0.2-0.1-0.3-0.5-0.3-0.9 0-0.9-0.1-1 0.7l-0.4 3.4c-0.2 0.8-0.2 0.8-1 0.8l-10.3 0.2c-0.6 0-0.8-0.3-0.8-0.6 0-0.3 0.3-0.7 0.5-1l12.4-18.3c0.3-0.5 0.5-0.7 0.5-0.9 0-0.4-0.4-0.6-1.3-0.6h-16.6c-0.7 0-0.8 0.1-0.9 0.8-0.1 1.5-0.5 4.6-0.5 4.7 0 0.3 0.4 0.4 1 0.4 0.6 0 0.6-0.3 0.7-0.7l0.6-2.4c0.3-1 0.3-1 1.6-1.1l9.2-0.3c0.5 0 0.8 0.1 0.8 0.2 0 0.2-0.4 0.6-0.7 1l-12.7 18.6c-0.3 0.5-0.5 0.9-0.5 1.2zm23.1-3.6c0 3 2.2 5 5.8 5 2.5 0 5.6-1.7 6.8-2.4 0.5-0.2 1.1-0.7 1.2-0.7 0.1 0 0.2 3.3 2.4 3.3 0.5 0 1.1-0.4 1.5-0.6 1.3-0.9 3.8-2.7 3.8-2.9 0-0.4-0.5-0.9-0.7-0.9-0.2 0-2.1 1.4-2.3 1.4-1 0-1.3-1.2-1.3-1.8 0-1.3 0.4-9 0.4-12 0-4.7-1.8-7.7-7.8-7.7-3.8 0-8.9 2.8-8.9 7.7 0 0.6 0.1 0.9 0.4 0.9 0.3 0 2.2-1 3.2-1.7 0.3-0.2 0.4-0.9 0.4-1.2 0-2.4 0.2-3.3 1.9-4 0.6-0.2 1.2-0.3 1.8-0.3 5.1 0 5.1 4.1 5.1 8.2 0 0.5 0 0.9-0.4 1-5.9 1-13.3 3.5-13.3 8.7zm4.2-1.6c0-2.8 2.7-4.4 5.5-5.3 1.7-0.5 3.5-0.9 3.7-0.9 0.3 0 0.3 0.3 0.3 0.7v7.9c0 0.3-3.1 1.6-5.7 1.6-2.5 0-3.8-2.2-3.8-4zm20.6-14.5c0 0.2 0.1 0.4 0.3 0.4h1.5c0.6 0 0.7 1.4 0.7 3.6 0 1.7-0.1 8.5-0.1 12.8 0 1.7 0.9 4 4.2 4 2.5 0 7.5-2.4 7.5-2.7 0-0.5-0.1-1-0.3-1-0.4 0-2.4 1-4.7 1-2.7 0-2.8-1.9-2.8-3.7v-11.3c0-1.7 0-2.7 0.2-2.7h5.8c0.4 0 0.6-0.2 0.8-1 0.2-1 0.1-1-0.6-1h-5.6c-0.5 0-0.6-0.1-0.6-0.6 0-1 0.3-5.3 0.3-5.5 0-0.4-0.3-0.6-0.6-0.6-0.2 0-0.4 0.2-0.5 0.3l-5.4 7.5c-0.1 0.1-0.1 0.3-0.1 0.5zm17 16.1c0 3 2.1 5 5.8 5 2.5 0 5.6-1.7 6.8-2.4 0.5-0.2 1-0.7 1.2-0.7 0.1 0 0.2 3.3 2.3 3.3 0.6 0 1.1-0.4 1.6-0.6 1.3-0.9 3.8-2.7 3.8-2.9 0-0.4-0.5-0.9-0.8-0.9-0.2 0-2 1.4-2.2 1.4-1.1 0-1.3-1.2-1.3-1.8 0-1.3 0.3-9 0.3-12 0-4.7-1.7-7.7-7.7-7.7-3.8 0-9 2.8-9 7.7 0 0.6 0.2 0.9 0.5 0.9 0.3 0 2.2-1 3.1-1.7 0.4-0.2 0.5-0.9 0.5-1.2 0-2.4 0.2-3.3 1.8-4 0.6-0.2 1.3-0.3 1.9-0.3 5 0 5.1 4.1 5.1 8.2 0 0.5 0 0.9-0.5 1-5.8 1-13.2 3.5-13.2 8.7zm4.1-1.6c0-2.8 2.8-4.4 5.6-5.3 1.7-0.5 3.5-0.9 3.7-0.9 0.2 0 0.3 0.3 0.3 0.7v7.9c0 0.3-3.1 1.6-5.7 1.6-2.5 0-3.9-2.2-3.9-4zm-231.9 75.9c0 0.8 0 0.9 0.4 0.9 6.2 0 22.8 0.2 29.4 0.2 0.6 0 1.3-0.1 1.3-0.7 0-1.7 0.2-5.2 0.2-8.1 0-0.4-0.5-0.5-1-0.5-0.5 0-1.1 0.1-1.1 0.4 0 2.3 0 3.7-0.2 5.2-0.1 1.3 0.1 1.3-0.8 1.3h-19.9c-0.5 0-0.7-0.1-0.7-0.3 0-0.2 0.3-0.6 0.6-1 8.4-14.4 22.4-33.7 22.4-34.6 0-0.8-0.3-0.9-1-0.9h-22.5c-3.1 0-3.5-0.1-3.5-0.5v-0.4c0-0.2-0.3-0.3-0.7-0.3-0.8 0-1 0.1-1 0.3-0.5 3.7-1.2 7.9-1.2 8.3 0 0.4 0.7 0.6 1.4 0.6 0.3 0 0.4-0.4 0.5-0.9 0.1-0.3 0.5-3.3 0.8-4.6 0.1-0.6 0-0.6 0.6-0.6h17.8c1.2 0 1.5 0 1.5 0.2 0 0.1-0.2 0.3-0.3 0.5-9.2 14.5-23 34.8-23 35.5zm35.1-3.3c0 3 2.1 5 5.8 5 2.5 0 5.6-1.7 6.8-2.4 0.5-0.2 1.1-0.7 1.2-0.7 0.1 0 0.2 3.3 2.3 3.3 0.6 0 1.2-0.4 1.6-0.6 1.3-0.9 3.8-2.7 3.8-2.9 0-0.4-0.5-0.9-0.8-0.9-0.1 0-2 1.4-2.2 1.4-1.1 0-1.3-1.2-1.3-1.8 0-1.3 0.3-9 0.3-12 0-4.7-1.7-7.7-7.7-7.7-3.8 0-8.9 2.8-8.9 7.7 0 0.6 0.1 0.9 0.4 0.9 0.3 0 2.2-1 3.1-1.7 0.4-0.2 0.5-0.9 0.5-1.2 0-2.4 0.2-3.3 1.8-4 0.6-0.2 1.3-0.3 1.9-0.3 5.1 0 5.1 4.1 5.1 8.2 0 0.5 0 0.9-0.5 1-5.8 1-13.2 3.5-13.2 8.7zm4.2-1.6c0-2.8 2.7-4.4 5.5-5.3 1.7-0.5 3.5-0.9 3.7-0.9 0.3 0 0.3 0.3 0.3 0.7v7.9c0 0.3-3.1 1.6-5.7 1.6-2.5 0-3.8-2.2-3.8-4zm19.1-32.5c0 0.4 0 0.5 0.6 0.5 0.5 0 2.9-0.2 3.3-0.2 0.5 0 0.5 12.3 0.5 24.1v11.4c0 0.8 0 1-0.6 1h-2.4c-0.6 0-0.7 0.3-0.7 0.8 0 0.6 0 0.8 0.7 0.8 0.7 0 2.8-0.1 4.8-0.1 1.7 0 2.9 0.1 4 0.1 0.7 0 0.7-0.3 0.7-0.8 0-0.5 0-0.8-0.7-0.8h-1.4c-0.6 0-0.6 0-0.6-1v-7.9c0-0.8 0-1 0.6-1h0.8c0.6 0 0.6 0.1 1.3 1l6.5 8c0.3 0.4 0.6 0.9-0.3 0.9h-0.6c-0.6 0-0.7 0.3-0.7 0.8 0 0.6 0 0.8 0.7 0.8 0.9 0 2.6-0.1 4.1-0.1 1.4 0 3.1 0.1 3.9 0.1 0.8 0 0.8-0.3 0.8-0.8 0-0.5-0.1-0.8-0.8-0.8h-0.6c-0.5 0-0.7 0-1.3-0.7l-8.9-10.4c-0.7-0.8-0.7-0.5 0-1.4 1.1-1.3 5.9-7.2 6.3-7.2h1.9c0.6 0 0.7-0.3 0.7-0.8 0-0.7-0.2-0.8-0.7-0.8-0.9 0-2.3 0.1-3.4 0.1-1.2 0-2.8-0.1-3.4-0.1-0.8 0-0.9 0.3-0.9 0.8 0 0.5 0.1 0.8 0.8 0.8h1.2c1.2 0 1 0.2 0.6 0.9-1.4 2.2-3 4.5-4.7 6.7-0.4 0.5-0.8 1.3-1.7 1.3h-1.3c-0.9 0-0.9-0.1-0.9-0.7l0.6-26.4c0-0.7 0-0.8-0.4-0.8-0.3 0-5.5 0.4-7.7 0.6-0.7 0-0.7 0.3-0.7 0.8zm27.3 17.7c0 0.2 0 0.2 0.2 0.2 0.3 0 3.6-0.1 3.8-0.1 0.2 0 0.4 5.7 0.4 10.9 0 4.3 0 8.1-0.5 8.1h-2.6c-0.5 0-0.7 0.2-0.7 0.8 0 0.6 0 0.8 0.8 0.8 1.8 0 3.6-0.1 5.1-0.1 1.7 0 5.1 0.1 6.2 0.1 0.8 0 0.8-0.3 0.8-0.8 0-0.6-0.1-0.8-0.8-0.8h-3.7c-0.7 0-0.7-3.5-0.7-6.6 0-5 0.4-12.1 3.4-12.1 1.1 0 2.2 1.9 3.5 1.9 1 0 2.2-1.8 2.2-2.4 0-0.7-1.6-2.6-3.4-2.6-1.7 0-4.1 1.9-5.5 5-0.2 0.6-0.4 1.5-0.5 1.5 0 0 0-0.3 0-1 0-1.2 0-2.5 0-3.6 0-0.6 0.2-0.6-0.7-0.6-0.4 0-5.4 0.1-6.2 0.2-0.8 0.1-0.7 0-0.9 0.5-0.1 0.3-0.2 0.5-0.2 0.7zm19.8 20c0 0.6 0.4 0.6 1.2 0.6h17.5c0.8 0 0.8-0.1 0.9-0.9 0.1-1.7 0.3-5.1 0.3-5.5 0-0.2-0.1-0.4-0.5-0.4-0.9 0-0.9 0-1 0.8l-0.5 3.4c-0.1 0.7-0.1 0.7-0.9 0.7l-10.3 0.3c-0.6 0-0.8-0.4-0.8-0.6 0-0.3 0.2-0.7 0.5-1.1l12.4-18.3c0.3-0.4 0.5-0.6 0.5-0.9 0-0.3-0.4-0.5-1.4-0.5h-16.5c-0.7 0-0.8 0.1-0.9 0.8-0.1 1.5-0.5 4.5-0.5 4.7 0 0.2 0.4 0.4 1 0.4 0.6 0 0.6-0.3 0.7-0.7l0.6-2.4c0.2-1.1 0.3-1.1 1.6-1.1l9.1-0.3c0.6 0 0.9 0 0.9 0.2 0 0.1-0.4 0.5-0.7 1l-12.7 18.6c-0.3 0.5-0.5 0.9-0.5 1.2zm22.8-10.2c0 6.9 4.1 11.7 11.3 11.7 6 0 10.2-5.2 10.2-5.6 0-0.2-0.7-0.9-0.9-0.9-0.2 0-2.9 3.9-7.6 3.9-4.5 0-8.8-3.5-8.8-9.8 0-0.8 0-2.1 0.3-2.1 0.4 0 12.5 0.3 13.2 0.3 0.7 0 3.2-0.2 3.2-0.7 0-5-3-9.4-8.8-9.4-7.2 0-12.1 5.6-12.1 12.6zm4.5-4.3c0.2-2.9 3-7 6.9-7 1.9 0 5.4 1.2 5.4 7 0 0.1-0.2 0.2-2.4 0.3-2.9 0.1-8.9 0.2-9.2 0.2-0.5 0-0.7-0.1-0.7-0.5zm19.1-6.6c0 0.5 0 0.7 0.8 0.7h0.6c0.8 0 1 0 1.3 0.9 2.3 6.7 5.5 15.6 6.1 17.7 0.4 1.2 1.2 3.8 1.9 3.8 0.1 0 0.5 0 0.7-0.4 1.3-2.4 1.9-2.2 2.8-4.2 1.7-3.5 3.5-8.6 5-12.5 0.2-0.7 0.4-1 0.5-1 0.1 0 0.2 0.3 0.5 1 1.8 5.6 3.6 11.7 4 13.3 0.4 1.2 1 3.8 1.8 3.8 0.2 0 0.5 0 0.7-0.4 1.3-2.3 1.7-2.2 2.7-4.1 2.6-5.5 5.6-14.8 6.9-17.3 0.2-0.5 0.3-0.6 0.8-0.6h0.3c0.6 0 0.8-0.2 0.8-0.7 0-0.7-0.1-0.9-0.7-0.9-0.4 0-1.7 0.1-3 0.1-1.2 0-2.9-0.1-3.4-0.1-0.7 0-0.8 0.3-0.8 0.9 0 0.5 0.1 0.7 0.8 0.7h1.8c0.5 0 0.7 0.3 0.7 0.7 0 1.4-3.6 12.3-4.9 15.4-0.3 0.6-0.5 1.3-0.7 1.3-0.1 0-0.3-0.6-0.7-1.4-1.6-4-4.8-15.3-4.8-15.5 0-0.4 0.1-0.5 0.7-0.5h1.3c0.6 0 0.7-0.2 0.7-0.7 0-0.7 0-0.9-0.8-0.9-1.5 0-2.6 0.1-4.1 0.1-2 0-2.9-0.1-4.3-0.1-0.8 0-0.8 0.3-0.8 0.9 0 0.5 0.1 0.7 0.8 0.7h0.6c0.8 0 1.6 0.1 2 0.9 0.2 0.5 0.3 0.6 0.3 1 0 0.4-0.2 0.8-0.4 1.5-1.3 3.6-3.6 9.4-4.8 12.2-0.3 0.9-0.6 1.4-0.7 1.4-0.2 0-0.3-0.3-0.6-1-1.7-4-5.2-15.3-5.2-15.5 0-0.4 0.5-0.5 1.1-0.5h1.5c0.6 0 0.7-0.2 0.7-0.7 0-0.7 0-0.9-0.8-0.9-1 0-3.5 0.1-5 0.1-1.7 0-2.8-0.1-3.9-0.1-0.8 0-0.8 0.3-0.8 0.9zm41.7 18.7c0 1.8 3.8 3.7 7.4 3.7 4.4 0 8.4-2.7 8.4-7 0-3.5-3.9-5.2-7.4-6.8-2.4-1.2-4.8-2.2-4.8-4.7 0-3.1 2.4-4.2 4.3-4.2 3.8 0 3.2 3.9 4.5 3.9 0.7 0 2.4-0.5 2.4-1.2 0-1.3-1.6-3.9-6.1-3.9-4.2 0-8.5 2.7-8.5 6.6 0 4.2 3.6 5.4 6.8 6.8 2.8 1.2 5.3 2.5 5.3 5.3 0 2.6-1.9 3.8-3.9 3.8-2.9 0-4.3-1.5-5.5-2.9-0.7-0.9-0.8-1.6-1.1-1.6-0.5 0-1.8 1.3-1.8 2.2zm18.4-35.3c0 0.4 0.1 0.4 0.6 0.4 0.6 0 2.9-0.1 3.3-0.1 0.5 0 0.5 12.3 0.5 24v11.4c0 0.9 0 1.1-0.6 1.1h-2.4c-0.6 0-0.7 0.2-0.7 0.8 0 0.6 0 0.8 0.8 0.8 0.6 0 2.8-0.1 4.7-0.1 1.7 0 2.9 0.1 4 0.1 0.8 0 0.8-0.3 0.8-0.8 0-0.6-0.1-0.8-0.8-0.8h-1.3c-0.6 0-0.7 0-0.7-1.1v-7.9c0-0.7 0-0.9 0.7-0.9h0.8c0.6 0 0.6 0.1 1.3 1l6.5 8c0.3 0.4 0.6 0.9-0.3 0.9h-0.7c-0.6 0-0.7 0.2-0.7 0.8 0 0.6 0 0.8 0.8 0.8 0.8 0 2.5-0.1 4-0.1 1.5 0 3.1 0.1 4 0.1 0.7 0 0.7-0.3 0.7-0.8 0-0.6 0-0.8-0.7-0.8h-0.6c-0.6 0-0.7-0.1-1.3-0.8l-8.9-10.3c-0.8-0.8-0.8-0.5 0-1.4 1-1.4 5.8-7.3 6.3-7.3h1.9c0.5 0 0.7-0.2 0.7-0.7 0-0.7-0.2-0.9-0.8-0.9-0.9 0-2.2 0.2-3.4 0.2-1.2 0-2.8-0.2-3.4-0.2-0.8 0-0.8 0.3-0.8 0.9 0 0.5 0 0.7 0.8 0.7h1.1c1.2 0 1 0.3 0.6 1-1.3 2.2-3 4.5-4.6 6.6-0.5 0.6-0.9 1.3-1.8 1.3h-1.2c-0.9 0-1 0-1-0.6l0.7-26.4c0-0.8 0-0.8-0.5-0.8-0.3 0-5.4 0.3-7.7 0.5-0.6 0.1-0.7 0.4-0.7 0.8zm28 34.1c0 3.1 2.1 5.1 5.8 5.1 2.4 0 5.6-1.7 6.7-2.5 0.5-0.2 1.1-0.7 1.2-0.7 0.1 0 0.3 3.3 2.4 3.3 0.6 0 1.1-0.3 1.5-0.6 1.3-0.9 3.8-2.7 3.8-2.9 0-0.4-0.5-0.9-0.7-0.9-0.2 0-2 1.4-2.3 1.4-1 0-1.3-1.2-1.3-1.7 0-1.3 0.4-9.1 0.4-12.1 0-4.6-1.8-7.7-7.7-7.7-3.9 0-9 2.9-9 7.7 0 0.7 0.2 0.9 0.5 0.9 0.2 0 2.2-0.9 3.1-1.6 0.4-0.3 0.4-0.9 0.4-1.3 0.1-2.3 0.2-3.2 1.9-3.9 0.6-0.3 1.2-0.3 1.8-0.3 5.1 0 5.2 4 5.2 8.2 0 0.4 0 0.9-0.5 0.9-5.9 1-13.2 3.5-13.2 8.7zm4.1-1.6c0-2.8 2.8-4.4 5.5-5.3 1.8-0.5 3.5-0.8 3.7-0.8 0.3 0 0.4 0.2 0.4 0.6v7.9c0 0.3-3.2 1.7-5.8 1.7-2.4 0-3.8-2.2-3.8-4.1zm20-6c0 0.1 0.1 0.2 0.2 0.2 0.8 0 10.5-0.5 11.3-0.5 0.2 0 0.5-1.3 0.5-2 0-0.3 0-0.5-0.1-0.5-0.4 0-10.3 0.4-10.8 0.4-0.6 0.1-1.1 1.5-1.1 2.4zm12.6-20.3c0 0.6 0.6 0.6 1.2 0.6 0.5 0 0.7-0.3 0.7-1l0.4-4.2c0.1-0.6 2.7-0.7 5.8-0.7h8.4c0.4 0 0.5 2.4 0.5 5.3 0 6.4-0.3 30.5-0.9 30.5h-3.6c-1 0-1.1 0-1.1 0.8 0 1 0.1 1 0.8 1 1.4 0 5.4-0.2 7.2-0.2 1.8 0 5.7 0.2 7.1 0.2 0.6 0 0.6-0.1 0.6-1 0-0.7 0-0.8-0.6-0.8h-4.4c-0.1 0-0.1-1.5-0.1-3.8 0-7.4 0.3-22.5 0.3-22.7 0.1-3.4 0-9.3 0.6-9.3h6.9c3.3 0 6.6 0.1 6.6 0.4 0 0.4-0.1 4.4-0.1 4.6 0 0.6 0.1 0.9 0.8 0.9 0.9 0 1-0.1 1-0.6 0-4.6 0.2-6.6 0.2-7.7 0-0.6-0.2-0.6-1-0.6-0.5 0-0.7 0.1-0.7 0.7-0.1 0.6-3.1 0.6-6.5 0.6h-21c-3.2 0-6.4 0-6.4-0.3v-0.7c0-0.3-0.3-0.3-0.8-0.3-0.9 0-0.9 0-0.9 0.8-0.3 2.9-1 7.4-1 7.5zm36.8 11.5c0 0.2 0 0.3 0.2 0.3 0.3 0 3.6-0.1 3.8-0.1 0.2 0 0.4 5.7 0.4 10.9 0 4.2 0 8.1-0.5 8.1h-2.6c-0.5 0-0.7 0.2-0.7 0.7 0 0.7 0 0.9 0.8 0.9 1.8 0 3.6-0.2 5.1-0.2 1.7 0 5.1 0.2 6.2 0.2 0.8 0 0.8-0.3 0.8-0.9 0-0.5-0.1-0.7-0.8-0.7h-3.7c-0.7 0-0.7-3.5-0.7-6.6 0-5.1 0.4-12.1 3.4-12.1 1.1 0 2.2 1.8 3.5 1.8 1 0 2.2-1.7 2.2-2.4 0-0.7-1.6-2.5-3.4-2.5-1.7 0-4.1 1.8-5.5 5-0.2 0.5-0.4 1.5-0.5 1.5 0 0 0-0.3 0-1.1 0-1.1 0-2.4 0-3.5 0-0.6 0.2-0.6-0.7-0.6-0.4 0-5.4 0.1-6.2 0.2-0.8 0-0.7 0-0.9 0.4-0.1 0.3-0.2 0.6-0.2 0.7zm18.9-0.6c0 0.2 0 0.3 0.2 0.3 0.2 0 2.7-0.1 2.9-0.1 0.7 0 0.7 2 0.7 4.6v9.2c0 4 0.8 7.9 6.4 7.9 4.5 0 9.4-2.8 9.6-2.8 0.2 0 0.2 1.4 0.3 2.3 0 0.6 0.3 0.7 0.6 0.7 0.4 0 4.2-0.6 6.2-0.9 0.7-0.1 0.8-0.1 0.8-0.9 0-0.4-0.1-0.6-0.3-0.6-0.1 0-2.2 0.4-2.4 0.4-1 0-1.1-0.6-1.1-3.5 0-3.7 0-17.8 0-17.8 0-0.3 0-0.3-0.4-0.3-0.3 0-5.5 0.2-6.7 0.3-0.7 0-0.6 0.3-0.7 1.1 0 0.2 0 0.3 0.2 0.3 0.2 0 2.9-0.1 3.1-0.1 0.3 0 0.4 9.2 0.4 10.9v7c0 0.7-3.4 0.9-5.3 0.9-3.5 0-6.6-0.6-6.6-3.9v-16.1c0-0.3 0-0.3-0.4-0.3-0.3 0-5.2 0.2-6.5 0.2-0.7 0.1-0.7 0.1-0.9 0.5-0.1 0.3-0.1 0.5-0.1 0.7zm31.2 18.3c0 1.8 3.9 3.6 7.5 3.6 4.3 0 8.3-2.6 8.3-6.9 0-3.5-3.9-5.2-7.3-6.9-2.5-1.1-4.9-2.1-4.9-4.7 0-3 2.4-4.1 4.3-4.1 3.9 0 3.2 3.8 4.6 3.8 0.6 0 2.3-0.4 2.3-1.1 0-1.4-1.6-3.9-6.1-3.9-4.2 0-8.5 2.7-8.5 6.6 0 4.2 3.6 5.4 6.9 6.8 2.7 1.2 5.2 2.5 5.2 5.3 0 2.6-1.9 3.8-3.9 3.8-2.8 0-4.3-1.5-5.5-3-0.7-0.8-0.7-1.6-1.1-1.6-0.5 0-1.8 1.3-1.8 2.3zm19.3-18.1c0 0.2 0.1 0.2 0.3 0.2 0.2 0 2.7-0.1 2.9-0.1 0.6 0 0.7 0.1 0.8 0.9 0.2 4.3 0.2 8.5 0.2 12.7 0 1.7 0 3.4 0 5.2 0 0.5 0 0.7-0.7 0.7h-2.4c-0.8 0-0.8 0.2-0.8 0.7 0 0.7 0 0.9 0.6 0.9 1.1 0 3.8-0.2 5.3-0.2 1.4 0 3.8 0.2 4.9 0.2 0.7 0 0.7-0.3 0.7-0.9 0-0.5-0.1-0.7-0.7-0.7h-2.1c-0.6 0-0.6-0.2-0.6-0.7-0.2-3.4-0.2-6.7-0.2-10.1v-10c0-0.3 0-0.4-0.4-0.4-0.3 0-5.5 0.3-6.6 0.3-0.8 0.1-0.7 0-0.9 0.5-0.3 0.5-0.3 0.6-0.3 0.8zm3.1-11.6c0 1.7 1.2 2.4 2.4 2.4 1.7 0 3.6-1.3 3.6-3.3 0-1.7-1.2-2.3-2.5-2.3-1.4 0-3.5 1.1-3.5 3.2zm11.3-5.4c0 0.2 0.1 0.2 0.5 0.2 0.2 0 2.5-0.3 2.8-0.3 0.6 0 0.6 0.1 0.7 1.1 0.2 2.7 0.4 9.7 0.5 16.4 0 0.6 0 0.7-0.5 0.9-2.4 1.4-3.2 1.9-3.3 1.9-0.1 0.1-0.1 1-0.1 1.1 0 0.3 0 0.6 0.1 0.6 0 0 2.6-1.6 3.3-2 0.3-0.1 0.5-0.2 0.5 0.3 0.1 5.4 0.1 10.1 0.1 11.3 0 1.5 0 5.1-0.2 5.1h-3.1c-0.6 0-0.7 0.2-0.7 0.7 0 0.7 0 0.9 0.8 0.9 1.8 0 4-0.2 5.5-0.2 1.7 0 3.5 0.2 4.6 0.2 0.8 0 0.8-0.3 0.8-0.9 0-0.5-0.1-0.7-0.8-0.7h-2.3c-0.4 0-0.4-1-0.4-2.3 0-6.4-0.2-11-0.2-16.6 0-0.5 0.2-0.5 0.5-0.7l3.1-1.7c0-0.1 0-0.3 0-0.6 0-0.4 0-1-0.1-1-0.1 0-2.4 1.3-3.1 1.7-0.4 0.2-0.5 0.3-0.5-0.3 0-4.2-0.1-9.3-0.1-16.2 0-0.7 0-0.9-0.4-0.9-0.4 0-4.9 0.4-7.3 0.6-0.5 0-0.4 0-0.6 0.4 0 0.5-0.1 0.8-0.1 1zm15.8 27.2c0 6.5 4.8 11.7 11.1 11.7 7.3 0 11.7-5.2 11.7-12.5 0-6.5-4.3-11.7-10.7-11.7-7.3 0-12.1 5.6-12.1 12.5zm4.2 0.9c0-6.5 1.6-11.9 7.2-11.9 4.9 0 7 5.2 7 9.8 0 5.3-1.4 11.4-7.3 11.4-4.6 0-6.9-4.9-6.9-9.3z"/></svg>