<svg version="1.2" xmlns="http://www.w3.org/2000/svg" viewBox="0 0 710 360" width="710" height="360"><defs><linearGradient id="P" gradientUnits="userSpaceOnUse"/><linearGradient id="g1" x2="1" href="#P" gradientTransform="matrix(NaN,NaN,NaN,NaN,NaN,NaN)"><stop stop-color="#b27c2d"/><stop offset=".5" stop-color="#f5c665"/><stop offset=".62" stop-color="#f1c060"/><stop offset=".79" stop-color="#e5af50"/><stop offset=".98" stop-color="#d19338"/><stop offset="1" stop-color="#ce8f34"/></linearGradient><linearGradient id="g2" x2="1" href="#P" gradientTransform="matrix(0,-72.44,48.081,0,41.071,204.065)"><stop stop-color="#b27c2d"/><stop offset=".5" stop-color="#f5c665"/><stop offset=".62" stop-color="#f1c060"/><stop offset=".79" stop-color="#e5af50"/><stop offset=".98" stop-color="#d19338"/><stop offset="1" stop-color="#ce8f34"/></linearGradient><linearGradient id="g3" x2="1" href="#P" gradientTransform="matrix(0,-195.623,197.674,0,136.122,277.656)"><stop stop-color="#b27c2d"/><stop offset=".5" stop-color="#f5c665"/><stop offset=".62" stop-color="#f1c060"/><stop offset=".79" stop-color="#e5af50"/><stop offset=".98" stop-color="#d19338"/><stop offset="1" stop-color="#ce8f34"/></linearGradient><linearGradient id="g4" x2="1" href="#P" gradientTransform="matrix(0,-72.407,48.059,0,231.068,204.065)"><stop stop-color="#b27c2d"/><stop offset=".5" stop-color="#f5c665"/><stop offset=".62" stop-color="#f1c060"/><stop offset=".79" stop-color="#e5af50"/><stop offset=".98" stop-color="#d19338"/><stop offset="1" stop-color="#ce8f34"/></linearGradient></defs><style>.a{fill:url(#g1)}.b{fill:url(#g2)}.c{fill:url(#g3)}.d{fill:url(#g4)}.e{fill:#231f20}</style><path class="a" d=""/><path fill-rule="evenodd" class="b" d="m59 182.7q1 0.1 2 0.2 1.1 0.2 2.1 0.4 1 0.1 2 0.3v2.6l-6 0.1h-0.3l-5.7 0.1-7.2 0.1c2.6 1.1 7.6 3.3 12.3 4.1-1.3 4.3-4.1 7.9-7.8 10.3-3.7 2.5-8.2 3.5-12.6 3-4.5-0.5-8.6-2.5-11.6-5.7-3.2-3.3-5.1-7.4-5.4-11.9h-3.8v-2.7c2.8-0.6 5.5-0.9 8.3-1.2l14.6-50.8q0 0 0.2 0.1 0.2 0.1 0.4 0.1 0.2 0 0.3 0.1 0.2 0 0.4 0 0 0 0 0 0.1 0 0.2 0 0 0 0.1 0 0.1 0 0.1 0 0.5 0.4 1 0.9l14.3 49.7q1 0 2.1 0.2zm-6.6-0.7l-11.3-39.7-11.4 39.7q2.7-0.1 5.4-0.2l6-0.1q3 0 6 0.1 2.7 0.1 5.3 0.2z"/><path class="c" d="m235 127.9q0 0.6-0.2 1.2-0.2 0.7-0.5 1.1-0.3 0.5-0.9 0.9-0.5 0.4-1.1 0.5-0.1 0.1-0.3 0.2-0.2 0-0.3 0-0.2 0.1-0.3 0.1-0.2 0-0.3 0-0.1 0-0.1 0-0.1 0-0.2 0-0.1 0-0.1 0-0.1 0-0.2 0-0.4 0.4-1 0.9-0.9 0.7-1.9 1.3-0.9 0.7-1.9 1.2-1.1 0.5-2.1 0.9-1.1 0.5-2.2 0.8c-8.5 2.2-16.2-1.7-20.8-3.8-1.5-0.7-5.1-3-12.1-7.5l-7.5-4.7q-0.8-0.7-1.7-1.2-1-0.6-1.9-1.1-0.8-0.5-1.8-0.9-1-0.5-2-0.9-0.9-0.4-1.9-0.6-1.1-0.3-2-0.5-1.1-0.2-2.1-0.3-1-0.2-2.1-0.3-1.4 0-2.6 0-1.4 0-2.7 0.3-1.4 0.2-2.7 0.6-1.3 0.4-2.5 1c-8 3.9-11.4 13.1-12.6 21.3q-0.2 2-0.3 3.8-0.1 2-0.1 3.8 0 2 0.1 3.9 0.1 1.8 0.3 3.8 0.3 1.9 0.5 3.9 0.3 1.9 0.7 3.9 0.3 1.9 0.7 3.8 0.5 2 1 3.9 0.4 1.8 0.8 3.7 0.3 1.9 0.4 3.8 0.1 1.9 0.1 3.8-0.1 2-0.4 3.8l-1.6 11.8q-0.8 3.3-1.4 6.7-0.6 3.4-1 6.8-0.4 3.5-0.6 6.9-0.2 3.5-0.2 6.9v19c0 3.4 0.6 6.7 1.9 9.8 1.2 3 3.1 5.8 5.4 8.2 2.4 2.3 5.2 4.2 8.2 5.4 3.1 1.3 6.4 1.9 9.8 1.9h13.1c8.3 0 12.3 5.6 12.3 10h-112.1c0-4.4 4-10 12.4-10h13.1c3.3 0 6.6-0.6 9.7-1.9 3-1.2 5.8-3.1 8.2-5.4 2.3-2.4 4.2-5.2 5.4-8.2 1.3-3.1 1.9-6.4 1.9-9.8v-19q0-3.5-0.1-6.9-0.3-3.5-0.7-6.9-0.4-3.4-0.9-6.8-0.7-3.4-1.5-6.8l-1.6-11.8q-0.3-1.8-0.3-3.8-0.1-1.8 0-3.8 0.1-1.9 0.4-3.7 0.4-1.9 0.9-3.7 0.5-2 0.9-3.9 0.4-1.9 0.8-3.8 0.4-2 0.6-3.9 0.3-2.1 0.5-4 0.2-1.9 0.3-3.8 0.2-1.9 0.2-3.8 0-1.9-0.1-3.8-0.2-1.9-0.3-3.8c-1.2-8.2-4.6-17.5-12.6-21.4q-1.3-0.5-2.6-0.9-1.2-0.5-2.6-0.7-1.3-0.2-2.7-0.2-1.3-0.1-2.6 0-1.1 0-2.1 0.2-1 0.2-2.1 0.3-0.9 0.3-2 0.5-1 0.3-1.9 0.7-1 0.4-2 0.9-0.9 0.4-1.9 0.9-0.8 0.5-1.7 1.1-1 0.5-1.8 1.1l-7.5 4.8c-7 4.5-10.6 6.7-12.1 7.4q-0.8 0.4-1.7 0.8-0.8 0.4-1.7 0.8-0.9 0.3-1.7 0.6-0.9 0.5-1.7 0.8-1 0.3-2 0.5-1 0.3-1.9 0.5-1 0.2-2 0.4-1 0-1.9 0.1-0.8 0-1.6 0-0.8 0-1.5-0.1-0.8 0-1.6-0.2-0.8-0.2-1.5-0.3-1.1-0.4-2.2-0.8-1-0.4-2.1-0.9-1-0.5-2-1.2-1-0.6-1.9-1.3-0.5-0.5-1-0.9 0 0-0.1 0 0 0-0.1 0-0.1 0-0.1 0-0.1 0-0.1 0-0.2 0-0.4 0-0.1 0-0.3-0.1-0.2 0-0.3-0.1-0.2 0-0.3-0.1c-1.4-0.5-2.4-1.7-2.6-3.1-0.2-1.5 0.5-3 1.7-3.9 1.1-0.8 2.7-0.8 4-0.2 1.3 0.7 2.1 2 2.1 3.5q0 0.2 0 0.2 0 0.1 0 0.2 0 0.2 0 0.2 0 0.1 0 0.2 0.7 0.5 1.5 0.9 0.8 0.3 1.6 0.6 0.9 0.3 1.8 0.4 0.8 0.2 1.7 0.3l0.6 0.1q1 0 2-0.1 1-0.1 1.9-0.3 1-0.3 2-0.6 0.9-0.4 1.8-0.8 0.5-0.3 1.1-0.7 0.7-0.3 1.2-0.6 0.6-0.3 1.2-0.7 0.5-0.3 1.1-0.7c8.8-5.7 11.2-9.6 17.8-15 7.7-6.5 20.1-14.3 30-13.6q1.6 0.2 3.3 0.5 1.6 0.2 3.1 0.8 1.7 0.5 3.1 1.1 1.5 0.8 2.9 1.6 0.6 0.3 1.2 0.4 0.7 0 1.3-0.1 0.7-0.3 1.2-0.7 0.5-0.4 0.8-1c2.3-4.7 4.5-13.8 6.8-18.5 2.3 4.7 4.5 13.8 6.8 18.5q0.3 0.6 0.7 1 0.5 0.4 1.2 0.6 0.6 0.2 1.3 0.2 0.6-0.1 1.2-0.4 1.4-0.8 2.9-1.6 1.5-0.6 3-1.1 1.6-0.6 3.2-0.8 1.7-0.3 3.3-0.5c10-0.7 22.4 7.1 30.1 13.5 6.6 5.5 9 9.4 17.8 15.1 5 3.2 8.6 4.7 12.8 4.4q0.9-0.1 1.8-0.3 0.9-0.2 1.7-0.4 0.9-0.4 1.7-0.7 0.8-0.4 1.5-0.8 0-0.2 0-0.2 0-0.1 0-0.2 0-0.1 0-0.2 0 0 0-0.2c0-1 0.4-2 1.2-2.7 0.7-0.6 1.8-1 2.7-1 1.1 0 2.1 0.4 2.8 1 0.7 0.7 1.1 1.7 1.2 2.7z"/><path fill-rule="evenodd" class="d" d="m249 182.7q1 0.1 2 0.2 1 0.2 2.1 0.4 1 0.1 2 0.4v2.6l-6 0.1h-0.3l-5.7 0.1-7.2 0.1c2.5 1.1 7.6 3.3 12.2 4-1.3 4.3-4 8-7.7 10.4-3.8 2.4-8.2 3.5-12.7 3-4.4-0.5-8.5-2.6-11.6-5.7-3.1-3.3-4.9-7.4-5.3-11.9l-3.8-0.1v-2.6c2.7-0.6 5.5-1 8.2-1.2l14.3-49.7q0.6-0.5 1-0.9 0.1 0 0.1 0 0.1 0 0.2 0 0.1 0 0.2 0 0 0 0 0 0.2 0 0.4 0 0.1 0 0.3-0.1 0.1 0 0.3 0 0.2-0.1 0.3-0.1l14.6 50.8q1 0 2.1 0.2zm-6.5-0.7l-11.5-39.7-11.3 39.7q2.7-0.1 5.3-0.2l6-0.1c2.1 0 4.1 0 6.1 0.1q2.7 0.1 5.4 0.2z"/><path class="e" d="m122.1 218.6v12.8l-60.4-87.1 7-2.7z"/><path class="e" d="m56 123.5q-0.9 0.4-1.8 0.8-1 0.3-1.9 0.6-0.9 0.2-2 0.3-1 0.1-1.9 0.1l-8.5-12.2 7.3-2.2z"/><path class="e" d="m216.2 123.5q0.9 0.4 1.8 0.8 1 0.3 1.9 0.6 0.9 0.2 2 0.3 0.9 0.1 1.9 0.1l8.5-12.2-7.3-2.2z"/><path class="e" d="m149.7 228.5v3.3l53.9-77.7 0.1-12.9-53.5 77.2v0.2c-0.3 3.4-0.5 6.7-0.5 9.9z"/><path class="e" d="m122.2 245.4c0 0-1.3 4.7-3.6 7.3q-0.4 0.4-0.9 0.9-0.5 0.4-1 0.8-0.5 0.4-1 0.8-0.4 0.4-1 0.7-0.6 0.4-1.2 0.7-0.7 0.4-1.3 0.8-0.7 0.2-1.3 0.4-0.7 0.4-1.3 0.5l-2.4-3.5-2.1-2.9-31.3-45-1.4-13.6 11.8 14.4-12.6-22-1.8-16z"/><path class="e" d="m150 245.4c0 0 1.3 4.7 3.5 7.3q0.5 0.4 1 0.9 0.4 0.4 1 0.8 0.5 0.4 0.9 0.8 0.5 0.4 1.1 0.7 0.6 0.4 1.2 0.7 0.7 0.4 1.3 0.8 0.6 0.2 1.3 0.4 0.7 0.4 1.3 0.5c0.8-1.1 1.6-2.3 2.4-3.5l2.1-2.9q15.6-22.5 31.3-45l1.4-13.6-11.8 14.4 12.6-22 1.8-16z"/><path class="e" d="m63 271.8v5.8h-29.3v-64.6l5.8 7.5 4.1 47.7z"/><path class="e" d="m209.1 271.8v5.8h29.4v-64.6l-5.9 7.5-4 47.7z"/><path class="e" d="m102.1 85.7v-3.7h-68.4v20l5.8-3.5 4.1-7.1z"/><path class="e" d="m170.1 85.7v-3.7h68.4v20l-5.9-3.5-4-7.1z"/><path class="e" d="m729 449.8q-0.7 0-1.3-0.1-0.7-0.1-1.3-0.3-0.6-0.2-1.2-0.5-0.6-0.3-1.1-0.7-0.5-0.5-1-1-0.4-0.6-0.6-1.2-0.3-0.6-0.4-1.3-0.1-0.7-0.1-1.4 0-0.9 0.2-1.8 0.3-0.9 0.8-1.7 0.5-0.8 1.3-1.4 0.7-0.6 1.6-0.9 3.8-1.8 11.6-1.8v1.5q-0.7 0-1.4 0-0.7 0-1.4 0.1-0.7 0-1.4 0.1-0.7 0.1-1.3 0.2-0.5 0.1-1 0.2-0.4 0.2-0.8 0.4-0.5 0.2-0.9 0.4-0.3 0.3-0.7 0.6-0.3 0.3-0.5 0.7-0.2 0.4-0.4 0.8-0.1 0.5-0.2 0.9-0.1 0.4 0 0.9-0.1 0.5 0 1 0 0.5 0.1 1 0.2 0.5 0.4 0.9 0.2 0.5 0.5 0.9 0.2 0.3 0.5 0.5 0.3 0.3 0.7 0.4 0.3 0.2 0.7 0.2 0.4 0.1 0.7 0.1 0.5 0 1-0.1 0.4-0.1 0.9-0.3 0.4-0.2 0.8-0.4 0.4-0.3 0.7-0.6 0.5-0.4 0.9-0.9 0.3-0.5 0.6-1 0.3-0.5 0.5-1.1 0.2-0.5 0.3-1.1v-9.8q0.1-0.6 0-1.2 0-0.5-0.2-1.1-0.1-0.5-0.4-1.1-0.2-0.5-0.5-1-0.3-0.3-0.7-0.6-0.4-0.3-0.9-0.5-0.4-0.1-0.9-0.2-0.5-0.1-0.9-0.1-0.3 0-0.6 0-0.3 0.1-0.6 0.1-0.3 0.1-0.6 0.2-0.3 0.2-0.5 0.3-0.2 0.2-0.3 0.3-0.2 0.2-0.3 0.4-0.2 0.1-0.3 0.3-0.1 0.2-0.2 0.5 0 0.2-0.1 0.4-0.1 0.2-0.2 0.4 0 0.2-0.1 0.4 0 0.2-0.1 0.5-0.1 0.2-0.1 0.4-0.1 0.2-0.2 0.3-0.1 0.2-0.2 0.4-0.1 0.2-0.3 0.3-0.1 0.2-0.3 0.3-0.2 0.1-0.4 0.2-0.3 0.1-0.5 0.1-0.2 0.1-0.4 0-0.3 0.1-0.5 0-0.3 0-0.5-0.1-0.3-0.1-0.5-0.2-0.2-0.2-0.4-0.4-0.2-0.1-0.3-0.3-0.1-0.2-0.2-0.4-0.1-0.2-0.1-0.5-0.1-0.2-0.1-0.4 0-1.9 2.3-3.4 2.4-1.5 7-1.5 0.7 0 1.3 0 0.7 0.1 1.3 0.2 0.6 0.1 1.2 0.3 0.7 0.2 1.2 0.4 0.5 0.2 1 0.5 0.5 0.3 0.9 0.7 0.4 0.3 0.7 0.7 0.4 0.4 0.6 0.9 0.3 0.6 0.6 1.1 0.2 0.6 0.3 1.3 0.2 0.6 0.2 1.2 0.1 0.6 0.1 1.3v11.5q0 2.9 1.4 2.9 0.2-0.1 0.4-0.1 0.2-0.1 0.4-0.2 0.2-0.2 0.3-0.4 0.1-0.1 0.2-0.3 0.2-0.4 0.3-0.8 0.1-0.3 0.2-0.7 0.1-0.4 0.1-0.8 0.1-0.4 0.1-0.7h1.4q0 0.4 0 0.8 0 0.4-0.1 0.8-0.1 0.4-0.2 0.8-0.1 0.3-0.2 0.7-0.1 0.3-0.3 0.6-0.1 0.3-0.3 0.5-0.2 0.3-0.5 0.5-0.2 0.2-0.5 0.4-0.3 0.2-0.7 0.3-0.3 0.2-0.7 0.3-0.4 0-0.7 0.1-0.4 0-0.8 0-0.5 0-1-0.1-0.5 0-1-0.2-0.4-0.2-0.8-0.5-0.5-0.4-0.8-0.8-0.3-0.4-0.5-0.9-0.3-0.5-0.4-1-0.2-0.5-0.3-1-0.1-0.5-0.2-1.1h0.3q-0.1 0.5-0.3 0.9-0.1 0.4-0.3 0.7-0.2 0.4-0.5 0.7-0.3 0.4-0.6 0.7-0.3 0.3-0.7 0.6-0.3 0.3-0.7 0.5-0.4 0.3-0.8 0.5-0.4 0.2-0.8 0.4-0.4 0.1-0.8 0.2-0.5 0.2-0.9 0.2-0.5 0.1-0.9 0.2-0.5 0-0.9 0z"/><path  d="m276.9 159h-11v-2.7l3.7-1v-34l-3.2-0.7v-2.8h10.7l8.1 28.9 0.9 4h0.1l1-4 7.8-28.9h11.8v2.8l-4.4 0.9v33.7l4.4 1v2.8h-13.4v-2.8l4.4-1v-30-1.9h-0.7l-10.1 35.7h-3l-10.2-35.7h-0.8v1.9 30.1l3.9 1zm41.1 0.5q-2.7 0-4.4-1.1-1.6-1.1-2.3-2.9-0.7-1.8-0.7-3.9 0-2.7 1-4.7 1.1-1.9 3.2-3.2 2.1-1.3 5.3-1.7l4.8-0.8v-4.8q0-1.9-0.7-3.1-0.6-1.2-1.7-1.7-1.1-0.6-2.8-0.6-1.4 0-2.3 0.3-0.9 0.2-1 0.3l-0.8 5.8q-0.1 0.1-0.4 0.3-0.4 0.2-1.3 0.2-0.9 0-1.7-0.8-0.8-0.8-0.8-2.2 0-1.9 1.3-3.5 1.2-1.5 3-2.5 1.8-1 3.6-1.4 1.8-0.5 3-0.5 2.2 0 3.8 1 1.5 0.9 2.3 2.6 0.8 1.7 0.8 3.7v20.4l3.8 0.9v2.4q-0.2 0.1-0.9 0.4-0.6 0.3-1.7 0.6-1.1 0.3-2.5 0.3-1.5 0-2.1-1-0.5-0.9-0.6-1.9h-0.2q-0.8 0.7-2 1.4-1 0.7-2.3 1.2-1.3 0.5-2.7 0.5zm2.1-4q2 0 3.4-0.6 1.4-0.6 1.4-0.6v-10.1q-3.3 0.3-5.5 1-2.1 0.8-3.1 2.1-1 1.3-1 3.3 0 4.9 4.8 4.9zm28.9-20.3l-15 6.5v-3l15-6.4zm-1.3 23.7h-12.7v-2.6l4.3-0.9v-36l-4.3-0.9v-2.6l7.4-1.4 1.2 0.6v40.3l4.1 0.9zm12.6 10.6q-2.6 0-5-0.7-2.3-0.7-3.7-2.2-1.4-1.6-1.4-4.2 0-1.6 0.6-2.9 0.7-1.3 1.7-2.3 1-1 2-1.7 1-0.7 1.7-1.2-0.3-0.5-0.7-1.3-0.3-0.8-0.3-1.8 0-1.4 0.7-2.5 0.8-1.2 1.7-1.9-2.3-0.6-3.8-1.9-1.4-1.4-2.1-3.3-0.6-1.9-0.6-3.8 0-3.2 1.3-5.6 1.3-2.5 3.6-3.9 2.3-1.4 5.2-1.4 1.9 0 3.3 0.6 1.6 0.5 2.5 1.3 0.2-0.1 0.9-0.7 0.7-0.7 1.7-1.3 1-0.6 2-0.6 1.2 0 1.7 0.7 0.7 0.6 0.7 2 0 1-0.4 1.8-0.4 0.7-0.6 1l-2-0.6q-0.8-0.3-1.3-0.4-0.4-0.1-1.2-0.1 0.9 1.4 1.3 3.1 0.4 1.7 0.4 3.2 0 3.1-1.4 5.4-1.3 2.3-3.6 3.5-2.2 1.3-4.9 1.3h-0.7v3.8l5.6 1.2q2.4 0.5 4.1 1.4 1.7 0.8 2.7 2.3 1 1.4 1 3.6 0 2.4-1 4.2-1 1.9-2.8 3.2-1.7 1.3-4 2-2.3 0.7-4.9 0.7zm1.3-3.3q2.1 0 3.7-0.6 1.7-0.6 2.7-1.8 1-1.2 1-3 0-1.2-0.7-2.2-0.7-1.1-3-1.7l-7.1-1.7q-1.4 1.1-2.5 2.9-1.1 1.8-1.1 3.5 0 2.4 1.7 3.5 1.6 1.1 5.3 1.1zm-0.9-22.7q1.7 0 2.8-0.6 1.2-0.6 1.8-2 0.6-1.4 0.6-4 0-2.1-0.5-3.5-0.5-1.4-1.6-2.1-1.1-0.8-3-0.8-2 0-3.1 0.7-1.2 0.7-1.7 2.2-0.5 1.5-0.5 3.8 0 2.3 0.5 3.7 0.6 1.4 1.8 2 1.2 0.6 2.9 0.6zm25.3 16q-3.7 0-6.2-1.9-2.5-1.9-3.8-5.5-1.2-3.5-1.2-8.4 0-3.5 0.8-6.5 0.8-3 2.4-5.3 1.5-2.4 3.8-3.7 2.3-1.3 5.1-1.3 3.8 0 6.3 1.9 2.6 1.8 3.8 5.3 1.3 3.4 1.3 8.1 0 3.7-0.8 6.9-0.8 3.1-2.3 5.4-1.6 2.4-3.9 3.7-2.3 1.3-5.3 1.3zm1-3.7q2.5 0 3.9-1.4 1.5-1.6 2.1-4.4 0.5-2.8 0.5-6.6 0-4.5-0.6-7.3-0.6-2.9-2.1-4.2-1.5-1.3-4.2-1.3-3 0-4.5 1.4-1.5 1.4-2.1 4.3-0.5 2.8-0.5 7.1 0 3.9 0.7 6.7 0.6 2.8 2.2 4.3 1.7 1.4 4.6 1.4zm27.5 3.1h-12.8v-2.6l3.6-0.9v-22.9l-4.1-0.9v-2.6l7.6-1.8 0.9 3.6q0.3-0.4 1.2-1.3 1-0.9 2.3-1.7 1.3-0.9 2.4-0.9 1.2 0 1.7 0.9 0.7 0.8 0.7 2.2 0 1.1-0.5 1.9-0.3 0.8-1.1 1.5l-2.2-0.7q-0.7-0.2-1.2-0.3-0.4-0.1-1-0.1-0.6 0-1.2 0.1-0.7 0.1-1.1 0.4v22.6l4.8 0.8zm25.9 0h-20.7v-2.9l14.5-24.5v-0.6h-10.1l-0.8 5.2h-2.3l-0.6-8.6h19.3v3.3l-14.2 24v0.7h11.3l0.8-5.3h2.3zm10.6 0.4q-2.7 0-4.4-1.1-1.6-1-2.3-2.8-0.7-1.9-0.7-4 0-2.6 1-4.6 1.1-2 3.2-3.2 2.1-1.3 5.3-1.8l4.8-0.8v-4.8q0-1.8-0.7-3-0.6-1.2-1.7-1.7-1.1-0.6-2.8-0.6-1.4 0-2.3 0.3-0.9 0.1-1 0.2l-0.8 5.9q-0.1 0-0.4 0.2-0.4 0.2-1.3 0.2-0.9 0-1.7-0.8-0.8-0.8-0.8-2.1 0-2 1.3-3.5 1.2-1.5 3-2.5 1.8-1 3.6-1.5 1.8-0.5 3-0.5 2.2 0 3.8 1 1.5 1 2.3 2.7 0.8 1.6 0.8 3.6v20.5l3.8 0.8v2.5q-0.2 0-0.9 0.3-0.6 0.4-1.7 0.7-1.1 0.2-2.5 0.2-1.5 0-2.1-0.9-0.5-1-0.6-2h-0.2q-0.8 0.8-2 1.5-1 0.7-2.3 1.2-1.3 0.4-2.7 0.4zm2.1-4q2 0 3.4-0.6 1.4-0.6 1.4-0.6v-10q-3.3 0.2-5.5 1-2.1 0.7-3.1 2.1-1 1.3-1 3.3 0 4.8 4.8 4.8zm24.5 3.8q-2.3 0-3.6-0.9-1.2-0.8-1.7-2.4-0.5-1.7-0.5-3.7v-21.3h-4.1v-2.7l4.1-1.3 1.3-6.6h3.1v7.2h7.5v1.8l-0.8 1.6h-6.7v20.8q0 2 0.6 2.6 0.7 0.6 2 0.6 1.5 0 2.7-0.3 1.3-0.4 1.6-0.5l0.5 2q-1.3 1.4-3 2.3-1.7 0.8-3 0.8zm17 0.2q-2.7 0-4.4-1.1-1.6-1-2.3-2.8-0.7-1.9-0.7-4 0-2.6 1-4.6 1.1-2 3.2-3.2 2.1-1.3 5.3-1.8l4.8-0.8v-4.8q0-1.8-0.7-3-0.5-1.2-1.7-1.7-1.1-0.6-2.8-0.6-1.3 0-2.2 0.3-1 0.1-1.1 0.2l-0.8 5.9q-0.1 0-0.4 0.2-0.4 0.2-1.3 0.2-0.9 0-1.7-0.8-0.7-0.8-0.7-2.1 0-2 1.2-3.5 1.3-1.5 3.1-2.5 1.8-1 3.6-1.5 1.8-0.5 2.9-0.5 2.3 0 3.8 1 1.5 1 2.3 2.7 0.8 1.6 0.8 3.6v20.5l3.8 0.8v2.5q-0.2 0-0.9 0.3-0.6 0.4-1.7 0.7-1.1 0.2-2.5 0.2-1.5 0-2.1-0.9-0.5-1-0.6-2h-0.2q-0.8 0.8-1.9 1.5-1.1 0.7-2.4 1.2-1.2 0.4-2.7 0.4zm2.1-4q2 0 3.4-0.6 1.4-0.6 1.4-0.6v-10q-3.3 0.2-5.4 1-2.2 0.7-3.2 2.1-1 1.3-1 3.3 0 4.8 4.8 4.8zm-206 62.6h-25.9v-3l19.9-34.2v-0.4h-15.3l-1.5 6.5h-2.6v-10.1h25.1v3l-19.8 34.1v0.5h16l1.5-6.6h2.6zm11.2 0.5q-2.7 0-4.3-1.1-1.6-1.1-2.4-2.9-0.6-1.8-0.6-3.9 0-2.7 1-4.7 1-1.9 3.1-3.2 2.2-1.3 5.3-1.7l4.8-0.9v-4.7q0-1.9-0.6-3.1-0.6-1.2-1.8-1.7-1.1-0.6-2.8-0.6-1.3 0-2.2 0.3-0.9 0.2-1.1 0.2l-0.8 5.9q0 0-0.4 0.2-0.4 0.2-1.3 0.2-0.9 0-1.7-0.7-0.7-0.9-0.7-2.2 0-2 1.2-3.5 1.3-1.5 3.1-2.5 1.8-1 3.6-1.4 1.8-0.5 2.9-0.5 2.3 0 3.8 1 1.6 0.9 2.4 2.6 0.8 1.6 0.8 3.7v20.4l3.7 0.9v2.4q-0.1 0.1-0.8 0.4-0.7 0.3-1.8 0.6-1 0.3-2.5 0.3-1.4 0-2-1-0.6-0.9-0.7-2h-0.2q-0.8 0.8-1.9 1.5-1 0.7-2.3 1.2-1.3 0.5-2.8 0.5zm2.1-4.1q2.1 0 3.4-0.5 1.4-0.7 1.4-0.7v-10q-3.3 0.2-5.4 1-2.1 0.8-3.2 2.1-1 1.3-1 3.3 0 4.8 4.8 4.8zm27.7 3.6h-12.7v-2.6l4.2-0.9v-36.1l-4.2-0.8v-2.6l7.4-1.4 1.2 0.5v25.1h2.8l5.5-8.3v-0.9l-2.9-0.9v-2.5h10.2v2.6l-3.2 1-6.1 9.4 7.1 14.7 4.3 1.1v2.6h-8.6v-1.1q0-1-0.3-1.6l-6-12.7h-2.8v11.9l4.1 0.9zm28.3 0h-12.8v-2.6l3.6-0.9v-23l-4.1-0.8v-2.7l7.6-1.7 0.9 3.5q0.3-0.3 1.2-1.2 1-0.9 2.3-1.8 1.3-0.9 2.4-0.9 1.1 0 1.7 0.9 0.7 0.9 0.7 2.3 0 1-0.5 1.9-0.3 0.8-1.1 1.4l-2.3-0.7q-0.6-0.2-1.1-0.2-0.4-0.1-1-0.1-0.6 0-1.2 0.1-0.7 0.1-1.2 0.4v22.5l4.9 0.9zm25.9 0h-20.7v-2.9l14.5-24.5v-0.6h-10.1l-0.8 5.1h-2.3l-0.7-8.6h19.4v3.4l-14.2 24v0.6h11.3l0.8-5.2h2.2zm14 0.5q-3.9 0-6.4-1.9-2.6-2.1-3.8-5.6-1.2-3.5-1.2-7.9 0-5.2 1.5-9.1 1.5-3.8 4.2-5.9 2.7-2.2 6.2-2.2 2.3 0 3.9 1 1.7 0.9 2.7 2.6 1 1.6 1.5 3.7 0.6 2 0.6 4.3 0 3.4-0.6 4.6-0.5 1-2 1h-13.3q0 3 0.8 5.5 0.8 2.5 2.6 4 1.9 1.5 4.9 1.5 2.9 0 4.5-0.7 1.7-0.7 1.9-0.9l0.7 1.8q-0.1 0.2-1.2 1.2-1.1 1.1-3 2.1-1.9 0.9-4.5 0.9zm-6.6-18.3l11.3-0.5q0.2-1.1 0.2-2.5 0-3.7-1.1-5.6-1.1-2-4.1-2-2.2 0-3.6 1.3-1.4 1.2-2 3.6-0.7 2.3-0.7 5.7zm30.5 18.1h-2.2l-8.4-28.1-3-1v-2.7h11.5v2.8l-3.6 0.7v0.8l4.4 16 0.6 2.9 0.5-2.9 5.2-20.3h4.4l5.2 20.3 0.5 2.9 0.5-2.9 4.1-15.8v-1l-3.3-0.7v-2.8h9.7v2.6l-3 1.3-7.6 27.9h-2.3l-6.6-25.3zm36 0.2q-1.9 0-3.7-0.4-1.7-0.5-2.9-1.1-1.3-0.5-1.8-1l0.6-7.7h2.2l0.8 5q0.7 0.6 1.9 1.1 1.4 0.6 3.2 0.6 3.3 0 4.3-1.5 1.1-1.5 1.1-4 0-1.9-0.8-2.9-0.9-1.1-2.2-1.6-1.4-0.7-3-1.2-1.4-0.4-2.8-1-1.4-0.6-2.6-1.5-1.1-0.9-1.8-2.4-0.7-1.6-0.7-4 0-3.1 1.3-5.1 1.2-1.9 3.5-2.9 2.2-1 4.8-1 1.7 0 3.3 0.3 1.5 0.3 2.7 0.7 1.1 0.4 1.6 0.7l-0.7 8h-2.2l-0.7-5.1q-0.4-0.2-1.7-0.6-1.3-0.4-2.7-0.4-3 0-4.1 1.2-1.1 1-1.1 3.5 0 1.4 0.7 2.3 0.8 0.9 2.1 1.5 1.3 0.5 2.8 1.1 1.5 0.5 2.9 1.2 1.5 0.6 2.7 1.6 1.3 1 2.1 2.7 0.7 1.6 0.7 4.1 0 3.6-1.4 5.8-1.4 2.2-3.6 3.1-2.3 0.9-4.8 0.9zm24.4-0.6h-12.7v-2.6l4.3-0.9v-36l-4.3-0.9v-2.6l7.4-1.4 1.2 0.6v25.1h2.9l5.4-8.4v-0.9l-2.8-0.8v-2.6h10.1v2.6l-3.2 1-6.1 9.4 7.1 14.7 4.3 1.1v2.6h-8.6v-1.1q0-1-0.3-1.6l-6-12.7h-2.8v11.9l4.1 0.9zm23 0.5q-2.7 0-4.4-1.1-1.6-1.1-2.3-2.9-0.7-1.8-0.7-3.9 0-2.7 1-4.7 1.1-1.9 3.2-3.2 2.1-1.3 5.3-1.7l4.8-0.8v-4.8q0-1.9-0.7-3.1-0.5-1.2-1.7-1.7-1.1-0.6-2.8-0.6-1.3 0-2.2 0.3-0.9 0.2-1.1 0.3l-0.8 5.8q-0.1 0.1-0.4 0.3-0.4 0.2-1.3 0.2-0.9 0-1.7-0.8-0.7-0.8-0.7-2.2 0-1.9 1.2-3.5 1.3-1.5 3.1-2.5 1.8-1 3.6-1.4 1.8-0.5 2.9-0.5 2.3 0 3.8 1 1.5 0.9 2.3 2.6 0.8 1.7 0.8 3.7v20.4l3.8 0.9v2.4q-0.2 0.1-0.9 0.4-0.6 0.3-1.7 0.6-1.1 0.3-2.5 0.3-1.5 0-2.1-1-0.5-0.9-0.6-1.9h-0.2q-0.8 0.7-1.9 1.4-1.1 0.7-2.4 1.2-1.2 0.5-2.7 0.5zm2.1-4q2 0 3.4-0.6 1.4-0.6 1.4-0.6v-10.1q-3.3 0.3-5.4 1-2.2 0.8-3.2 2.1-1 1.3-1 3.3 0 4.9 4.8 4.9zm27.5-11.5h-11.4v-3.9l11.4-1zm24 15h-13.2v-2.8l4.3-0.9v-33.9h-7.6l-1.1 6.9h-2.6v-10.5h27.1v10.5h-2.6l-1-6.9h-7.6v33.9l4.3 0.9zm22.4 0h-12.8v-2.6l3.6-0.9v-22.9l-4.1-0.9v-2.6l7.6-1.8 0.9 3.6q0.3-0.4 1.2-1.2 1-1 2.3-1.8 1.3-0.9 2.5-0.9 1.1 0 1.6 0.9 0.7 0.8 0.7 2.2 0 1.1-0.4 1.9-0.4 0.8-1.2 1.5l-2.2-0.7q-0.7-0.2-1.1-0.3-0.5-0.1-1.1-0.1-0.6 0-1.2 0.1-0.7 0.1-1.1 0.4v22.6l4.8 0.8zm16.7 0.6q-3.7 0-5.7-2.3-2.1-2.2-2.1-6.5v-18.8l-4.4-0.9v-2.4l7.3-1.8 1.5 0.9v20.3q0 4.1 1.2 5.8 1.2 1.5 4.6 1.5 1.1 0 2.5-0.5 1.5-0.5 2.6-1.3v-21.6l-4.3-0.9v-2.4l7.2-1.8 1.5 0.9v26.7l3.8 1v2.4l-7.3 1.3-0.8-3.2-0.1 0.1q-1.3 1.5-3.3 2.5-2 1-4.2 1zm28 0q-1.9 0-3.7-0.5-1.7-0.4-3-1-1.2-0.6-1.7-1l0.6-7.8h2.2l0.7 5.1q0.7 0.5 2 1.1 1.3 0.6 3.1 0.6 3.3 0 4.4-1.6 1.1-1.5 1.1-3.9 0-1.9-0.9-2.9-0.8-1.1-2.2-1.7-1.4-0.6-2.9-1.1-1.5-0.5-2.9-1-1.3-0.6-2.5-1.5-1.2-1-1.9-2.5-0.7-1.6-0.7-4 0-3 1.3-5 1.3-2 3.5-2.9 2.2-1.1 4.9-1.1 1.7 0 3.2 0.4 1.6 0.2 2.7 0.7 1.2 0.3 1.7 0.7l-0.8 7.9h-2.1l-0.8-5.1q-0.3-0.2-1.6-0.5-1.3-0.4-2.7-0.4-3 0-4.2 1.1-1.1 1.1-1.1 3.5 0 1.5 0.8 2.4 0.8 0.9 2 1.4 1.4 0.6 2.9 1.1 1.4 0.5 2.9 1.2 1.5 0.7 2.7 1.7 1.3 1 2 2.6 0.8 1.6 0.8 4.1 0 3.7-1.4 5.9-1.4 2.1-3.7 3.1-2.2 0.9-4.7 0.9zm25.2-0.6h-12.8v-2.6l4.3-0.9v-22.6l-4.2-0.9v-2.6l7.3-1.8 1.3 0.6v27.3l4.1 0.9zm-6.9-36.1q-1.3 0-2.2-1.1-0.8-1.2-0.8-2.9 0-1.6 0.9-2.9 0.9-1.3 2.4-1.3 1.3 0 2.1 1 0.8 1 0.8 2.8 0 1.8-0.8 3.1-0.9 1.3-2.4 1.3zm23.2 12.3l-15 6.5v-3l15-6.5zm-1.3 23.8h-12.7v-2.6l4.2-0.9v-36.1l-4.2-0.8v-2.7l7.3-1.4 1.3 0.6v40.4l4.1 0.9zm13.8 0.6q-3.7 0-6.2-1.9-2.5-1.9-3.8-5.5-1.2-3.6-1.2-8.5 0-3.4 0.8-6.4 0.8-3 2.4-5.3 1.6-2.4 3.8-3.7 2.3-1.4 5.1-1.4 3.8 0 6.3 2 2.6 1.8 3.8 5.2 1.3 3.5 1.3 8.2 0 3.7-0.8 6.8-0.8 3.2-2.3 5.5-1.5 2.4-3.9 3.7-2.3 1.3-5.3 1.3zm1-3.7q2.5 0 4-1.5 1.4-1.5 2-4.3 0.6-2.8 0.6-6.7 0-4.4-0.7-7.2-0.6-2.9-2.1-4.2-1.5-1.4-4.2-1.4-3 0-4.5 1.5-1.5 1.4-2.1 4.3-0.4 2.8-0.4 7 0 4 0.6 6.8 0.6 2.8 2.2 4.2 1.7 1.5 4.6 1.5z"/></svg>