<svg version="1.2" xmlns="http://www.w3.org/2000/svg" viewBox="0 0 710 360" width="710" height="360">
	<title>proba-svg</title>
	<defs>
		<linearGradient id="g1" x2="1" gradientUnits="userSpaceOnUse" gradientTransform="matrix(0,-0.02,.01,0,202.17,59.24)">
			<stop offset="0" stop-color="#b27c2d"/>
			<stop offset=".5" stop-color="#f5c665"/>
			<stop offset=".62" stop-color="#f1c060"/>
			<stop offset=".79" stop-color="#e5af50"/>
			<stop offset=".98" stop-color="#d19338"/>
			<stop offset="1" stop-color="#ce8f34"/>
		</linearGradient>
		<linearGradient id="g2" x2="1" gradientUnits="userSpaceOnUse" gradientTransform="matrix(0,-89.35,59.325,0,84.99,209.76)">
			<stop offset="0" stop-color="#b27c2d"/>
			<stop offset=".5" stop-color="#f5c665"/>
			<stop offset=".62" stop-color="#f1c060"/>
			<stop offset=".79" stop-color="#e5af50"/>
			<stop offset=".98" stop-color="#d19338"/>
			<stop offset="1" stop-color="#ce8f34"/>
		</linearGradient>
		<linearGradient id="g3" x2="1" gradientUnits="userSpaceOnUse" gradientTransform="matrix(0,-241.29,243.829,0,202.23,300.53)">
			<stop offset="0" stop-color="#b27c2d"/>
			<stop offset=".5" stop-color="#f5c665"/>
			<stop offset=".62" stop-color="#f1c060"/>
			<stop offset=".79" stop-color="#e5af50"/>
			<stop offset=".98" stop-color="#d19338"/>
			<stop offset="1" stop-color="#ce8f34"/>
		</linearGradient>
		<linearGradient id="g4" x2="1" gradientUnits="userSpaceOnUse" gradientTransform="matrix(0,-89.31,59.282,0,319.34,209.76)">
			<stop offset="0" stop-color="#b27c2d"/>
			<stop offset=".5" stop-color="#f5c665"/>
			<stop offset=".62" stop-color="#f1c060"/>
			<stop offset=".79" stop-color="#e5af50"/>
			<stop offset=".98" stop-color="#d19338"/>
			<stop offset="1" stop-color="#ce8f34"/>
		</linearGradient>
	</defs>
	<style>
		tspan { white-space:pre } 
		.s0 { fill: url(#g1) } 
		.s1 { fill: url(#g2) } 
		.s2 { fill: url(#g3) } 
		.s3 { fill: url(#g4) } 
		.s4 { fill: #231f20 } 
		.t5 { font-size: 71px;fill: #000000;font-weight: 400;font-family: "DenkOne-Regular", "Denk One" } 
		.t6 { font-size: 39px;fill: #000000;font-weight: 400;font-family: "Delius-Regular", "Delius" } 
		.t7 { font-size: 39px;fill: #000000;font-weight: 400;font-family: "DenkOne-Regular", "Denk One" } 
	</style>
	<path id="Layer" class="s0" d="m202.2 59.2z"/>
	<path id="Layer" fill-rule="evenodd" class="s1" d="m107.1 183.4q1.2 0.1 2.5 0.3 1.3 0.2 2.5 0.4 1.3 0.2 2.5 0.4v3.2l-7.4 0.2h-0.3l-7.1 0.1-8.8 0.1c3.1 1.4 9.3 4.1 15.1 5-1.6 5.3-5 9.8-9.6 12.8-4.6 3-10.1 4.3-15.6 3.7-5.5-0.6-10.5-3.1-14.3-7.1-3.9-4-6.2-9.1-6.6-14.6l-4.7-0.1v-3.3c3.4-0.7 6.8-1.1 10.2-1.5l18-62.6q0.1 0 0.3 0.1 0.3 0.1 0.5 0.1 0.2 0 0.4 0.1 0.2 0 0.4 0 0.1 0 0.1 0 0.1 0 0.2 0 0 0 0.1 0 0.1 0 0.2 0 0.5 0.5 1.2 1.1l17.6 61.3q1.3 0.1 2.6 0.3zm-8.1-0.8l-14-49-14 49c2.2-0.1 4.4-0.2 6.6-0.3l7.4-0.1q3.7 0 7.4 0.1c2.2 0.1 4.4 0.2 6.6 0.3z"/>
	<path id="Layer" class="s2" d="m324.2 115.8q0 0.8-0.2 1.5-0.3 0.8-0.7 1.4-0.4 0.6-1.1 1.1-0.6 0.4-1.3 0.6-0.2 0.1-0.4 0.2-0.2 0-0.4 0-0.2 0.1-0.4 0.1-0.2 0-0.3 0-0.1 0-0.2 0-0.1 0-0.2 0-0.1 0-0.1 0-0.1 0-0.2 0-0.6 0.6-1.3 1.1-1.1 0.9-2.3 1.7-1.1 0.8-2.4 1.5-1.3 0.6-2.6 1.1-1.3 0.6-2.7 0.9c-10.5 2.8-20-2.1-25.7-4.7-1.8-0.8-6.2-3.6-14.9-9.2l-9.2-5.8q-1-0.8-2.1-1.5-1.2-0.7-2.3-1.3-1.1-0.6-2.3-1.2-1.2-0.5-2.4-1-1.2-0.5-2.4-0.8-1.3-0.4-2.5-0.6-1.3-0.3-2.6-0.4-1.2-0.2-2.5-0.3-1.7-0.1-3.3-0.1-1.7 0.1-3.3 0.4-1.7 0.3-3.3 0.8-1.6 0.5-3.1 1.2c-9.9 4.8-14 16.2-15.5 26.3q-0.3 2.4-0.4 4.7-0.1 2.4-0.1 4.7 0 2.4 0.1 4.7 0.1 2.3 0.4 4.7 0.3 2.4 0.6 4.8 0.3 2.4 0.8 4.8 0.4 2.4 0.9 4.8 0.6 2.4 1.2 4.7 0.6 2.3 1 4.6 0.4 2.4 0.5 4.7 0.2 2.4 0.1 4.7-0.1 2.4-0.4 4.7l-2 14.5q-1 4.1-1.7 8.3-0.8 4.2-1.3 8.4-0.5 4.3-0.7 8.5-0.3 4.3-0.3 8.5v23.5c0 4.1 0.8 8.2 2.4 12 1.5 3.7 3.8 7.2 6.7 10.1 2.9 2.9 6.4 5.2 10.1 6.7 3.8 1.6 7.9 2.4 12 2.4h16.2c10.3 0 15.2 6.9 15.2 12.3h-138.3c0-5.4 4.9-12.3 15.3-12.3h16.1c4.1 0 8.2-0.8 12-2.4 3.7-1.5 7.2-3.8 10.1-6.7 2.9-2.9 5.2-6.4 6.7-10.1 1.6-3.8 2.4-7.9 2.4-12v-23.5q0-4.3-0.2-8.5-0.3-4.3-0.8-8.5-0.5-4.2-1.2-8.4-0.8-4.2-1.8-8.4l-2-14.5q-0.3-2.3-0.4-4.7-0.1-2.3 0.1-4.7 0.1-2.3 0.5-4.6 0.4-2.3 1-4.6 0.7-2.4 1.2-4.7 0.5-2.4 1-4.8 0.4-2.4 0.7-4.8 0.4-2.5 0.6-4.9 0.3-2.3 0.4-4.7 0.2-2.3 0.2-4.7 0-2.3-0.1-4.6-0.2-2.4-0.4-4.7c-1.5-10.2-5.7-21.6-15.5-26.4q-1.6-0.7-3.2-1.2-1.5-0.5-3.2-0.8-1.6-0.2-3.3-0.3-1.7-0.1-3.3 0-1.3 0.1-2.6 0.3-1.2 0.2-2.5 0.4-1.2 0.3-2.5 0.6-1.2 0.4-2.4 0.8-1.2 0.5-2.4 1.1-1.1 0.5-2.3 1.2-1.1 0.6-2.2 1.3-1.2 0.7-2.2 1.4l-9.2 5.9c-8.7 5.5-13.1 8.3-14.9 9.1q-1 0.5-2.1 1-1 0.5-2.1 1-1.1 0.4-2.2 0.8-1 0.5-2.1 0.9-1.2 0.4-2.4 0.7-1.2 0.3-2.4 0.6-1.2 0.2-2.4 0.4-1.2 0.1-2.4 0.2-1 0-1.9 0-1 0-1.9-0.1-1-0.1-1.9-0.3-1-0.2-1.9-0.4-1.4-0.4-2.7-0.9-1.3-0.5-2.6-1.2-1.3-0.6-2.5-1.4-1.2-0.8-2.3-1.7-0.6-0.6-1.2-1.1-0.1 0-0.2 0 0 0-0.1 0-0.1 0-0.1 0-0.1 0-0.2 0-0.2 0-0.4 0-0.2 0-0.4-0.1-0.2 0-0.4-0.1-0.2 0-0.4-0.1c-1.7-0.6-2.9-2.1-3.2-3.9-0.2-1.8 0.6-3.6 2.1-4.7 1.4-1 3.4-1.1 5-0.3 1.6 0.9 2.6 2.5 2.6 4.3q0 0.2 0 0.3 0 0.1 0 0.2 0 0.2-0.1 0.3 0 0.1 0 0.2 0.9 0.6 1.9 1.1 1 0.4 2 0.7 1.1 0.4 2.2 0.6 1 0.2 2.1 0.3l0.8 0.1q1.2 0 2.4-0.1 1.2-0.1 2.4-0.4 1.2-0.3 2.4-0.7 1.1-0.5 2.2-1 0.7-0.4 1.4-0.8 0.8-0.4 1.5-0.8 0.7-0.4 1.4-0.8 0.7-0.4 1.4-0.9c10.9-7 13.8-11.8 22-18.5 9.5-8 24.7-17.6 37-16.8q2 0.2 4 0.6 2 0.3 3.9 1 2 0.6 3.8 1.4 1.8 0.9 3.6 1.9 0.7 0.4 1.5 0.5 0.8 0.1 1.6-0.1 0.8-0.3 1.4-0.8 0.6-0.6 1-1.3c2.8-5.8 5.6-17 8.4-22.8 2.8 5.8 5.6 17 8.4 22.8q0.3 0.7 0.9 1.3 0.6 0.5 1.4 0.7 0.8 0.3 1.6 0.2 0.8-0.1 1.5-0.5 1.7-1 3.6-1.9 1.8-0.8 3.7-1.4 2-0.7 4-1 2-0.4 4-0.6c12.3-0.8 27.6 8.8 37.1 16.7 8.2 6.8 11.1 11.6 22 18.6 6.1 3.9 10.6 5.8 15.8 5.4q1.1-0.1 2.2-0.3 1.1-0.3 2.1-0.6 1.1-0.4 2.1-0.8 1-0.5 1.9-1 0-0.2 0-0.3 0-0.1 0-0.2 0-0.1-0.1-0.2 0-0.1 0-0.3c0.1-1.2 0.6-2.4 1.5-3.3 0.9-0.8 2.2-1.3 3.4-1.3 1.3 0 2.5 0.5 3.4 1.3 0.9 0.9 1.4 2.1 1.5 3.3z"/>
	<path id="Layer" fill-rule="evenodd" class="s3" d="m341.4 183.4q1.3 0.1 2.5 0.3 1.3 0.2 2.6 0.4 1.2 0.2 2.5 0.5v3.2l-7.4 0.2h-0.4l-7 0.1-8.9 0.1c3.1 1.4 9.4 4.1 15.1 5-1.6 5.2-5 9.8-9.6 12.8-4.6 3-10.1 4.3-15.6 3.7-5.4-0.6-10.5-3.2-14.3-7.1-3.8-4-6.1-9.1-6.5-14.6l-4.7-0.2v-3.2c3.3-0.7 6.7-1.2 10.1-1.5l17.6-61.3q0.7-0.6 1.3-1.1 0.1 0 0.1 0 0.1 0 0.2 0 0.1 0 0.2 0 0 0 0.1 0 0.2 0 0.4 0 0.2 0 0.4-0.1 0.2 0 0.4 0 0.2-0.1 0.4-0.1l18 62.6q1.2 0.1 2.5 0.3zm-8-0.8l-14.1-49-14 49c2.2-0.1 4.4-0.2 6.6-0.3l7.4-0.1c2.5 0 5 0 7.5 0.1 2.2 0.1 4.4 0.2 6.6 0.3z"/>
	<path id="Layer" class="s4" d="m184.9 227.7v15.8l-74.5-107.5 8.7-3.3 65.8 95z"/>
	<path id="Layer" class="s4" d="m103.4 110.4q-1.1 0.5-2.2 1-1.2 0.4-2.4 0.7-1.1 0.2-2.4 0.4-1.2 0.1-2.4 0.1l-10.4-15.1 9-2.7z"/>
	<path id="Layer" class="s4" d="m301 110.4q1.1 0.5 2.2 1 1.2 0.4 2.4 0.7 1.1 0.2 2.4 0.4 1.2 0.1 2.4 0.1l10.4-15.1-9-2.7z"/>
	<path id="Layer" class="s4" d="m219 239.9v4.1l66.5-95.9 0.1-15.9-66 95.2v0.3c-0.4 4.2-0.6 8.3-0.6 12.2z"/>
	<path id="Layer" class="s4" d="m185 260.7c0 0-1.5 5.9-4.4 9q-0.5 0.6-1.1 1.1-0.6 0.6-1.2 1.1-0.6 0.5-1.2 0.9-0.6 0.5-1.3 0.9-0.7 0.5-1.5 0.9-0.8 0.5-1.6 0.9-0.8 0.3-1.6 0.6-0.8 0.4-1.6 0.6l-3-4.4-2.5-3.6-38.6-55.4-1.8-16.8 14.6 17.8-15.6-27.2-2.2-19.7z"/>
	<path id="Layer" class="s4" d="m219.4 260.7c0 0 1.5 5.9 4.3 9q0.6 0.6 1.2 1.1 0.5 0.6 1.2 1.1 0.6 0.5 1.2 0.9 0.6 0.5 1.3 0.9 0.7 0.5 1.5 0.9 0.8 0.5 1.6 0.9 0.7 0.3 1.6 0.6 0.8 0.4 1.6 0.6c1-1.4 2-2.9 2.9-4.4l2.6-3.6q19.3-27.7 38.6-55.4l1.8-16.8-14.6 17.8 15.6-27.2 2.2-19.7z"/>
	<path id="Layer" class="s4" d="m112 293.3v7.2h-36.1v-79.7l7.2 9.2 5 58.9 23.9 4.4z"/>
	<path id="Layer" class="s4" d="m292.3 293.3v7.2h36.2v-79.7l-7.3 9.2-4.9 58.9-24 4.4z"/>
	<path id="Layer" class="s4" d="m160.3 63.8v-4.6h-84.4v24.7l7.2-4.3 5-8.8 72.2-7z"/>
	<path id="Layer" class="s4" d="m244.1 63.8v-4.6h84.4v24.7l-7.3-4.3-4.9-8.8-72.2-7z"/>
	<path id="Layer" class="s4" d="m729 449.8q-0.7 0-1.3-0.1-0.7-0.1-1.3-0.3-0.6-0.2-1.2-0.5-0.6-0.3-1.1-0.7-0.5-0.5-1-1-0.4-0.6-0.6-1.2-0.3-0.6-0.4-1.3-0.1-0.7-0.1-1.4 0-0.9 0.2-1.8 0.3-0.9 0.8-1.7 0.5-0.8 1.3-1.4 0.7-0.6 1.6-0.9 3.8-1.8 11.6-1.8v1.5q-0.7 0-1.4 0-0.7 0-1.4 0.1-0.7 0-1.4 0.1-0.7 0.1-1.3 0.2-0.5 0.1-1 0.2-0.4 0.2-0.8 0.4-0.5 0.2-0.9 0.4-0.3 0.3-0.7 0.6-0.3 0.3-0.5 0.7-0.2 0.4-0.4 0.8-0.1 0.5-0.2 0.9-0.1 0.4 0 0.9-0.1 0.5 0 1 0 0.5 0.1 1 0.2 0.5 0.4 0.9 0.2 0.5 0.5 0.9 0.2 0.3 0.5 0.5 0.3 0.3 0.7 0.4 0.3 0.2 0.7 0.2 0.4 0.1 0.7 0.1 0.5 0 1-0.1 0.4-0.1 0.9-0.3 0.4-0.2 0.8-0.4 0.4-0.3 0.7-0.6 0.5-0.4 0.9-0.9 0.3-0.5 0.6-1 0.3-0.5 0.5-1.1 0.2-0.5 0.3-1.1v-9.8q0.1-0.6 0-1.2 0-0.5-0.2-1.1-0.1-0.5-0.4-1.1-0.2-0.5-0.5-1-0.3-0.3-0.7-0.6-0.4-0.3-0.9-0.5-0.4-0.1-0.9-0.2-0.5-0.1-0.9-0.1-0.3 0-0.6 0-0.3 0.1-0.6 0.1-0.3 0.1-0.6 0.2-0.3 0.2-0.5 0.3-0.2 0.2-0.3 0.3-0.2 0.2-0.3 0.4-0.2 0.1-0.3 0.3-0.1 0.2-0.2 0.5 0 0.2-0.1 0.4-0.1 0.2-0.2 0.4 0 0.2-0.1 0.4 0 0.2-0.1 0.5-0.1 0.2-0.1 0.4-0.1 0.2-0.2 0.3-0.1 0.2-0.2 0.4-0.1 0.2-0.3 0.3-0.1 0.2-0.3 0.3-0.2 0.1-0.4 0.2-0.3 0.1-0.5 0.1-0.2 0.1-0.4 0-0.3 0.1-0.5 0-0.3 0-0.5-0.1-0.3-0.1-0.5-0.2-0.2-0.2-0.4-0.4-0.2-0.1-0.3-0.3-0.1-0.2-0.2-0.4-0.1-0.2-0.1-0.5-0.1-0.2-0.1-0.4 0-1.9 2.3-3.4 2.4-1.5 7-1.5 0.7 0 1.3 0 0.7 0.1 1.3 0.2 0.6 0.1 1.2 0.3 0.7 0.2 1.2 0.4 0.5 0.2 1 0.5 0.5 0.3 0.9 0.7 0.4 0.3 0.7 0.7 0.4 0.4 0.6 0.9 0.3 0.6 0.6 1.1 0.2 0.6 0.3 1.3 0.2 0.6 0.2 1.2 0.1 0.6 0.1 1.3v11.5q0 2.9 1.4 2.9 0.2-0.1 0.4-0.1 0.2-0.1 0.4-0.2 0.2-0.2 0.3-0.4 0.1-0.1 0.2-0.3 0.2-0.4 0.3-0.8 0.1-0.3 0.2-0.7 0.1-0.4 0.1-0.8 0.1-0.4 0.1-0.7h1.4q0 0.4 0 0.8 0 0.4-0.1 0.8-0.1 0.4-0.2 0.8-0.1 0.3-0.2 0.7-0.1 0.3-0.3 0.6-0.1 0.3-0.3 0.5-0.2 0.3-0.5 0.5-0.2 0.2-0.5 0.4-0.3 0.2-0.7 0.3-0.3 0.2-0.7 0.3-0.4 0-0.7 0.1-0.4 0-0.8 0-0.5 0-1-0.1-0.5 0-1-0.2-0.4-0.2-0.8-0.5-0.5-0.4-0.8-0.8-0.3-0.4-0.5-0.9-0.3-0.5-0.4-1-0.2-0.5-0.3-1-0.1-0.5-0.2-1.1h0.3q-0.1 0.5-0.3 0.9-0.1 0.4-0.3 0.7-0.2 0.4-0.5 0.7-0.3 0.4-0.6 0.7-0.3 0.3-0.7 0.6-0.3 0.3-0.7 0.5-0.4 0.3-0.8 0.5-0.4 0.2-0.8 0.4-0.4 0.1-0.8 0.2-0.5 0.2-0.9 0.2-0.5 0.1-0.9 0.2-0.5 0-0.9 0z"/>
	<text id="Adwokat Małgorzata Zakrzewska-Tr" style="transform: matrix(1,0,0,1,363,92)" >
		<tspan x="0" y="59.8" class="t5">A</tspan><tspan  y="59.8" class="t5">d</tspan><tspan  y="59.8" class="t5">w</tspan><tspan  y="59.8" class="t5">o</tspan><tspan  y="59.8" class="t5">k</tspan><tspan  y="59.8" class="t5">a</tspan><tspan  y="59.8" class="t5">t</tspan><tspan  y="59.8" class="t6">
</tspan>
		<tspan x="0" y="106.6" class="t7">Małgorzata </tspan>
		<tspan x="0" y="153.4" class="t7">Zakrzewska-Trus</tspan><tspan  y="153.4" class="t7">iło
</tspan>
	</text>
</svg>