<svg version="1.2" xmlns="http://www.w3.org/2000/svg" viewBox="0 0 811 361" width="811" height="361"><defs><linearGradient id="P" gradientUnits="userSpaceOnUse"/><linearGradient id="g1" x2="1" href="#P" gradientTransform="matrix(NaN,NaN,NaN,NaN,NaN,NaN)"><stop stop-color="#b27c2d"/><stop offset=".5" stop-color="#f5c665"/><stop offset=".62" stop-color="#f1c060"/><stop offset=".79" stop-color="#e5af50"/><stop offset=".98" stop-color="#d19338"/><stop offset="1" stop-color="#ce8f34"/></linearGradient><linearGradient id="g2" x2="1" href="#P" gradientTransform="matrix(0,-89.598,59.388,0,42.11,210.343)"><stop stop-color="#b27c2d"/><stop offset=".5" stop-color="#f5c665"/><stop offset=".62" stop-color="#f1c060"/><stop offset=".79" stop-color="#e5af50"/><stop offset=".98" stop-color="#d19338"/><stop offset="1" stop-color="#ce8f34"/></linearGradient><linearGradient id="g3" x2="1" href="#P" gradientTransform="matrix(0,-241.96,244.163,0,159.515,301.365)"><stop stop-color="#b27c2d"/><stop offset=".5" stop-color="#f5c665"/><stop offset=".62" stop-color="#f1c060"/><stop offset=".79" stop-color="#e5af50"/><stop offset=".98" stop-color="#d19338"/><stop offset="1" stop-color="#ce8f34"/></linearGradient><linearGradient id="g4" x2="1" href="#P" gradientTransform="matrix(0,-89.558,59.362,0,276.79,210.343)"><stop stop-color="#b27c2d"/><stop offset=".5" stop-color="#f5c665"/><stop offset=".62" stop-color="#f1c060"/><stop offset=".79" stop-color="#e5af50"/><stop offset=".98" stop-color="#d19338"/><stop offset="1" stop-color="#ce8f34"/></linearGradient></defs><style>.a{fill:url(#g1)}.b{fill:url(#g2)}.c{fill:url(#g3)}.d{fill:url(#g4)}.e{fill:#231f20}</style><path class="a" d=""/><path fill-rule="evenodd" class="b" d="m64.3 183.9q1.2 0.1 2.5 0.3 1.3 0.2 2.5 0.4 1.3 0.2 2.5 0.4v3.2l-7.4 0.2h-0.3l-7.2 0.1-8.8 0.1c3.1 1.4 9.3 4.1 15.1 5-1.6 5.4-5 9.9-9.6 12.9-4.6 3-10.1 4.3-15.6 3.7-5.5-0.6-10.5-3.1-14.3-7.1-3.9-4-6.2-9.2-6.6-14.7l-4.7-0.1v-3.3c3.4-0.7 6.8-1.1 10.2-1.5l18-62.8q0.1 0 0.3 0.1 0.3 0.1 0.5 0.1 0.2 0 0.4 0.1 0.2 0 0.4 0 0.1 0 0.1 0 0.1 0 0.2 0 0 0 0.1 0 0.1 0 0.2 0 0.5 0.5 1.2 1.1l17.6 61.5q1.3 0.1 2.7 0.3zm-8.2-0.8l-14-49.1-14 49.1q3.3-0.1 6.6-0.3l7.4-0.1q3.7 0 7.4 0.1 3.3 0.2 6.6 0.3z"/><path class="c" d="m281.7 116.1q0 0.8-0.2 1.5-0.3 0.8-0.7 1.4-0.4 0.6-1.1 1.1-0.6 0.4-1.3 0.6-0.2 0.1-0.4 0.2-0.2 0-0.4 0-0.2 0.1-0.4 0.1-0.2 0-0.4 0-0.1 0-0.2 0-0.1 0-0.2 0-0.1 0-0.1 0-0.1 0-0.2 0-0.6 0.6-1.3 1.1-1.1 0.9-2.3 1.7-1.1 0.8-2.4 1.5-1.3 0.6-2.6 1.2-1.3 0.6-2.7 0.9c-10.5 2.8-20-2.2-25.7-4.8-1.8-0.8-6.2-3.6-14.9-9.2l-9.2-5.8q-1-0.8-2.1-1.5-1.2-0.7-2.3-1.3-1.1-0.6-2.3-1.2-1.2-0.5-2.4-1-1.3-0.5-2.5-0.8-1.3-0.4-2.5-0.6-1.3-0.3-2.6-0.4-1.2-0.2-2.5-0.3-1.7-0.1-3.3-0.1-1.7 0.1-3.3 0.4-1.7 0.3-3.3 0.8-1.6 0.5-3.1 1.2c-9.9 4.8-14 16.2-15.5 26.4q-0.3 2.4-0.4 4.7-0.1 2.4-0.1 4.7 0 2.4 0.1 4.7 0.1 2.3 0.4 4.7 0.3 2.4 0.6 4.8 0.3 2.4 0.8 4.8 0.4 2.4 0.9 4.8 0.6 2.5 1.2 4.8 0.6 2.3 1 4.6 0.4 2.4 0.5 4.7 0.2 2.4 0.1 4.7-0.1 2.4-0.4 4.7l-2 14.6q-1 4.1-1.7 8.3-0.8 4.2-1.3 8.4-0.5 4.3-0.7 8.5-0.3 4.3-0.3 8.5v23.6c0 4.1 0.8 8.2 2.4 12 1.5 3.8 3.8 7.3 6.7 10.2 2.9 2.9 6.4 5.2 10.1 6.7 3.8 1.6 7.9 2.4 12 2.4h16.3c10.3 0 15.2 6.9 15.2 12.3h-138.5c0-5.4 4.9-12.3 15.3-12.3h16.1c4.1 0 8.2-0.8 12-2.4 3.8-1.5 7.3-3.8 10.2-6.7 2.9-2.9 5.2-6.4 6.7-10.2 1.6-3.8 2.4-7.9 2.4-12v-23.6q0-4.3-0.2-8.5-0.3-4.3-0.8-8.5-0.5-4.2-1.2-8.4-0.8-4.2-1.8-8.4l-2-14.6q-0.3-2.3-0.4-4.7-0.1-2.3 0.1-4.7 0.1-2.3 0.5-4.6 0.4-2.3 1-4.6 0.7-2.4 1.2-4.8 0.5-2.4 1-4.8 0.4-2.4 0.7-4.8 0.4-2.5 0.6-4.9 0.3-2.3 0.4-4.7 0.2-2.3 0.2-4.7 0-2.3-0.1-4.6-0.2-2.4-0.4-4.7c-1.5-10.3-5.7-21.7-15.5-26.5q-1.7-0.7-3.3-1.2-1.5-0.5-3.2-0.8-1.6-0.2-3.3-0.3-1.7-0.1-3.3 0-1.3 0.1-2.6 0.3-1.2 0.2-2.5 0.4-1.2 0.3-2.5 0.6-1.2 0.4-2.4 0.8-1.2 0.5-2.4 1.1-1.1 0.5-2.3 1.2-1.1 0.6-2.2 1.3-1.2 0.7-2.2 1.4l-9.2 5.9c-8.7 5.5-13.1 8.3-14.9 9.1q-1 0.5-2.1 1-1 0.5-2.1 1-1.1 0.4-2.2 0.8-1 0.5-2.1 0.9-1.2 0.5-2.4 0.8-1.2 0.3-2.4 0.6-1.2 0.2-2.4 0.4-1.3 0.1-2.5 0.2-1 0-1.9 0-1 0-1.9-0.1-1-0.1-1.9-0.3-1-0.2-1.9-0.4-1.4-0.4-2.7-0.9-1.3-0.6-2.6-1.3-1.3-0.6-2.5-1.4-1.2-0.8-2.3-1.7-0.6-0.6-1.2-1.1-0.1 0-0.2 0 0 0-0.1 0-0.1 0-0.1 0-0.1 0-0.2 0-0.2 0-0.4 0-0.2 0-0.4-0.1-0.2 0-0.4-0.1-0.2 0-0.4-0.1c-1.7-0.6-2.9-2.1-3.2-3.9-0.2-1.8 0.6-3.6 2.1-4.7 1.4-1 3.4-1.1 5-0.3 1.6 0.9 2.6 2.5 2.6 4.3q0 0.2 0 0.3 0 0.1 0 0.2 0 0.2-0.1 0.3 0 0.1 0 0.2 0.9 0.6 1.9 1.1 1 0.4 2 0.7 1.1 0.4 2.2 0.6 1 0.2 2.1 0.3l0.8 0.1q1.2 0 2.4-0.1 1.2-0.1 2.4-0.4 1.2-0.3 2.4-0.7 1.2-0.5 2.3-1 0.7-0.4 1.4-0.8 0.8-0.4 1.5-0.8 0.7-0.4 1.4-0.8 0.7-0.4 1.4-0.9c10.9-7 13.8-11.8 22-18.5 9.5-8.1 24.7-17.7 37-16.9q2 0.2 4 0.6 2.1 0.3 4 1 2 0.6 3.8 1.4 1.8 0.9 3.6 1.9 0.7 0.4 1.5 0.5 0.8 0.1 1.6-0.1 0.8-0.3 1.4-0.8 0.6-0.6 1-1.3c2.8-5.8 5.6-17 8.4-22.8 2.8 5.8 5.6 17 8.4 22.8q0.3 0.7 0.9 1.3 0.6 0.5 1.4 0.7 0.8 0.3 1.6 0.2 0.8-0.1 1.5-0.5 1.7-1 3.6-1.9 1.8-0.8 3.7-1.4 2-0.7 4-1 2-0.4 4-0.6c12.3-0.8 27.7 8.8 37.2 16.8 8.2 6.8 11.1 11.6 22 18.6 6.1 3.9 10.6 5.8 15.8 5.4q1.1-0.1 2.2-0.3 1.1-0.3 2.1-0.6 1.1-0.4 2.1-0.8 1-0.5 1.9-1 0-0.2 0-0.3 0-0.1 0-0.2 0-0.1-0.1-0.2 0-0.1 0-0.3c0.1-1.2 0.6-2.4 1.5-3.3 0.9-0.8 2.2-1.3 3.4-1.3 1.4 0 2.6 0.5 3.5 1.3 0.9 0.9 1.4 2.1 1.5 3.3z"/><path fill-rule="evenodd" class="d" d="m298.9 183.9q1.3 0.1 2.5 0.3 1.3 0.2 2.6 0.4 1.2 0.2 2.5 0.5v3.2l-7.4 0.2h-0.4l-7 0.1-8.9 0.1c3.1 1.4 9.4 4.1 15.1 5-1.6 5.3-5 9.9-9.6 12.9-4.6 3-10.1 4.3-15.7 3.7-5.4-0.6-10.5-3.2-14.3-7.1-3.8-4-6.1-9.2-6.5-14.7l-4.7-0.2v-3.2c3.3-0.7 6.7-1.2 10.1-1.5l17.6-61.5q0.7-0.6 1.3-1.1 0.1 0 0.1 0 0.1 0 0.2 0 0.1 0 0.2 0 0 0 0.1 0 0.3 0 0.5 0 0.2 0 0.4-0.1 0.2 0 0.4 0 0.2-0.1 0.4-0.1l18 62.8q1.2 0.1 2.5 0.3zm-8-0.8l-14.2-49.1-14 49.1q3.3-0.1 6.6-0.3l7.4-0.1c2.6 0 5.1 0 7.6 0.1q3.3 0.2 6.6 0.3z"/><path class="e" d="m142.2 228.3v15.9l-74.6-107.8 8.7-3.3z"/><path class="e" d="m60.5 110.7q-1.1 0.5-2.2 1-1.2 0.4-2.4 0.7-1.1 0.2-2.4 0.4-1.2 0.1-2.4 0.1l-10.4-15.1 9-2.7z"/><path class="e" d="m258.4 110.7q1.1 0.5 2.2 1 1.2 0.4 2.4 0.7 1.1 0.2 2.4 0.4 1.2 0.1 2.4 0.1l10.5-15.1-9.1-2.7z"/><path class="e" d="m176.3 240.6v4.1l66.6-96.2 0.1-15.9-66.1 95.4v0.3c-0.4 4.2-0.6 8.4-0.6 12.3z"/><path class="e" d="m142.3 261.4c0 0-1.5 5.9-4.4 9q-0.5 0.7-1.1 1.2-0.6 0.6-1.2 1.1-0.6 0.5-1.3 0.9-0.6 0.5-1.3 0.9-0.7 0.5-1.5 0.9-0.8 0.5-1.6 0.9-0.8 0.3-1.6 0.6-0.8 0.4-1.6 0.6l-3-4.4-2.5-3.7-38.6-55.5-1.8-16.9 14.6 17.9-15.6-27.3-2.2-19.7z"/><path class="e" d="m176.7 261.4c0 0 1.5 5.9 4.3 9q0.6 0.7 1.2 1.2 0.5 0.6 1.2 1.1 0.6 0.5 1.2 0.9 0.6 0.5 1.3 0.9 0.7 0.5 1.5 0.9 0.8 0.5 1.6 0.9 0.7 0.3 1.6 0.6 0.8 0.4 1.6 0.6c1-1.4 2-2.9 2.9-4.4l2.6-3.7q19.4-27.7 38.7-55.5l1.8-16.9-14.6 17.9 15.6-27.3 2.2-19.7z"/><path class="e" d="m69.2 294.1v7.2h-36.2v-79.9l7.2 9.2 5 59.1z"/><path class="e" d="m249.7 294.1v7.2h36.3v-79.9l-7.3 9.2-5 59.1z"/><path class="e" d="m117.5 64v-4.6h-84.5v24.7l7.2-4.3 5-8.8z"/><path class="e" d="m201.4 64v-4.6h84.6v24.7l-7.3-4.3-5-8.8z"/><path  d="m357.5 170.8l-1.5 4.3h-15.5v-3.8l3.9-4.4v-26.7l-10.1 34.9h-4.1l-10.4-35.4v28.5l4.8 2.6-1.6 4.3h-11.2v-3.8l4-4.4v-31.2l-4.7-2.7 1.5-4.2h12.6l9.4 31.4 9.1-31.4h13.1v3.7l-4 4.3v32.3zm29.1-0.1l-1.5 4.3h-10v-5.1l-4.7 5.2q-0.9 0.5-2.1 0.5-4.2 0-6.1-2.8-1.8-2.9-1.8-6.9 0-2.3 1-4.5 1-2.3 2.9-4.2h10.8v-0.2q0-3.1-1.2-4.5-1.2-1.6-3.2-1.6-2.9 0-8.1 2.9l-1.2-3.7 5.8-6.5q2.2-1 5.2-1 5 0 7.7 3.1 2.8 3.1 2.8 9.1v13.8zm-16-3.9q1.9 0 4.4-2.2v-3h-6.6q-0.4 1-0.4 2.3 0 1.3 0.6 2.1 0.7 0.8 2 0.8zm28.7-18.8v21.1l3.7 1.7-1.5 4.3h-13.8v-3.8l3.8-4.4v-12.6l-6.1 7.5v-5.2l6.1-7.8v-12.9l-3.8-3.5v-3.8l8.6-4.9h3v18.6l5.6-7.4v5.8zm31.2 1.5h-4.2q0.6 1.7 0.6 3.6 0 3.5-2.2 6.8-2.1 3.3-5.3 5-1.1 1.9-1.1 3.6 0 0.8 0.8 1.6 1 0.8 2.9 1.9 2.8 1.9 4.3 3.4 1.6 1.5 1.6 3.5 0 1.9-1.7 4.7-1.7 2.9-4.2 5-2.6 2-5 2-2.6 0-6.2-1.1-3.6-1.1-6-2.2v-11h2.9q2 3.9 4 5.9 2 1.9 4.6 1.9 1.3 0 2.2-0.6 0.9-0.8 0.9-1.6 0-1.3-1.1-2.3-1.1-1-3.3-2.4-2.4-1.5-3.6-2.7-1.2-1.2-1.2-2.9 0-1.4 1.6-2.8 1.6-1.5 3.8-2.6-0.4 0-1.1 0-2.6 0-4.8-1.4-2.3-1.5-3.6-3.8-1.2-2.4-1.2-5.1 0-3.4 1.8-6.4 1.9-3.1 4.8-5 2.9-1.9 5.8-1.9 3.5 0 6.1 2.4h7.1zm-18.1 3.6q0 2.6 1.2 4.3 1.3 1.6 3.3 1.6 2.5 0 2.5-3.1 0-2.6-1.3-4.2-1.2-1.6-3.2-1.6-2.5 0-2.5 3zm34-10.4q3.2 0 5.8 2 2.5 2 3.9 5.6 1.4 3.5 1.4 7.8 0 4.7-2.2 8.7-2.2 4.1-5.5 6.5-3.3 2.4-6.3 2.4-3.2 0-5.7-2-2.5-2.1-4-5.6-1.3-3.5-1.3-7.9 0-4.7 2.1-8.7 2.2-4.1 5.5-6.4 3.3-2.4 6.3-2.4zm-2.4 7.3q-1.5 0-2.3 1.9-0.8 1.8-0.8 5.5 0 4.7 1.3 7.9 1.3 3 3.7 3 1.6 0 2.4-1.9 0.8-1.8 0.8-5.5 0-4.8-1.4-7.8-1.3-3.1-3.7-3.1zm31.6 1.7q-1.4 0-2.7 1.4v15.3l6.6 2.3-1.6 4.3h-16.5v-3.7l3.7-4.5v-12.4l-3.7-3.3v-3.8l9.2-5.2 1.6 6.4 3.7-5.4q0.9-0.4 2-0.4 2.5 0 4.2 1.5 1.7 1.5 2.4 4.1l-4.4 7.7h-3q0-2.3-0.4-3.3-0.4-1-1.1-1zm21.2 12.5h7.7l1.7-5.3 2.7 1.1v16.1l-3.7-1h-18.3v-4.2l12.4-16.8h-7.8l-1.6 4.7-2.6-1v-15.6l3.6 1.1h18.3v4.1zm43.1 6.6l-1.5 4.3h-10v-5.1l-4.8 5.2q-0.8 0.5-2.1 0.5-4.1 0-6-2.8-1.8-2.9-1.8-6.9 0-2.3 1-4.5 1-2.3 2.8-4.1h10.9v-0.3q0-3-1.2-4.5-1.2-1.5-3.2-1.5-2.9 0-8.1 2.8l-1.3-3.7 5.8-6.5q2.3-1 5.3-1 4.9 0 7.7 3.1 2.7 3.2 2.7 9.1v13.9zm-16-4q2 0 4.5-2.2v-3h-6.6q-0.5 1.1-0.5 2.3 0 1.3 0.7 2.2 0.7 0.7 1.9 0.7zm37.1 3.7l-4.2 4.7q-1.6 0.4-3.7 0.4-4.2 0-6.2-2.5-1.9-2.6-1.9-7.9v-15.8h-4.5v-3.4l9.3-14h3v13h7.5v4.4h-7.5v15.1q0 3.7 3.2 3.7 0.9 0 1.7-0.3 0.9-0.2 2.1-1.1zm28.5 0.3l-1.5 4.3h-10v-5.1l-4.8 5.2q-0.8 0.5-2.1 0.5-4.1 0-6-2.8-1.8-2.9-1.8-6.9 0-2.3 1-4.5 1-2.3 2.8-4.1h10.9v-0.3q0-3-1.2-4.5-1.2-1.5-3.2-1.5-2.9 0-8.1 2.8l-1.3-3.7 5.8-6.5q2.3-1 5.3-1 4.9 0 7.7 3.1 2.8 3.1 2.8 9.1v13.9zm-16.1-4q2 0 4.5-2.2v-3h-6.6q-0.5 1.1-0.5 2.3 0 1.3 0.7 2.2 0.7 0.7 1.9 0.7zm-252.2 61.2h11.3l5.7-12.6 2.7 1.5v17.2l-3.3-1h-26.2v-5.1l20-36.1h-11l-5.1 11.5-2.6-1.6v-16l3.2 1h25.4v5.1zm49.9 0.8l-1.5 4.3h-10.1v-5.2l-4.7 5.3q-0.9 0.4-2.1 0.4-4.2 0-6-2.8-1.9-2.9-1.9-6.9 0-2.3 1-4.5 1-2.2 2.9-4.1h10.8v-0.2q0-3.1-1.2-4.6-1.2-1.5-3.1-1.5-2.9 0-8.2 2.8l-1.2-3.6 5.8-6.5q2.2-1 5.2-1 5 0 7.7 3.1 2.8 3.1 2.8 9v13.9zm-16-3.9q2 0 4.4-2.3v-3h-6.6q-0.4 1.1-0.4 2.3 0 1.4 0.7 2.2 0.7 0.8 1.9 0.8zm28.7 2.2l3.8 1.7-1.6 4.3h-13.7v-3.8l3.7-4.4v-31l-3.7-3.4v-3.8l8.5-4.9h3zm18.7 1.7l-1.5 4.3h-9.2l-6.5-15.9 7.2-7.8-5.4-3.9 1.5-4.2h12.8v3.7l-8.4 9.4 5.3 12.1zm16-19.1q-1.3 0-2.6 1.4v15.3l6.6 2.3-1.6 4.3h-16.5v-3.8l3.7-4.4v-12.4l-3.7-3.3v-3.8l9.2-5.2 1.6 6.4 3.7-5.4q0.9-0.4 2-0.4 2.5 0 4.2 1.5 1.7 1.5 2.4 4.1l-4.4 7.7h-3q0-2.3-0.4-3.3-0.4-1-1.2-1zm21.3 12.5h7.7l1.7-5.3 2.7 1.1v16.1l-3.7-1h-18.3v-4.2l12.4-16.8h-7.8l-1.6 4.7-2.6-1v-15.6l3.6 1.1h18.3v4.1zm31.3-21.5q4.5 0 7 4.8 2.5 4.8 2.4 13.5h-15q0.5 3.1 1.8 5 1.2 1.8 3.2 1.8 3 0 8.7-3.6l1.3 3.7-6.1 6.8q-2.6 1-6.3 1-3.2 0-5.7-2-2.5-2.1-3.9-5.6-1.4-3.5-1.4-7.9 0-4.7 2.2-8.7 2.2-4 5.4-6.4 3.3-2.4 6.4-2.4zm-2.3 7.4q-1.7 0-2.6 1.6-0.8 1.6-0.9 4.9h7.5q-0.3-3.3-1.2-4.9-0.9-1.6-2.8-1.6zm53.9-6.9v3.8l-10 28.1h-5.9l-3.5-12-4.6 12h-5.9l-6.1-20.9-4.2-3.4v-3.7l9.9-5 1.6 8.9 4.5 15 3.2-8.6-1-3.2-4.2-3.4v-3.7l9.9-5 1.6 8.9 4.4 14.8 4.2-12.4-6.4-5.8 1.5-4.3zm14.4 24.1q0-1-1-2-0.9-1.1-3.2-2.9-2.2-1.7-3.6-3-1.4-1.3-2.4-3-0.9-1.6-0.9-3.5 0-2.1 1.4-4.5 1.6-2.4 3.7-4.1 2.2-1.6 4.1-1.6 2.2 0 5.1 0.7 3 0.6 4.4 1.4v10h-3q-1-2.7-2.6-4.2-1.5-1.5-3.1-1.5-0.7 0-1.1 0.6-0.4 0.5-0.4 1.4 0 1.1 1 2.2 1.1 1 3.4 2.9 2.1 1.7 3.5 3 1.3 1.2 2.3 2.8 1 1.6 1 3.4 0 2.2-1.6 4.6-1.5 2.4-3.8 4-2.2 1.7-4.1 1.7-2.4 0-5.7-0.7-3.2-0.7-4.6-1.5v-10.5h3q1.2 3 3 4.6 1.8 1.6 3.5 1.6 0.8 0 1.2-0.5 0.5-0.6 0.5-1.4zm22.4 1.8l3.8 1.7-1.5 4.3h-13.8v-3.8l3.7-4.5v-30.9l-3.7-3.5v-3.7l8.5-5h3zm18.7 1.7l-1.5 4.3h-9.1l-6.6-15.8 7.2-7.9-5.4-3.8 1.5-4.3h12.8v3.8l-8.4 9.4 5.3 12zm28.4 0l-1.5 4.3h-10.1v-5.1l-4.7 5.3q-0.9 0.4-2.1 0.4-4.2 0-6-2.8-1.9-2.9-1.9-6.9 0-2.3 1-4.5 1-2.2 2.9-4.1h10.8v-0.3q0-3-1.2-4.5-1.2-1.5-3.1-1.5-2.9 0-8.2 2.8l-1.2-3.6 5.8-6.6q2.2-1 5.2-1 5 0 7.7 3.2 2.8 3.1 2.8 9v13.9zm-16-3.9q2 0 4.4-2.3v-3h-6.6q-0.4 1.1-0.4 2.3 0 1.4 0.7 2.2 0.7 0.8 1.9 0.8zm18.7-6.9v-3.7l1.7-3h15.2v3.7l-1.7 3zm53.2-32.2v16.6l-2.6 1.6-6-12.1h-3.5v35.2l4.7 1.7-1.5 4.3h-15.5v-3.8l4-4.3v-33.1h-3.5l-5.9 12.1-2.6-1.6v-16.6l3.2 1.1h26zm14.9 23.9q-1.4 0-2.7 1.4v15.3l6.6 2.3-1.5 4.3h-16.6v-3.8l3.8-4.4v-12.4l-3.8-3.3v-3.8l9.3-5.2 1.6 6.4 3.6-5.4q0.9-0.5 2-0.5 2.5 0 4.2 1.6 1.7 1.4 2.4 4.1l-4.4 7.7h-3q0-2.4-0.4-3.3-0.3-1-1.1-1zm38.7 19l-1.6 4.3h-10v-4.7l-4.3 4.9q-1.2 0.5-2.7 0.5-3.3 0-5.3-2.4-1.9-2.5-1.9-6.7v-12.1l-3.8-3v-3.7l8.6-5.2h2.9v19.2q0 2.6 0.6 3.7 0.6 1.1 2 1.1 1.9 0 3.9-1.6v-10.5l-3.7-3v-3.7l8.5-5.2h3v26.4zm13.9-3.4q0-1-1-2-1-1.1-3.2-2.9-2.2-1.8-3.6-3.1-1.4-1.3-2.4-2.9-1-1.7-1-3.5 0-2.1 1.5-4.6 1.5-2.4 3.7-4 2.2-1.7 4-1.7 2.3 0 5.2 0.7 3 0.7 4.3 1.5v10h-2.9q-1.1-2.7-2.6-4.2-1.5-1.6-3.1-1.6-0.7 0-1.2 0.6-0.3 0.6-0.3 1.4 0 1.2 1 2.2 1 1.1 3.4 3 2.1 1.7 3.5 3 1.3 1.2 2.3 2.8 0.9 1.6 0.9 3.4 0 2.2-1.5 4.6-1.6 2.3-3.8 4-2.3 1.6-4.1 1.6-2.4 0-5.7-0.6-3.2-0.7-4.6-1.6v-10.4h2.9q1.3 2.9 3 4.6 1.8 1.6 3.6 1.6 0.7 0 1.2-0.5 0.5-0.6 0.5-1.4zm27 3.4l-1.5 4.3h-13.8v-3.7l3.7-4.5v-12.5l-3.7-3.5v-3.7l8.5-5h3v26.9zm-7.7-46.4q2 0 3.2 1.8 1.3 1.7 1.3 4.2 0 1.9-1 3.5-0.8 1.5-2.2 2.4-1.4 1-2.6 1-2 0-3.3-1.7-1.2-1.8-1.2-4.3 0-1.9 0.9-3.4 0.9-1.6 2.3-2.5 1.4-1 2.6-1zm20.4 23.7v21.1l3.8 1.7-1.5 4.3h-13.8v-3.8l3.8-4.4v-12.6l-6.1 7.5v-5.2l6.1-7.8v-12.9l-3.8-3.5v-3.8l8.5-4.9h3v18.6l5.7-7.4v5.8zm20.4-5.4q3.2 0 5.7 2.1 2.5 2 3.9 5.6 1.5 3.5 1.5 7.8 0 4.7-2.2 8.7-2.2 4.1-5.5 6.5-3.3 2.3-6.4 2.3-3.1 0-5.6-2-2.6-2-4-5.6-1.4-3.5-1.4-7.8 0-4.7 2.2-8.7 2.2-4.1 5.5-6.4 3.2-2.5 6.3-2.5zm-2.4 7.4q-1.5 0-2.4 1.9-0.8 1.8-0.8 5.4 0 4.8 1.3 7.9 1.4 3.1 3.8 3.1 1.5 0 2.3-1.9 0.9-1.9 0.9-5.5 0-4.8-1.4-7.9-1.3-3-3.7-3z"/><path class="e" d="m780 451q-0.7 0-1.3-0.1-0.7-0.1-1.3-0.3-0.6-0.2-1.2-0.5-0.6-0.3-1.1-0.7-0.5-0.5-1-1-0.4-0.6-0.6-1.2-0.3-0.6-0.4-1.3-0.1-0.7-0.1-1.4 0-0.9 0.2-1.8 0.3-0.9 0.8-1.7 0.5-0.8 1.3-1.4 0.7-0.6 1.6-0.9 3.8-1.8 11.6-1.8v1.5q-0.7 0-1.4 0-0.7 0-1.4 0.1-0.7 0-1.4 0.1-0.7 0.1-1.3 0.2-0.5 0.1-1 0.2-0.4 0.2-0.8 0.4-0.5 0.2-0.9 0.4-0.3 0.3-0.7 0.6-0.3 0.3-0.5 0.7-0.2 0.4-0.4 0.8-0.1 0.5-0.2 0.9-0.1 0.4 0 0.9-0.1 0.5 0 1 0 0.5 0.1 1 0.2 0.5 0.4 0.9 0.2 0.5 0.5 0.9 0.2 0.3 0.5 0.5 0.3 0.3 0.7 0.4 0.3 0.2 0.7 0.2 0.4 0.1 0.7 0.1 0.5 0 1-0.1 0.4-0.1 0.9-0.3 0.4-0.2 0.8-0.4 0.4-0.3 0.7-0.6 0.5-0.4 0.9-0.9 0.3-0.5 0.6-1 0.3-0.5 0.5-1.1 0.2-0.5 0.3-1.1v-9.8q0.1-0.6 0-1.2 0-0.5-0.2-1.1-0.1-0.5-0.4-1.1-0.2-0.5-0.5-1-0.3-0.3-0.7-0.6-0.4-0.3-0.9-0.5-0.4-0.1-0.9-0.2-0.5-0.1-0.9-0.1-0.3 0-0.6 0-0.3 0.1-0.6 0.1-0.3 0.1-0.6 0.2-0.3 0.2-0.5 0.3-0.2 0.2-0.3 0.3-0.2 0.2-0.3 0.4-0.2 0.1-0.3 0.3-0.1 0.2-0.2 0.5 0 0.2-0.1 0.4-0.1 0.2-0.2 0.4 0 0.2-0.1 0.4 0 0.2-0.1 0.5-0.1 0.2-0.1 0.4-0.1 0.2-0.2 0.3-0.1 0.2-0.2 0.4-0.1 0.2-0.3 0.3-0.1 0.2-0.3 0.3-0.2 0.1-0.4 0.2-0.3 0.1-0.5 0.1-0.2 0.1-0.4 0-0.3 0.1-0.5 0-0.3 0-0.5-0.1-0.3-0.1-0.5-0.2-0.2-0.2-0.4-0.4-0.2-0.1-0.3-0.3-0.1-0.2-0.2-0.4-0.1-0.2-0.1-0.5-0.1-0.2-0.1-0.4 0-1.9 2.3-3.4 2.4-1.5 7-1.5 0.7 0 1.3 0 0.7 0.1 1.3 0.2 0.6 0.1 1.2 0.3 0.7 0.2 1.2 0.4 0.5 0.2 1 0.5 0.5 0.3 0.9 0.7 0.4 0.3 0.7 0.7 0.4 0.4 0.6 0.9 0.3 0.6 0.6 1.1 0.2 0.6 0.3 1.3 0.2 0.6 0.2 1.2 0.1 0.6 0.1 1.3v11.5q0 2.9 1.4 2.9 0.2-0.1 0.4-0.1 0.2-0.1 0.4-0.2 0.2-0.2 0.3-0.4 0.1-0.1 0.2-0.3 0.2-0.4 0.3-0.8 0.1-0.3 0.2-0.7 0.1-0.4 0.1-0.8 0.2-0.4 0.2-0.7h1.4q0 0.4 0 0.8 0 0.4-0.1 0.8-0.1 0.4-0.2 0.8-0.1 0.3-0.2 0.7-0.1 0.3-0.3 0.6-0.1 0.3-0.3 0.5-0.2 0.3-0.6 0.5-0.2 0.2-0.5 0.4-0.3 0.2-0.7 0.3-0.3 0.2-0.7 0.3-0.4 0-0.7 0.1-0.4 0-0.8 0-0.5 0-1-0.1-0.5 0-1-0.2-0.4-0.2-0.8-0.5-0.5-0.4-0.8-0.8-0.3-0.4-0.5-0.9-0.3-0.5-0.4-1-0.2-0.5-0.3-1-0.1-0.5-0.2-1.1h0.3q-0.1 0.5-0.3 0.9-0.1 0.4-0.3 0.7-0.2 0.4-0.5 0.7-0.3 0.4-0.6 0.7-0.3 0.3-0.7 0.6-0.3 0.3-0.7 0.5-0.4 0.3-0.8 0.5-0.4 0.2-0.8 0.4-0.4 0.1-0.8 0.2-0.5 0.2-0.9 0.2-0.5 0.1-0.9 0.2-0.5 0-0.9 0z"/></svg>