<svg version="1.2" xmlns="http://www.w3.org/2000/svg" viewBox="0 0 811 361" width="811" height="361"><defs><linearGradient id="P" gradientUnits="userSpaceOnUse"/><linearGradient id="g1" x2="1" href="#P" gradientTransform="matrix(NaN,NaN,NaN,NaN,NaN,NaN)"><stop stop-color="#b27c2d"/><stop offset=".5" stop-color="#f5c665"/><stop offset=".62" stop-color="#f1c060"/><stop offset=".79" stop-color="#e5af50"/><stop offset=".98" stop-color="#d19338"/><stop offset="1" stop-color="#ce8f34"/></linearGradient><linearGradient id="g2" x2="1" href="#P" gradientTransform="matrix(0,-89.598,59.388,0,42.11,210.343)"><stop stop-color="#b27c2d"/><stop offset=".5" stop-color="#f5c665"/><stop offset=".62" stop-color="#f1c060"/><stop offset=".79" stop-color="#e5af50"/><stop offset=".98" stop-color="#d19338"/><stop offset="1" stop-color="#ce8f34"/></linearGradient><linearGradient id="g3" x2="1" href="#P" gradientTransform="matrix(0,-241.96,244.163,0,159.515,301.365)"><stop stop-color="#b27c2d"/><stop offset=".5" stop-color="#f5c665"/><stop offset=".62" stop-color="#f1c060"/><stop offset=".79" stop-color="#e5af50"/><stop offset=".98" stop-color="#d19338"/><stop offset="1" stop-color="#ce8f34"/></linearGradient><linearGradient id="g4" x2="1" href="#P" gradientTransform="matrix(0,-89.558,59.362,0,276.79,210.343)"><stop stop-color="#b27c2d"/><stop offset=".5" stop-color="#f5c665"/><stop offset=".62" stop-color="#f1c060"/><stop offset=".79" stop-color="#e5af50"/><stop offset=".98" stop-color="#d19338"/><stop offset="1" stop-color="#ce8f34"/></linearGradient></defs><style>.a{fill:url(#g1)}.b{fill:url(#g2)}.c{fill:url(#g3)}.d{fill:url(#g4)}.e{fill:#231f20}</style><path class="a" d=""/><path fill-rule="evenodd" class="b" d="m64.3 183.9q1.2 0.1 2.5 0.3 1.3 0.2 2.5 0.4 1.3 0.2 2.5 0.4v3.2l-7.4 0.2h-0.3l-7.2 0.1-8.8 0.1c3.1 1.4 9.3 4.1 15.1 5-1.6 5.4-5 9.9-9.6 12.9-4.6 3-10.1 4.3-15.6 3.7-5.5-0.6-10.5-3.1-14.3-7.1-3.9-4-6.2-9.2-6.6-14.7l-4.7-0.1v-3.3c3.4-0.7 6.8-1.1 10.2-1.5l18-62.8q0.1 0 0.3 0.1 0.3 0.1 0.5 0.1 0.2 0 0.4 0.1 0.2 0 0.4 0 0.1 0 0.1 0 0.1 0 0.2 0 0 0 0.1 0 0.1 0 0.2 0 0.5 0.5 1.2 1.1l17.6 61.5q1.3 0.1 2.7 0.3zm-8.2-0.8l-14-49.1-14 49.1q3.3-0.1 6.6-0.3l7.4-0.1q3.7 0 7.4 0.1 3.3 0.2 6.6 0.3z"/><path class="c" d="m281.7 116.1q0 0.8-0.2 1.5-0.3 0.8-0.7 1.4-0.4 0.6-1.1 1.1-0.6 0.4-1.3 0.6-0.2 0.1-0.4 0.2-0.2 0-0.4 0-0.2 0.1-0.4 0.1-0.2 0-0.4 0-0.1 0-0.2 0-0.1 0-0.2 0-0.1 0-0.1 0-0.1 0-0.2 0-0.6 0.6-1.3 1.1-1.1 0.9-2.3 1.7-1.1 0.8-2.4 1.5-1.3 0.6-2.6 1.2-1.3 0.6-2.7 0.9c-10.5 2.8-20-2.2-25.7-4.8-1.8-0.8-6.2-3.6-14.9-9.2l-9.2-5.8q-1-0.8-2.1-1.5-1.2-0.7-2.3-1.3-1.1-0.6-2.3-1.2-1.2-0.5-2.4-1-1.3-0.5-2.5-0.8-1.3-0.4-2.5-0.6-1.3-0.3-2.6-0.4-1.2-0.2-2.5-0.3-1.7-0.1-3.3-0.1-1.7 0.1-3.3 0.4-1.7 0.3-3.3 0.8-1.6 0.5-3.1 1.2c-9.9 4.8-14 16.2-15.5 26.4q-0.3 2.4-0.4 4.7-0.1 2.4-0.1 4.7 0 2.4 0.1 4.7 0.1 2.3 0.4 4.7 0.3 2.4 0.6 4.8 0.3 2.4 0.8 4.8 0.4 2.4 0.9 4.8 0.6 2.5 1.2 4.8 0.6 2.3 1 4.6 0.4 2.4 0.5 4.7 0.2 2.4 0.1 4.7-0.1 2.4-0.4 4.7l-2 14.6q-1 4.1-1.7 8.3-0.8 4.2-1.3 8.4-0.5 4.3-0.7 8.5-0.3 4.3-0.3 8.5v23.6c0 4.1 0.8 8.2 2.4 12 1.5 3.8 3.8 7.3 6.7 10.2 2.9 2.9 6.4 5.2 10.1 6.7 3.8 1.6 7.9 2.4 12 2.4h16.3c10.3 0 15.2 6.9 15.2 12.3h-138.5c0-5.4 4.9-12.3 15.3-12.3h16.1c4.1 0 8.2-0.8 12-2.4 3.8-1.5 7.3-3.8 10.2-6.7 2.9-2.9 5.2-6.4 6.7-10.2 1.6-3.8 2.4-7.9 2.4-12v-23.6q0-4.3-0.2-8.5-0.3-4.3-0.8-8.5-0.5-4.2-1.2-8.4-0.8-4.2-1.8-8.4l-2-14.6q-0.3-2.3-0.4-4.7-0.1-2.3 0.1-4.7 0.1-2.3 0.5-4.6 0.4-2.3 1-4.6 0.7-2.4 1.2-4.8 0.5-2.4 1-4.8 0.4-2.4 0.7-4.8 0.4-2.5 0.6-4.9 0.3-2.3 0.4-4.7 0.2-2.3 0.2-4.7 0-2.3-0.1-4.6-0.2-2.4-0.4-4.7c-1.5-10.3-5.7-21.7-15.5-26.5q-1.7-0.7-3.3-1.2-1.5-0.5-3.2-0.8-1.6-0.2-3.3-0.3-1.7-0.1-3.3 0-1.3 0.1-2.6 0.3-1.2 0.2-2.5 0.4-1.2 0.3-2.5 0.6-1.2 0.4-2.4 0.8-1.2 0.5-2.4 1.1-1.1 0.5-2.3 1.2-1.1 0.6-2.2 1.3-1.2 0.7-2.2 1.4l-9.2 5.9c-8.7 5.5-13.1 8.3-14.9 9.1q-1 0.5-2.1 1-1 0.5-2.1 1-1.1 0.4-2.2 0.8-1 0.5-2.1 0.9-1.2 0.5-2.4 0.8-1.2 0.3-2.4 0.6-1.2 0.2-2.4 0.4-1.3 0.1-2.5 0.2-1 0-1.9 0-1 0-1.9-0.1-1-0.1-1.9-0.3-1-0.2-1.9-0.4-1.4-0.4-2.7-0.9-1.3-0.6-2.6-1.3-1.3-0.6-2.5-1.4-1.2-0.8-2.3-1.7-0.6-0.6-1.2-1.1-0.1 0-0.2 0 0 0-0.1 0-0.1 0-0.1 0-0.1 0-0.2 0-0.2 0-0.4 0-0.2 0-0.4-0.1-0.2 0-0.4-0.1-0.2 0-0.4-0.1c-1.7-0.6-2.9-2.1-3.2-3.9-0.2-1.8 0.6-3.6 2.1-4.7 1.4-1 3.4-1.1 5-0.3 1.6 0.9 2.6 2.5 2.6 4.3q0 0.2 0 0.3 0 0.1 0 0.2 0 0.2-0.1 0.3 0 0.1 0 0.2 0.9 0.6 1.9 1.1 1 0.4 2 0.7 1.1 0.4 2.2 0.6 1 0.2 2.1 0.3l0.8 0.1q1.2 0 2.4-0.1 1.2-0.1 2.4-0.4 1.2-0.3 2.4-0.7 1.2-0.5 2.3-1 0.7-0.4 1.4-0.8 0.8-0.4 1.5-0.8 0.7-0.4 1.4-0.8 0.7-0.4 1.4-0.9c10.9-7 13.8-11.8 22-18.5 9.5-8.1 24.7-17.7 37-16.9q2 0.2 4 0.6 2.1 0.3 4 1 2 0.6 3.8 1.4 1.8 0.9 3.6 1.9 0.7 0.4 1.5 0.5 0.8 0.1 1.6-0.1 0.8-0.3 1.4-0.8 0.6-0.6 1-1.3c2.8-5.8 5.6-17 8.4-22.8 2.8 5.8 5.6 17 8.4 22.8q0.3 0.7 0.9 1.3 0.6 0.5 1.4 0.7 0.8 0.3 1.6 0.2 0.8-0.1 1.5-0.5 1.7-1 3.6-1.9 1.8-0.8 3.7-1.4 2-0.7 4-1 2-0.4 4-0.6c12.3-0.8 27.7 8.8 37.2 16.8 8.2 6.8 11.1 11.6 22 18.6 6.1 3.9 10.6 5.8 15.8 5.4q1.1-0.1 2.2-0.3 1.1-0.3 2.1-0.6 1.1-0.4 2.1-0.8 1-0.5 1.9-1 0-0.2 0-0.3 0-0.1 0-0.2 0-0.1-0.1-0.2 0-0.1 0-0.3c0.1-1.2 0.6-2.4 1.5-3.3 0.9-0.8 2.2-1.3 3.4-1.3 1.4 0 2.6 0.5 3.5 1.3 0.9 0.9 1.4 2.1 1.5 3.3z"/><path fill-rule="evenodd" class="d" d="m298.9 183.9q1.3 0.1 2.5 0.3 1.3 0.2 2.6 0.4 1.2 0.2 2.5 0.5v3.2l-7.4 0.2h-0.4l-7 0.1-8.9 0.1c3.1 1.4 9.4 4.1 15.1 5-1.6 5.3-5 9.9-9.6 12.9-4.6 3-10.1 4.3-15.7 3.7-5.4-0.6-10.5-3.2-14.3-7.1-3.8-4-6.1-9.2-6.5-14.7l-4.7-0.2v-3.2c3.3-0.7 6.7-1.2 10.1-1.5l17.6-61.5q0.7-0.6 1.3-1.1 0.1 0 0.1 0 0.1 0 0.2 0 0.1 0 0.2 0 0 0 0.1 0 0.3 0 0.5 0 0.2 0 0.4-0.1 0.2 0 0.4 0 0.2-0.1 0.4-0.1l18 62.8q1.2 0.1 2.5 0.3zm-8-0.8l-14.2-49.1-14 49.1q3.3-0.1 6.6-0.3l7.4-0.1c2.6 0 5.1 0 7.6 0.1q3.3 0.2 6.6 0.3z"/><path class="e" d="m142.2 228.3v15.9l-74.6-107.8 8.7-3.3z"/><path class="e" d="m60.5 110.7q-1.1 0.5-2.2 1-1.2 0.4-2.4 0.7-1.1 0.2-2.4 0.4-1.2 0.1-2.4 0.1l-10.4-15.1 9-2.7z"/><path class="e" d="m258.4 110.7q1.1 0.5 2.2 1 1.2 0.4 2.4 0.7 1.1 0.2 2.4 0.4 1.2 0.1 2.4 0.1l10.5-15.1-9.1-2.7z"/><path class="e" d="m176.3 240.6v4.1l66.6-96.2 0.1-15.9-66.1 95.4v0.3c-0.4 4.2-0.6 8.4-0.6 12.3z"/><path class="e" d="m142.3 261.4c0 0-1.5 5.9-4.4 9q-0.5 0.7-1.1 1.2-0.6 0.6-1.2 1.1-0.6 0.5-1.3 0.9-0.6 0.5-1.3 0.9-0.7 0.5-1.5 0.9-0.8 0.5-1.6 0.9-0.8 0.3-1.6 0.6-0.8 0.4-1.6 0.6l-3-4.4-2.5-3.7-38.6-55.5-1.8-16.9 14.6 17.9-15.6-27.3-2.2-19.7z"/><path class="e" d="m176.7 261.4c0 0 1.5 5.9 4.3 9q0.6 0.7 1.2 1.2 0.5 0.6 1.2 1.1 0.6 0.5 1.2 0.9 0.6 0.5 1.3 0.9 0.7 0.5 1.5 0.9 0.8 0.5 1.6 0.9 0.7 0.3 1.6 0.6 0.8 0.4 1.6 0.6c1-1.4 2-2.9 2.9-4.4l2.6-3.7q19.4-27.7 38.7-55.5l1.8-16.9-14.6 17.9 15.6-27.3 2.2-19.7z"/><path class="e" d="m69.2 294.1v7.2h-36.2v-79.9l7.2 9.2 5 59.1z"/><path class="e" d="m249.7 294.1v7.2h36.3v-79.9l-7.3 9.2-5 59.1z"/><path class="e" d="m117.5 64v-4.6h-84.5v24.7l7.2-4.3 5-8.8z"/><path class="e" d="m201.4 64v-4.6h84.6v24.7l-7.3-4.3-5-8.8z"/><path  d="m359.2 226.7l-0.9 2.4h-13.7v-1.9l4.2-4.3v-32.3l-12 38.5h-2.5l-11.9-38.9v33.4l4.7 3.1-0.9 2.4h-10.5v-1.9l4.2-4.3v-34.3l-4.6-3.2 0.8-2.4h9.8l11.3 36.8 11.2-36.8h10.3v1.8l-4.3 4.4v35.4zm29.1-0.1l-0.9 2.3h-8.5v-5.1l-5.1 5.3q-0.9 0.4-2.3 0.4-3.8 0-5.6-2.5-1.7-2.5-1.7-6 0-2.1 1.2-4.2 1.1-2 3.3-3.8h10.2v-3.8q0-3.8-1.6-5.4-1.5-1.5-4.2-1.5-2.8 0-6.9 4.3l-1.3-2.2 6.4-6.6q1.8-0.5 4.4-0.5 4.1 0 6.3 2.6 2.3 2.6 2.3 7.6v17zm-15.4-2q2.8 0 5.9-3.3v-5.9h-8q-0.5 1-0.8 1.9-0.2 0.9-0.2 2 0 2.2 0.8 3.8 0.9 1.5 2.3 1.5zm27.5-23.1v23.2l4 2-0.9 2.3h-12.5v-1.8l4-4.1v-17.8l-6.5 8.7v-3.4l6.5-9v-14.5l-4-3.6v-1.8l7.7-3.8h1.7v19.7l6-8.5v3.9zm32.7 0.5h-5.3q1.3 2.3 1.3 5.2 0 2.6-1.2 5.1-1.1 2.5-3 4.4-1.9 1.8-4.1 2.8-1.2 1.5-1.2 3.3 0 1 1.1 1.9 1.3 0.8 3.6 2 3.2 1.6 4.9 3 1.8 1.4 1.8 3.3 0 1.8-1.8 4.5-1.7 2.8-4.3 4.8-2.5 2.1-4.9 2.1-2.5 0-6-1.1-3.4-1.1-5.7-2.2v-9.1h1.7q2.5 4.1 5.1 6.2 2.6 2.1 5.9 2.1 1.2 0 2.2-0.6 1-0.7 1.6-1.6 0.6-1 0.6-1.9 0-1.6-1.4-2.7-1.4-1.2-4.4-2.8-2.8-1.5-4.2-2.6-1.4-1.1-1.4-2.6 0-1.4 1.5-2.9 1.4-1.4 3.4-2.5-0.7 0.1-1.5 0.1-2.4 0-4.4-1.3-1.9-1.4-3.1-3.7-1.1-2.3-1.1-5 0-3.2 1.7-6.2 1.7-3 4.4-4.8 2.7-1.8 5.6-1.8 3.1 0 5.5 2.3h7.1zm-13.1 13.2q2 0 3-1.3 1.1-1.3 1.1-3.9 0-3.5-1.7-5.7-1.7-2.1-4.6-2.1-2 0-3 1.3-1.1 1.2-1.1 3.8 0 3.5 1.7 5.8 1.8 2.1 4.6 2.1zm30.2-17.8q2.9 0 5.3 2 2.4 2 3.7 5.5 1.3 3.4 1.3 7.6 0 4.5-2.1 8.5-2.1 3.9-5.3 6.3-3.2 2.3-6.1 2.3-3 0-5.4-2-2.3-2-3.7-5.5-1.3-3.4-1.3-7.6 0-4.5 2.1-8.4 2.2-4 5.3-6.3 3.2-2.4 6.2-2.4zm-2.6 4.9q-5.1 0-5.1 9.4 0 5.6 1.8 9.3 1.9 3.7 5.3 3.7 5.1 0 5.1-9.5 0-5.5-1.9-9.2-1.8-3.7-5.2-3.7zm34.8-4.9q1.5 0 2.6 1.1 1.1 1 1.8 2.9l-3 4.9h-1.7q-0.2-1.5-0.7-2.1-0.5-0.6-1.3-0.6-0.9 0-2.1 0.7-1.1 0.6-2.4 2.5v17.4l6.3 2.5-1 2.4h-14.8v-1.8l4.1-4.1v-16.6l-4.1-3v-1.8l7.7-5 1.4 7.2 4.7-6.2q1-0.4 2.5-0.4zm13.9 24.5h11.2l1.9-4.8 1.4 0.6v12.3l-2.5-1h-18.1v-2.3l15.1-21.8h-11.4l-1.8 4.2-1.3-0.6v-11.7l2.4 1.1h18.2v2.2zm45 4.7l-0.9 2.3h-8.6v-5l-5.1 5.2q-0.9 0.4-2.2 0.4-3.9 0-5.6-2.5-1.7-2.5-1.7-6 0-2.1 1.1-4.2 1.2-2 3.4-3.8h10.1v-3.8q0-3.8-1.6-5.4-1.5-1.5-4.2-1.5-2.8 0-6.8 4.4l-1.4-2.3 6.5-6.6q1.8-0.5 4.3-0.5 4.1 0 6.4 2.6 2.2 2.6 2.2 7.6v17.1zm-15.3-2.1q2.7 0 5.9-3.3v-5.9h-8q-0.6 1-0.8 1.9-0.3 0.9-0.3 2 0 2.2 0.9 3.8 0.8 1.5 2.3 1.5zm36.3-0.2l-4.6 4.7q-1 0.5-2.5 0.5-3.7 0-5.5-2.5-1.7-2.6-1.7-7.9v-17.1h-4.8v-2.4l8.5-12.9h1.7v12.9h8.1v2.4h-8.1v17.8q0 4.7 3.5 4.7 1 0 1.8-0.5 0.9-0.5 2.2-1.9zm27.5 2.2l-0.9 2.4h-8.5v-5.1l-5.1 5.2q-0.9 0.5-2.2 0.5-3.9 0-5.7-2.6-1.7-2.5-1.7-6 0-2.1 1.2-4.1 1.2-2.1 3.3-3.9h10.2v-3.7q0-3.8-1.6-5.4-1.5-1.6-4.2-1.6-2.8 0-6.9 4.4l-1.3-2.2 6.5-6.7q1.8-0.5 4.3-0.5 4.1 0 6.3 2.7 2.3 2.5 2.3 7.5v17.1zm-15.4-2.1q2.8 0 5.9-3.2v-5.9h-7.9q-0.6 0.9-0.9 1.8-0.2 1-0.2 2.1 0 2.1 0.8 3.7 0.9 1.5 2.3 1.5zm-251.7 61.8h14.5l6.3-12.1 1.3 0.6v15.2l-2.4-1.1h-26.3v-2.6l22.6-40.7h-14.1l-5.7 10.9-1.4-0.6v-14l2.5 1h25.3v2.7zm52.7 0.3l-0.9 2.3h-8.6v-5.1l-5.1 5.2q-0.9 0.5-2.2 0.5-3.9 0-5.7-2.5-1.7-2.5-1.7-6 0-2.2 1.2-4.2 1.2-2 3.3-3.9h10.2v-3.7q0-3.8-1.6-5.4-1.5-1.6-4.2-1.6-2.8 0-6.8 4.4l-1.4-2.2 6.5-6.7q1.8-0.4 4.3-0.4 4.1 0 6.4 2.6 2.2 2.6 2.2 7.5v17.1zm-15.3-2q2.7 0 5.9-3.3v-5.9h-8q-0.6 0.9-0.9 1.9-0.2 0.9-0.2 2 0 2.2 0.9 3.8 0.8 1.5 2.3 1.5zm27.4 0l4.1 2-0.9 2.4h-12.6v-1.8l4-4.1v-36l-4-3.6v-1.9l7.7-3.7h1.7zm19.4 2l-0.9 2.4h-7.6l-8.5-15.5 8.4-9.1-4.3-4.1 0.9-2.4h10.7v1.8l-10.4 11.4 7.6 13.5zm19.4-29.3q1.5 0 2.6 1.1 1.1 1 1.8 2.9l-3 4.9h-1.7q-0.2-1.5-0.7-2.1-0.4-0.6-1.2-0.6-1 0-2.2 0.7-1 0.6-2.4 2.5v17.4l6.3 2.6-0.9 2.3h-14.8v-1.8l4-4.1v-16.6l-4-3v-1.8l7.7-4.9 1.3 7.2 4.7-6.2q1-0.5 2.5-0.5zm14 24.6h11.1l1.9-4.8 1.4 0.5v12.3l-2.5-1h-18.1v-2.2l15.1-21.9h-11.4l-1.8 4.2-1.3-0.5v-11.7l2.4 1h18.2v2.2zm43.9-1l-7.9 8.2q-1.8 0.4-4.3 0.4-3 0-5.4-1.9-2.3-2.1-3.7-5.5-1.3-3.5-1.3-7.7 0-4.5 2.1-8.4 2.1-4 5.3-6.3 3.2-2.4 6.2-2.4 4.2 0 6.6 4.4 2.4 4.4 2.4 11.6h-16.7q0.3 4.9 2.1 8.1 1.8 3.2 5 3.2 2.9 0 8.3-5.9zm-11.7-18.7q-4.9 0-5.1 8.7h10.5q-0.4-3.2-0.8-4.8-0.4-1.7-1.5-2.8-1-1.1-3.1-1.1zm53.7-4.3v1.8l-10.1 29.2h-3.4l-4.7-14.9-5.8 14.9h-3.4l-7-22.3-4.2-3.1v-1.8l7.7-4.9 1.7 8.8 5.5 17.4 4.4-12.4-1.2-4-4.2-3.1v-1.8l7.7-4.9 1.7 8.8 5.3 16.9 5.4-16.4-6.2-5.9 0.9-2.3zm18.6 24.7q0-1.6-1.4-3-1.4-1.4-4.3-3.3-2.3-1.6-3.8-2.8-1.4-1.1-2.5-2.6-0.9-1.6-0.9-3.4 0-2.1 1.3-4.5 1.4-2.4 3.3-4.1 2-1.6 3.7-1.6 2.1 0 4.8 0.7 2.7 0.6 4 1.4v9.1h-1.8q-1.4-3.7-3.3-5.7-1.9-2-3.9-2-1.4 0-2.2 1-0.9 0.9-0.9 2.4 0 1.8 1.5 3.3 1.5 1.4 4.4 3.3 2.3 1.5 3.7 2.6 1.4 1.1 2.4 2.7 1 1.4 1 3.2 0 2.2-1.5 4.6-1.4 2.3-3.5 4-2 1.6-3.7 1.6-2.2 0-5.3-0.6-3-0.7-4.3-1.5v-9.1h1.7q1.6 3.7 3.8 5.7 2.1 2 4.3 2 1.5 0 2.4-1 1-1 1-2.4zm19.1 1.9l4.1 2.1-0.9 2.3h-12.6v-1.8l4-4.1v-36l-4-3.6v-1.8l7.7-3.7h1.7zm19.4 2l-0.9 2.3h-7.6l-8.5-15.4 8.4-9.2-4.3-4.1 0.9-2.3h10.8v1.8l-10.5 11.4 7.6 13.5zm27.5 0l-0.9 2.3h-8.5v-5.1l-5.1 5.2q-0.9 0.5-2.3 0.5-3.8 0-5.6-2.5-1.7-2.5-1.7-6.1 0-2.1 1.2-4.1 1.2-2.1 3.3-3.9h10.2v-3.7q0-3.8-1.6-5.4-1.5-1.6-4.2-1.6-2.8 0-6.9 4.4l-1.3-2.2 6.5-6.7q1.8-0.4 4.3-0.4 4.1 0 6.3 2.6 2.3 2.6 2.3 7.5v17.1zm-15.4-2q2.8 0 5.9-3.3v-5.9h-7.9q-0.6 0.9-0.9 1.9-0.2 0.9-0.2 2 0 2.2 0.8 3.7 0.9 1.6 2.3 1.6zm20.1-11.3v-1.8l1.8-3h14.1v1.8l-1.8 3zm53.8-31.4v14.6l-1.4 0.6-6-11.5h-5.5v38.9l4.8 2.1-0.9 2.4h-13.7v-1.9l4.2-4.3v-37.2h-5.3l-6 11.5-1.4-0.6v-14.6l2.5 1.1h26.2zm17.9 15.4q1.4 0 2.6 1.1 1.1 1 1.7 2.9l-3 4.8h-1.7q-0.1-1.4-0.6-2-0.5-0.6-1.3-0.6-1 0-2.1 0.7-1.1 0.6-2.5 2.5v17.4l6.3 2.5-0.9 2.4h-14.8v-1.8l4-4.1v-16.6l-4-3v-1.9l7.7-4.9 1.4 7.2 4.7-6.2q0.9-0.4 2.5-0.4zm34.5 29.2l-0.9 2.3h-8.6v-6l-5.7 6.2q-0.9 0.4-2.5 0.4-3 0-4.8-2.4-1.8-2.4-1.8-6.6v-14l-4-3v-1.8l7.7-4.9h1.7v20.8q0 3.2 0.7 4.5 0.8 1.3 2.8 1.3 1.4 0 2.7-0.7 1.4-0.7 3.2-2.6v-13.6l-4-3v-1.8l7.7-4.9h1.7v27.8zm18.6-4q0-1.7-1.4-3-1.4-1.4-4.3-3.3-2.4-1.6-3.8-2.8-1.4-1.2-2.5-2.7-1-1.6-1-3.4 0-2.1 1.4-4.5 1.3-2.4 3.3-4 2-1.6 3.7-1.6 2.1 0 4.8 0.7 2.7 0.6 3.9 1.4v9h-1.7q-1.4-3.6-3.3-5.6-1.9-2-3.9-2-1.4 0-2.2 1-0.9 0.9-0.9 2.4 0 1.8 1.5 3.2 1.5 1.4 4.4 3.4 2.3 1.5 3.7 2.6 1.4 1.1 2.4 2.6 0.9 1.5 0.9 3.3 0 2.2-1.4 4.6-1.4 2.3-3.5 3.9-2 1.7-3.7 1.7-2.2 0-5.3-0.7-3-0.7-4.3-1.5v-9h1.7q1.6 3.6 3.8 5.7 2.1 2 4.3 2 1.5 0 2.4-1 1-1 1-2.4zm24.1 4l-0.9 2.3h-12.6v-1.8l4-4.1v-17.1l-4-3.6v-1.8l7.7-3.8h1.7v27.8zm-6.9-47.4q1.3 0 2.2 1.3 0.9 1.3 0.9 3.2 0 1.4-0.6 2.6-0.7 1.2-1.6 1.9-0.9 0.7-1.8 0.7-1.4 0-2.3-1.3-0.9-1.3-0.9-3.2 0-1.4 0.7-2.5 0.6-1.3 1.6-2 0.9-0.7 1.8-0.7zm19.5 22.3v23.1l4 2.1-0.9 2.3h-12.5v-1.8l4-4.1v-17.8l-6.5 8.6v-3.3l6.5-9v-14.5l-4-3.7v-1.8l7.7-3.7h1.7v19.7l6.1-8.5v3.9zm21.8-4.2q3 0 5.3 2.1 2.4 2 3.7 5.4 1.4 3.5 1.4 7.6 0 4.5-2.1 8.5-2.2 3.9-5.3 6.3-3.2 2.4-6.2 2.4-2.9 0-5.3-2-2.4-2.1-3.7-5.5-1.3-3.5-1.3-7.6 0-4.5 2.1-8.5 2.1-3.9 5.3-6.3 3.2-2.4 6.1-2.4zm-2.6 4.9q-5.1 0-5.1 9.5 0 5.5 1.9 9.3 1.8 3.6 5.2 3.6 5.1 0 5.1-9.4 0-5.5-1.8-9.2-1.9-3.8-5.3-3.8z"/><path class="e" d="m780 451q-0.7 0-1.3-0.1-0.7-0.1-1.3-0.3-0.6-0.2-1.2-0.5-0.6-0.3-1.1-0.7-0.5-0.5-1-1-0.4-0.6-0.6-1.2-0.3-0.6-0.4-1.3-0.1-0.7-0.1-1.4 0-0.9 0.2-1.8 0.3-0.9 0.8-1.7 0.5-0.8 1.3-1.4 0.7-0.6 1.6-0.9 3.8-1.8 11.6-1.8v1.5q-0.7 0-1.4 0-0.7 0-1.4 0.1-0.7 0-1.4 0.1-0.7 0.1-1.3 0.2-0.5 0.1-1 0.2-0.4 0.2-0.8 0.4-0.5 0.2-0.9 0.4-0.3 0.3-0.7 0.6-0.3 0.3-0.5 0.7-0.2 0.4-0.4 0.8-0.1 0.5-0.2 0.9-0.1 0.4 0 0.9-0.1 0.5 0 1 0 0.5 0.1 1 0.2 0.5 0.4 0.9 0.2 0.5 0.5 0.9 0.2 0.3 0.5 0.5 0.3 0.3 0.7 0.4 0.3 0.2 0.7 0.2 0.4 0.1 0.7 0.1 0.5 0 1-0.1 0.4-0.1 0.9-0.3 0.4-0.2 0.8-0.4 0.4-0.3 0.7-0.6 0.5-0.4 0.9-0.9 0.3-0.5 0.6-1 0.3-0.5 0.5-1.1 0.2-0.5 0.3-1.1v-9.8q0.1-0.6 0-1.2 0-0.5-0.2-1.1-0.1-0.5-0.4-1.1-0.2-0.5-0.5-1-0.3-0.3-0.7-0.6-0.4-0.3-0.9-0.5-0.4-0.1-0.9-0.2-0.5-0.1-0.9-0.1-0.3 0-0.6 0-0.3 0.1-0.6 0.1-0.3 0.1-0.6 0.2-0.3 0.2-0.5 0.3-0.2 0.2-0.3 0.3-0.2 0.2-0.3 0.4-0.2 0.1-0.3 0.3-0.1 0.2-0.2 0.5 0 0.2-0.1 0.4-0.1 0.2-0.2 0.4 0 0.2-0.1 0.4 0 0.2-0.1 0.5-0.1 0.2-0.1 0.4-0.1 0.2-0.2 0.3-0.1 0.2-0.2 0.4-0.1 0.2-0.3 0.3-0.1 0.2-0.3 0.3-0.2 0.1-0.4 0.2-0.3 0.1-0.5 0.1-0.2 0.1-0.4 0-0.3 0.1-0.5 0-0.3 0-0.5-0.1-0.3-0.1-0.5-0.2-0.2-0.2-0.4-0.4-0.2-0.1-0.3-0.3-0.1-0.2-0.2-0.4-0.1-0.2-0.1-0.5-0.1-0.2-0.1-0.4 0-1.9 2.3-3.4 2.4-1.5 7-1.5 0.7 0 1.3 0 0.7 0.1 1.3 0.2 0.6 0.1 1.2 0.3 0.7 0.2 1.2 0.4 0.5 0.2 1 0.5 0.5 0.3 0.9 0.7 0.4 0.3 0.7 0.7 0.4 0.4 0.6 0.9 0.3 0.6 0.6 1.1 0.2 0.6 0.3 1.3 0.2 0.6 0.2 1.2 0.1 0.6 0.1 1.3v11.5q0 2.9 1.4 2.9 0.2-0.1 0.4-0.1 0.2-0.1 0.4-0.2 0.2-0.2 0.3-0.4 0.1-0.1 0.2-0.3 0.2-0.4 0.3-0.8 0.1-0.3 0.2-0.7 0.1-0.4 0.1-0.8 0.2-0.4 0.2-0.7h1.4q0 0.4 0 0.8 0 0.4-0.1 0.8-0.1 0.4-0.2 0.8-0.1 0.3-0.2 0.7-0.1 0.3-0.3 0.6-0.1 0.3-0.3 0.5-0.2 0.3-0.6 0.5-0.2 0.2-0.5 0.4-0.3 0.2-0.7 0.3-0.3 0.2-0.7 0.3-0.4 0-0.7 0.1-0.4 0-0.8 0-0.5 0-1-0.1-0.5 0-1-0.2-0.4-0.2-0.8-0.5-0.5-0.4-0.8-0.8-0.3-0.4-0.5-0.9-0.3-0.5-0.4-1-0.2-0.5-0.3-1-0.1-0.5-0.2-1.1h0.3q-0.1 0.5-0.3 0.9-0.1 0.4-0.3 0.7-0.2 0.4-0.5 0.7-0.3 0.4-0.6 0.7-0.3 0.3-0.7 0.6-0.3 0.3-0.7 0.5-0.4 0.3-0.8 0.5-0.4 0.2-0.8 0.4-0.4 0.1-0.8 0.2-0.5 0.2-0.9 0.2-0.5 0.1-0.9 0.2-0.5 0-0.9 0z"/></svg>