<svg id="Layer_1" data-name="Layer 1" xmlns="http://www.w3.org/2000/svg" xmlns:xlink="http://www.w3.org/1999/xlink" viewBox="0 0 710 360"><defs><style>.cls-1{fill:url(#linear-gradient);}.cls-2{fill:url(#linear-gradient-2);}.cls-3{fill:url(#linear-gradient-3);}.cls-4{fill:url(#linear-gradient-4);}</style><linearGradient id="linear-gradient" x1="202.17" y1="59.24" x2="202.17" y2="59.22" gradientUnits="userSpaceOnUse"><stop offset="0" stop-color="#6c6c6c"/><stop offset="0.5" stop-color="#c8c8c8"/><stop offset="0.62" stop-color="#c2c2c2"/><stop offset="0.77" stop-color="#b1b1b1"/><stop offset="0.96" stop-color="#959595"/><stop offset="1" stop-color="#8d8d8d"/></linearGradient><linearGradient id="linear-gradient-2" x1="84.99" y1="209.76" x2="84.99" y2="120.41" xlink:href="#linear-gradient"/><linearGradient id="linear-gradient-3" x1="202.23" y1="300.53" x2="202.23" y2="59.24" xlink:href="#linear-gradient"/><linearGradient id="linear-gradient-4" x1="319.34" y1="209.76" x2="319.34" y2="120.45" xlink:href="#linear-gradient"/></defs><polygon class="cls-1" points="202.18 59.23 202.18 59.24 202.17 59.24 202.17 59.22 202.18 59.23"/><path class="cls-2" d="M104.53,183.11,86.91,121.76c-.46-.37-.87-.73-1.25-1.09a5.66,5.66,0,0,1-.57,0,4.68,4.68,0,0,1-1.64-.3l-18,62.65c-3.37.33-6.76.78-10.14,1.45v3.29l4.71.14a23.6,23.6,0,0,0,46.08,5.2c-5.77-.9-12-3.56-15.14-5l8.85-.11,7.1-.09h.32l7.41-.23v-3.16A101.27,101.27,0,0,0,104.53,183.11Zm-12.12-.8c-2.47-.07-4.94-.09-7.41-.12l-7.42.11c-2.21.12-4.42.16-6.62.34l14-49,14.05,49C96.84,182.48,94.63,182.44,92.41,182.31Z"/><path class="cls-3" d="M324.21,115.84a4.87,4.87,0,0,1-3.31,4.61,4.71,4.71,0,0,1-1.55.26,4.48,4.48,0,0,1-.64,0c-.39.36-.83.73-1.29,1.11a26.44,26.44,0,0,1-10,5.21c-10.47,2.78-20.05-2.09-25.72-4.74-1.75-.83-6.15-3.61-14.87-9.16l-9.2-5.86a47.43,47.43,0,0,0-9.13-5,35.29,35.29,0,0,0-10-2.06,26,26,0,0,0-13,2.28c-9.86,4.77-14,16.17-15.48,26.34a78.93,78.93,0,0,0,0,18.75,118.78,118.78,0,0,0,3.48,19.17,46.7,46.7,0,0,1,1.21,18.64l-2,14.49a143.35,143.35,0,0,0-4,33.77v23.49a31.17,31.17,0,0,0,31.15,31.17h16.21c10.32,0,15.23,6.88,15.23,12.28H133c0-5.4,4.92-12.28,15.25-12.28h16.19a31.17,31.17,0,0,0,31.17-31.17V233.59a143.36,143.36,0,0,0-4-33.77l-2-14.49a46.88,46.88,0,0,1,1.21-18.64,117.68,117.68,0,0,0,3.47-19.17,78.41,78.41,0,0,0,.07-18.75c-1.46-10.17-5.64-21.57-15.5-26.34a25.92,25.92,0,0,0-13-2.28,35,35,0,0,0-9.94,2.06,47.51,47.51,0,0,0-9.14,5l-9.19,5.86c-8.73,5.55-13.12,8.33-14.87,9.16a83,83,0,0,1-8.55,3.63,34.16,34.16,0,0,1-9.59,1.91A24.35,24.35,0,0,1,97,127a26.54,26.54,0,0,1-10.06-5.22c-.46-.37-.87-.73-1.25-1.09a5.66,5.66,0,0,1-.57,0,4.68,4.68,0,0,1-1.64-.3A4.86,4.86,0,1,1,90,115.84a4.21,4.21,0,0,1-.11,1,19.61,19.61,0,0,0,8.22,2.69l.77.05a19.32,19.32,0,0,0,9.4-2.2,56.86,56.86,0,0,0,5.68-3.26c10.9-7,13.79-11.77,22-18.56C145.46,87.64,160.69,78,173,78.81a34.54,34.54,0,0,1,15.28,4.89A3.87,3.87,0,0,0,193.76,82c2.81-5.83,5.6-17,8.41-22.8h0c2.8,5.83,5.6,17,8.4,22.8A3.88,3.88,0,0,0,216,83.7a34.54,34.54,0,0,1,15.27-4.89c12.35-.83,27.58,8.83,37.12,16.71,8.22,6.79,11.11,11.59,22,18.56,6.11,3.91,10.59,5.86,15.85,5.41a19.62,19.62,0,0,0,8.29-2.74,4.53,4.53,0,0,1-.09-.91,4.87,4.87,0,0,1,9.73,0Z"/><path class="cls-4" d="M338.87,183.11l-18-62.66a4.71,4.71,0,0,1-1.55.26,4.48,4.48,0,0,1-.64,0c-.39.36-.83.73-1.29,1.11l-17.58,61.29c-3.39.33-6.77.78-10.16,1.45v3.29l4.71.14a23.6,23.6,0,0,0,46.08,5.2c-5.77-.9-12-3.56-15.14-5l8.85-.11,7.09-.09h.33l7.4-.23v-3.16A100.44,100.44,0,0,0,338.87,183.11Zm-12.11-.8c-2.47-.07-4.95-.09-7.41-.12l-7.42.11c-2.21.12-4.42.16-6.63.34l14.05-49,14.06,49C331.18,182.48,329,182.44,326.76,182.31Z"/><polygon points="184.95 227.73 184.95 243.46 110.45 136 119.06 132.67 184.95 227.73"/><path d="M103.4,110.38a19.54,19.54,0,0,1-9.39,2.2L83.57,97.52l9-2.73Z"/><path d="M301,110.38a19.54,19.54,0,0,0,9.39,2.2l10.44-15.06-9-2.73Z"/><path d="M219,239.92V244l66.46-95.87.1-15.89-65.94,95.14,0,.33C219.18,231.91,219,236,219,239.92Z"/><path d="M185,260.73s-1.49,5.86-4.36,9a26.65,26.65,0,0,1-4.85,4,25.24,25.24,0,0,1-6.32,3l-2.93-4.39-2.51-3.6-38.63-55.46-1.81-16.75,14.58,17.76-15.6-27.2-2.13-19.72Z"/><path d="M219.38,260.73s1.49,5.86,4.37,9a26.65,26.65,0,0,0,4.85,4,25.08,25.08,0,0,0,6.32,3c1-1.46,2-2.92,2.92-4.39l2.52-3.6Q259.68,241,279,213.28l1.81-16.75-14.59,17.76,15.6-27.2,2.13-19.72Z"/><polygon points="112 293.26 112 300.54 75.87 300.54 75.87 220.76 83.14 229.98 88.06 288.92 112 293.26"/><polygon points="292.33 293.26 292.33 300.54 328.47 300.54 328.47 220.76 321.2 229.98 316.27 288.92 292.33 293.26"/><polygon points="160.3 63.76 160.3 59.22 75.87 59.22 75.87 83.88 83.14 79.58 88.06 70.84 160.3 63.76"/><polygon points="244.05 63.76 244.05 59.22 328.48 59.22 328.48 83.88 321.21 79.58 316.28 70.84 244.05 63.76"/><path d="M379.32,94.33v-2.8h28v2.8Zm33.55,60a7.34,7.34,0,0,1-3.22-.57,4.92,4.92,0,0,1-2-2.39q-.89-1.82-2.44-5.55L383.47,91.53H398l20.05,49.65h-2.18L432.6,94.33h4.16l-21.71,60Zm11.42-60v-2.8H442v2.8Z"/><path d="M501.51,111.47l-2.28-7.16A20.89,20.89,0,0,0,497,99.48a11.26,11.26,0,0,0-3.79-3.69,12.31,12.31,0,0,0-6.44-1.46H452.17v-2.8h51.94l.42,19.94Zm-49.34,42.38v-2.8h34.59a12.39,12.39,0,0,0,6.39-1.45,10.46,10.46,0,0,0,3.79-3.8,27,27,0,0,0,2.18-4.72l2.39-7.17h3l-.42,19.94Zm8.31,0V91.53H475v62.32Zm6.44-30.54V120.2H495v3.11Z"/><path d="M570.61,91.53l.42,22.23h-3.12l-3.22-9.35a25.74,25.74,0,0,0-2.13-4.88A10.59,10.59,0,0,0,559,95.79a11.57,11.57,0,0,0-6.24-1.46H534.67a11.51,11.51,0,0,0-6.23,1.46,10.14,10.14,0,0,0-3.54,3.74,35.54,35.54,0,0,0-2.18,4.88l-3.22,9.35h-3.11l.41-22.23Zm-44,62.32v-2.8H558a3.05,3.05,0,0,1,2.18.62,3,3,0,0,1,.63,2.18Zm9.87,0V91.53H551v62.32Z"/><path d="M646.92,122.9a32.15,32.15,0,0,1-2.7,13.5,29.85,29.85,0,0,1-7.38,10.08,32.1,32.1,0,0,1-10.54,6.28A35.81,35.81,0,0,1,614,154.89a36.22,36.22,0,0,1-12.36-2.13,31.44,31.44,0,0,1-10.55-6.28,30,30,0,0,1-7.32-10.18,33.48,33.48,0,0,1-2.7-13.82,31.77,31.77,0,0,1,2.75-13.5,30.53,30.53,0,0,1,7.43-10.08,32.05,32.05,0,0,1,10.65-6.28,37.34,37.34,0,0,1,24.72-.05,31.34,31.34,0,0,1,10.44,6.13,28.54,28.54,0,0,1,7.22,10.12A35.12,35.12,0,0,1,646.92,122.9Zm-16.31-.52q0-10.29-1.82-16.62t-5.5-9.3a16,16,0,0,0-18.6.05q-3.69,3-5.5,9.51a64,64,0,0,0-1.82,16.88q0,10.9,1.87,17.24t5.66,9a15.8,15.8,0,0,0,9.4,2.7,14.21,14.21,0,0,0,9.25-3q3.63-3,5.35-9.45A69.3,69.3,0,0,0,630.61,122.38Z"/><path d="M393.09,191.69v-1.43h14.67v1.43Zm0,31.66v-1.44h13.24a1.17,1.17,0,0,1,1.43,1.44Zm4.42,0V190.26h5.84v33.09Zm4.9-13.57-.38-2.2,17.37-15.89H415v-1.43h10a1.51,1.51,0,0,1-.33,1.16,1.76,1.76,0,0,1-1.1.27,3.54,3.54,0,0,0-2,.58,17.82,17.82,0,0,0-2.18,1.85ZM418,223.35l-12.41-17.21,4.35-3.69,14.23,19.46h1.11a1.7,1.7,0,0,1,1.15.31,1.51,1.51,0,0,1,.33,1.13Z"/><path d="M437.41,223.9a7.71,7.71,0,0,1-4.88-1.6,5.75,5.75,0,0,1-2.07-4.85,6,6,0,0,1,3.86-5.82q3.85-1.78,11.58-1.79v1.49a28.45,28.45,0,0,0-5.49.44,6.4,6.4,0,0,0-3.36,1.57,4.46,4.46,0,0,0-1.13,3.28,5.81,5.81,0,0,0,1,3.8,3.33,3.33,0,0,0,2.68,1.22A5.23,5.23,0,0,0,443,220.2a7.32,7.32,0,0,0,2.29-4.08v-9.81a6.75,6.75,0,0,0-1.16-4.33,4.16,4.16,0,0,0-3.42-1.41,3.6,3.6,0,0,0-2.26.58,3.41,3.41,0,0,0-1,1.44,14,14,0,0,0-.55,1.7,3.57,3.57,0,0,1-.77,1.47,2.15,2.15,0,0,1-1.66.6,2.46,2.46,0,0,1-1.87-.69,2.34,2.34,0,0,1-.66-1.68q0-1.87,2.31-3.36c1.54-1,3.88-1.49,7-1.49a12.34,12.34,0,0,1,5,.91,6.87,6.87,0,0,1,3.19,2.78,9.25,9.25,0,0,1,1.13,4.86v11.58c0,1.87.46,2.81,1.38,2.81a1.54,1.54,0,0,0,1.35-1,7.87,7.87,0,0,0,.69-3l1.44,0a9.34,9.34,0,0,1-.55,3.09,4,4,0,0,1-1.58,2,5.28,5.28,0,0,1-2.89.69,4.21,4.21,0,0,1-3.59-1.55,7.63,7.63,0,0,1-1.37-4h.27a6.32,6.32,0,0,1-1.71,2.92,8.73,8.73,0,0,1-3,2A9.47,9.47,0,0,1,437.41,223.9Z"/><path d="M471.69,223.35H459.22V222a5.78,5.78,0,0,0,2.9-.55c.61-.37.91-1.23.91-2.59V201.18h-3.81V199.8h8.72l.33,7L468.21,222h2.1a1.68,1.68,0,0,1,1.1.25A1.59,1.59,0,0,1,471.69,223.35ZM484,222h2.43a1.7,1.7,0,0,1,1.1.25,1.6,1.6,0,0,1,.27,1.13H475.27V222a4.79,4.79,0,0,0,2.76-.58c.51-.39.77-1.24.77-2.56V207.41a6,6,0,0,0-1.32-4.3,4.35,4.35,0,0,0-3.26-1.38,4.93,4.93,0,0,0-2.73.88,6.84,6.84,0,0,0-2.26,2.62,10.56,10.56,0,0,0-1,4.39l-.16-4.58a9,9,0,0,1,3.53-4.38,8.92,8.92,0,0,1,4.85-1.52,7.53,7.53,0,0,1,3.75,1,7.23,7.23,0,0,1,2.78,3,10.6,10.6,0,0,1,1.08,5.08Z"/><path d="M503.08,199.14a13.23,13.23,0,0,1,4.85.83,8.61,8.61,0,0,1,3.4,2.2,4.36,4.36,0,0,1,1.24,2.92,2.47,2.47,0,0,1-.75,1.77,2.81,2.81,0,0,1-2.12.77,2.68,2.68,0,0,1-2-.83A3.51,3.51,0,0,1,507,205q-.14-1-.33-2.07a3.34,3.34,0,0,0-.91-1.74,3.5,3.5,0,0,0-2.48-.71,5.21,5.21,0,0,0-3.64,1.29,7.77,7.77,0,0,0-2.13,3.75,22.2,22.2,0,0,0-.69,5.93,17.74,17.74,0,0,0,.91,6.15,7.55,7.55,0,0,0,2.54,3.56,6.18,6.18,0,0,0,3.67,1.15,8.31,8.31,0,0,0,4.74-1.35,8.21,8.21,0,0,0,3-3.55l1.44.44a8.5,8.5,0,0,1-3.89,4.49,12.34,12.34,0,0,1-6.09,1.52,13.37,13.37,0,0,1-6.07-1.38,10.63,10.63,0,0,1-4.41-4.11,12.73,12.73,0,0,1-1.66-6.7,13.88,13.88,0,0,1,1.49-6.53,10.94,10.94,0,0,1,4.19-4.44A12.31,12.31,0,0,1,503.08,199.14Z"/><path d="M522.73,210.94c0,3.86.66,6.73,2,8.6a6.15,6.15,0,0,0,5.32,2.81,7.31,7.31,0,0,0,4.36-1.37,8.78,8.78,0,0,0,2.92-3.53l1.38.44a8.74,8.74,0,0,1-3.75,4.46,11.63,11.63,0,0,1-6.07,1.55,12.84,12.84,0,0,1-5.87-1.38,10.68,10.68,0,0,1-4.38-4.11,12.84,12.84,0,0,1-1.66-6.75,14.6,14.6,0,0,1,1.35-6.4,10.8,10.8,0,0,1,4-4.47,11.73,11.73,0,0,1,6.37-1.65,13.1,13.1,0,0,1,5.24,1,8.24,8.24,0,0,1,5.19,8.13,7.18,7.18,0,0,1-.2,1.93,1.32,1.32,0,0,1-.77.91,4.69,4.69,0,0,1-1.79.25l-15.22-.22v-1.54l9.81.22a2.71,2.71,0,0,0,2-.42,3.58,3.58,0,0,0,.47-2.29,7.79,7.79,0,0,0-1.32-4.88,4.26,4.26,0,0,0-3.53-1.68,4.87,4.87,0,0,0-4.08,2.32C523.28,204.43,522.73,207.12,522.73,210.94Z"/><path d="M556.12,223.35H542.45V222a6.86,6.86,0,0,0,3.22-.55c.65-.37,1-1.25,1-2.65V188.88h-4.19V187.5h9.43V222h2.87a1.7,1.7,0,0,1,1.1.25A1.6,1.6,0,0,1,556.12,223.35Z"/><path d="M567,223.9a7.74,7.74,0,0,1-4.89-1.6,5.77,5.77,0,0,1-2.06-4.85,6,6,0,0,1,3.86-5.82q3.86-1.78,11.58-1.79v1.49a28.45,28.45,0,0,0-5.49.44,6.36,6.36,0,0,0-3.36,1.57,4.42,4.42,0,0,0-1.13,3.28,5.81,5.81,0,0,0,1,3.8,3.32,3.32,0,0,0,2.67,1.22,5.21,5.21,0,0,0,3.39-1.44,7.26,7.26,0,0,0,2.29-4.08v-9.81A6.69,6.69,0,0,0,573.7,202a4.16,4.16,0,0,0-3.42-1.41,3.62,3.62,0,0,0-2.26.58,3.47,3.47,0,0,0-1,1.44,14.07,14.07,0,0,0-.56,1.7,3.35,3.35,0,0,1-.77,1.47,2.14,2.14,0,0,1-1.65.6,2.48,2.48,0,0,1-1.88-.69,2.34,2.34,0,0,1-.66-1.68c0-1.25.77-2.37,2.32-3.36s3.88-1.49,7-1.49a12.29,12.29,0,0,1,5,.91,6.85,6.85,0,0,1,3.2,2.78,9.35,9.35,0,0,1,1.13,4.86v11.58c0,1.87.46,2.81,1.38,2.81a1.54,1.54,0,0,0,1.35-1,7.87,7.87,0,0,0,.69-3l1.43,0a9.09,9.09,0,0,1-.55,3.09,3.94,3.94,0,0,1-1.57,2,5.32,5.32,0,0,1-2.9.69,4.19,4.19,0,0,1-3.58-1.55,7.73,7.73,0,0,1-1.38-4h.28a6.5,6.5,0,0,1-1.71,2.92,8.83,8.83,0,0,1-3,2A9.47,9.47,0,0,1,567,223.9Z"/><path d="M603.17,223.35H588.78V222a5.74,5.74,0,0,0,2.92-.55c.59-.37.88-1.23.88-2.59V201.18h-3.8V199.8h8.66l.38,7.22V222h4a1.74,1.74,0,0,1,1.11.25A1.6,1.6,0,0,1,603.17,223.35Zm3.42-17.81A2.26,2.26,0,0,1,605,205a3.94,3.94,0,0,1-.91-1.18,8,8,0,0,0-.72-1.19,1.21,1.21,0,0,0-1-.52,3,3,0,0,0-1.73.93,8.31,8.31,0,0,0-2,3,13.29,13.29,0,0,0-.88,5.24l-.39-5.29a10,10,0,0,1,2-3.61,9,9,0,0,1,3-2.21,7.61,7.61,0,0,1,3.14-.75,4.31,4.31,0,0,1,2.65.83,3,3,0,0,1,1.1,2.54,2.91,2.91,0,0,1-.71,1.9A2.46,2.46,0,0,1,606.59,205.54Z"/><path d="M626.48,223.35h-13V222a6.22,6.22,0,0,0,3-.55c.65-.37,1-1.23,1-2.59V201.18h-4V199.8h9.15V222h2.54a1.07,1.07,0,0,1,1.32,1.38Zm-6.67-27.85a3.38,3.38,0,0,1-3.42-3.42,3.38,3.38,0,0,1,1-2.45,3.4,3.4,0,0,1,4.86,0,3.38,3.38,0,0,1,1,2.45,3.38,3.38,0,0,1-3.42,3.42Z"/><path d="M637.36,223.9a7.7,7.7,0,0,1-4.88-1.6,5.75,5.75,0,0,1-2.07-4.85,6,6,0,0,1,3.86-5.82q3.86-1.78,11.58-1.79v1.49a28.45,28.45,0,0,0-5.49.44,6.36,6.36,0,0,0-3.36,1.57,4.42,4.42,0,0,0-1.13,3.28,5.81,5.81,0,0,0,1,3.8,3.32,3.32,0,0,0,2.67,1.22A5.21,5.21,0,0,0,643,220.2a7.26,7.26,0,0,0,2.29-4.08v-9.81a6.69,6.69,0,0,0-1.16-4.33,4.16,4.16,0,0,0-3.42-1.41,3.64,3.64,0,0,0-2.26.58,3.47,3.47,0,0,0-1,1.44,14,14,0,0,0-.55,1.7,3.48,3.48,0,0,1-.78,1.47,2.12,2.12,0,0,1-1.65.6,2.5,2.5,0,0,1-1.88-.69,2.34,2.34,0,0,1-.66-1.68c0-1.25.77-2.37,2.32-3.36s3.88-1.49,7-1.49a12.29,12.29,0,0,1,5,.91,6.85,6.85,0,0,1,3.2,2.78,9.35,9.35,0,0,1,1.13,4.86v11.58c0,1.87.46,2.81,1.38,2.81a1.54,1.54,0,0,0,1.35-1,7.87,7.87,0,0,0,.69-3l1.43,0a9.09,9.09,0,0,1-.55,3.09,3.94,3.94,0,0,1-1.57,2,5.3,5.3,0,0,1-2.89.69,4.2,4.2,0,0,1-3.59-1.55,7.73,7.73,0,0,1-1.38-4h.28a6.5,6.5,0,0,1-1.71,2.92,8.83,8.83,0,0,1-3,2A9.47,9.47,0,0,1,637.36,223.9Z"/><path d="M410.25,234.36q5.5,0,8.18,2.53a8.32,8.32,0,0,1,2.68,6.29,9,9,0,0,1-1.44,5,9.22,9.22,0,0,1-4.3,3.42,18.61,18.61,0,0,1-7.22,1.21h-8.33v-1.6h7.83q3.81,0,5.44-2.2a9.27,9.27,0,0,0,1.62-5.63,10.9,10.9,0,0,0-.63-3.8,6,6,0,0,0-2-2.76,6.08,6.08,0,0,0-3.72-1.05H393.09v-1.43Zm-17.16,33.08V266h14.34a1.74,1.74,0,0,1,1.16.3,1.53,1.53,0,0,1,.33,1.13Zm4.42,0V234.36h5.84v33.08Z"/><path d="M440.19,267.44H425.8v-1.37a5.72,5.72,0,0,0,2.92-.56c.59-.36.88-1.23.88-2.59V245.28h-3.8V243.9h8.65l.39,7.22v14.95h4a1.76,1.76,0,0,1,1.1.24A1.57,1.57,0,0,1,440.19,267.44Zm3.42-17.81a2.24,2.24,0,0,1-1.57-.52,4,4,0,0,1-.91-1.19,7.87,7.87,0,0,0-.72-1.18,1.25,1.25,0,0,0-1.05-.53,3.11,3.11,0,0,0-1.74.94,8.3,8.3,0,0,0-1.95,3,13.29,13.29,0,0,0-.88,5.24l-.39-5.3a10.16,10.16,0,0,1,2-3.61,8.84,8.84,0,0,1,3-2.2,7.61,7.61,0,0,1,3.14-.75,4.31,4.31,0,0,1,2.65.83,3,3,0,0,1,1.1,2.53,2.9,2.9,0,0,1-.72,1.91A2.43,2.43,0,0,1,443.61,249.63Z"/><path d="M456.58,268a7.79,7.79,0,0,1-4.88-1.6,5.76,5.76,0,0,1-2.06-4.86,6,6,0,0,1,3.86-5.81q3.86-1.8,11.58-1.8v1.49a29.28,29.28,0,0,0-5.49.44,6.44,6.44,0,0,0-3.37,1.58,4.44,4.44,0,0,0-1.13,3.28,5.85,5.85,0,0,0,1,3.8,3.33,3.33,0,0,0,2.68,1.21,5.2,5.2,0,0,0,3.39-1.43,7.39,7.39,0,0,0,2.29-4.08V250.4a6.77,6.77,0,0,0-1.16-4.33,4.19,4.19,0,0,0-3.42-1.4,3.56,3.56,0,0,0-2.26.58,3.32,3.32,0,0,0-1.05,1.43,16.15,16.15,0,0,0-.55,1.71,3.37,3.37,0,0,1-.77,1.46,2.11,2.11,0,0,1-1.65.61,2.48,2.48,0,0,1-1.88-.69,2.34,2.34,0,0,1-.66-1.68c0-1.25.77-2.37,2.31-3.37s3.88-1.49,7-1.49a12.28,12.28,0,0,1,5,.92,6.84,6.84,0,0,1,3.2,2.78,9.33,9.33,0,0,1,1.13,4.85v11.58q0,2.82,1.38,2.82a1.56,1.56,0,0,0,1.35-1,7.88,7.88,0,0,0,.69-3l1.43.06a9.44,9.44,0,0,1-.55,3.09,4,4,0,0,1-1.57,2,5.32,5.32,0,0,1-2.9.69,4.18,4.18,0,0,1-3.58-1.55,7.76,7.76,0,0,1-1.38-4h.27a6.44,6.44,0,0,1-1.7,2.92,9,9,0,0,1-3,2A9.52,9.52,0,0,1,456.58,268Z"/><path d="M482.41,245.28,489,264h-.44l5.08-15.66,1.1,1.49-5.85,17.92h-1.38a3.09,3.09,0,0,1-2.12-.66,9,9,0,0,1-1.68-3.26L477,245.28h-2.37V243.9h11.58v1.38Zm13.95,0,6.34,18.64h-.44l5.95-18.64h-3.69V243.9h8.05c0,.59-.11,1-.33,1.13a1.68,1.68,0,0,1-1,.25,1.82,1.82,0,0,0-1.19.35,3.74,3.74,0,0,0-.8,1.52l-6.78,20.57h-1.21a3.47,3.47,0,0,1-1.52-.28,2.34,2.34,0,0,1-1-1.13,22.59,22.59,0,0,1-1.05-2.51l-6.95-19.9h9.32v1.38Z"/><path d="M529,267.44H516.54v-1.37a5.75,5.75,0,0,0,2.89-.56c.61-.36.91-1.23.91-2.59V245.28h-3.8V243.9h8.71l.33,7-.06,15.17h2.1a1.76,1.76,0,0,1,1.1.24A1.57,1.57,0,0,1,529,267.44Zm12.35-1.37h2.43a1.76,1.76,0,0,1,1.1.24,1.62,1.62,0,0,1,.28,1.13H532.58v-1.37a4.83,4.83,0,0,0,2.76-.58c.51-.39.77-1.24.77-2.57V251.51a6,6,0,0,0-1.32-4.3,4.34,4.34,0,0,0-3.26-1.38,4.92,4.92,0,0,0-2.72.88,6.77,6.77,0,0,0-2.27,2.62,10.55,10.55,0,0,0-1,4.38l-.16-4.57a9.07,9.07,0,0,1,3.53-4.39,8.92,8.92,0,0,1,4.85-1.52,7.54,7.54,0,0,1,3.75,1,7.25,7.25,0,0,1,2.79,3,10.68,10.68,0,0,1,1.07,5.07Z"/><path d="M555.9,268a7.77,7.77,0,0,1-4.88-1.6,5.77,5.77,0,0,1-2.07-4.86,6,6,0,0,1,3.86-5.81q3.86-1.8,11.58-1.8v1.49a29.28,29.28,0,0,0-5.49.44,6.37,6.37,0,0,0-3.36,1.58,4.44,4.44,0,0,0-1.13,3.28,5.85,5.85,0,0,0,1,3.8,3.31,3.31,0,0,0,2.67,1.21,5.24,5.24,0,0,0,3.4-1.43,7.32,7.32,0,0,0,2.28-4.08V250.4a6.77,6.77,0,0,0-1.15-4.33,4.21,4.21,0,0,0-3.42-1.4,3.54,3.54,0,0,0-2.26.58,3.32,3.32,0,0,0-1.05,1.43,14.14,14.14,0,0,0-.55,1.71,3.38,3.38,0,0,1-.78,1.46,2.09,2.09,0,0,1-1.65.61,2.46,2.46,0,0,1-1.87-.69,2.31,2.31,0,0,1-.67-1.68c0-1.25.78-2.37,2.32-3.37s3.88-1.49,7-1.49a12.25,12.25,0,0,1,5,.92,6.8,6.8,0,0,1,3.2,2.78,9.33,9.33,0,0,1,1.13,4.85v11.58q0,2.82,1.38,2.82a1.56,1.56,0,0,0,1.35-1,7.88,7.88,0,0,0,.69-3l1.43.06a9.18,9.18,0,0,1-.55,3.09,4,4,0,0,1-1.57,2,5.3,5.3,0,0,1-2.89.69,4.2,4.2,0,0,1-3.59-1.55,7.76,7.76,0,0,1-1.38-4h.28a6.37,6.37,0,0,1-1.71,2.92,9,9,0,0,1-3,2A9.47,9.47,0,0,1,555.9,268Z"/></svg>