<svg version="1.2" xmlns="http://www.w3.org/2000/svg" viewBox="0 0 1500 500" width="1500" height="500"><defs><linearGradient id="P" gradientUnits="userSpaceOnUse"/><linearGradient id="g1" x2="1" href="#P" gradientTransform="matrix(0,-0.033,.017,0,257.575,51.066)"><stop stop-color="#b27c2d"/><stop offset=".5" stop-color="#f5c665"/><stop offset=".62" stop-color="#f1c060"/><stop offset=".79" stop-color="#e5af50"/><stop offset=".98" stop-color="#d19338"/><stop offset="1" stop-color="#ce8f34"/></linearGradient><linearGradient id="g2" x2="1" href="#P" gradientTransform="matrix(0,-147.583,97.989,0,64.024,299.686)"><stop stop-color="#b27c2d"/><stop offset=".5" stop-color="#f5c665"/><stop offset=".62" stop-color="#f1c060"/><stop offset=".79" stop-color="#e5af50"/><stop offset=".98" stop-color="#d19338"/><stop offset="1" stop-color="#ce8f34"/></linearGradient><linearGradient id="g3" x2="1" href="#P" gradientTransform="matrix(0,-398.549,402.742,0,257.674,449.615)"><stop stop-color="#b27c2d"/><stop offset=".5" stop-color="#f5c665"/><stop offset=".62" stop-color="#f1c060"/><stop offset=".79" stop-color="#e5af50"/><stop offset=".98" stop-color="#d19338"/><stop offset="1" stop-color="#ce8f34"/></linearGradient><linearGradient id="g4" x2="1" href="#P" gradientTransform="matrix(0,-147.517,97.918,0,451.109,299.686)"><stop stop-color="#b27c2d"/><stop offset=".5" stop-color="#f5c665"/><stop offset=".62" stop-color="#f1c060"/><stop offset=".79" stop-color="#e5af50"/><stop offset=".98" stop-color="#d19338"/><stop offset="1" stop-color="#ce8f34"/></linearGradient></defs><style>.a{fill:url(#g1)}.b{fill:url(#g2)}.c{fill:url(#g3)}.d{fill:url(#g4)}.e{fill:#231f20}</style><path class="a" d="m257.6 51v0.1-0.1z"/><path fill-rule="evenodd" class="b" d="m100.5 256.1q2.1 0.2 4.2 0.5 2.1 0.3 4.1 0.6 2.1 0.4 4.2 0.8v5.2l-12.2 0.4h-0.6l-11.7 0.1-14.6 0.2c5.2 2.4 15.5 6.8 25 8.3-2.7 8.6-8.3 16.1-15.9 21.1-7.6 4.9-16.7 7.1-25.7 6.1-9-1-17.4-5.2-23.7-11.7-6.3-6.5-10.1-15.1-10.8-24.1l-7.8-0.3v-5.4c5.6-1.1 11.2-1.8 16.7-2.4l29.8-103.5q0.3 0.2 0.6 0.3 0.4 0 0.7 0.1 0.4 0.1 0.7 0.1 0.3 0 0.7 0 0.1 0 0.2 0 0.1 0 0.3 0 0.1 0 0.2 0 0.1 0 0.2 0 1 0.9 2.1 1.8l29.1 101.4q2.1 0.2 4.2 0.4zm-13.3-1.2l-23.2-80.9-23.2 80.9c3.7-0.3 7.3-0.4 11-0.6l12.2-0.2c4.1 0.1 8.2 0.1 12.3 0.2 3.6 0.3 7.3 0.3 10.9 0.6z"/><path class="c" d="m459.2 144.6q0 1.2-0.4 2.4-0.4 1.2-1.2 2.2-0.7 1.1-1.7 1.8-1 0.8-2.2 1.2-0.3 0.1-0.6 0.2-0.4 0-0.7 0.1-0.3 0-0.6 0.1-0.3 0-0.7 0-0.1 0-0.2 0-0.2 0-0.3 0-0.1 0-0.3 0-0.1 0-0.2 0-1 0.9-2.2 1.8-1.8 1.5-3.7 2.8-2 1.3-4.1 2.4-2 1.1-4.2 2-2.2 0.8-4.5 1.4c-17.3 4.6-33.1-3.4-42.5-7.8-2.9-1.4-10.1-6-24.5-15.1l-15.2-9.7q-1.8-1.2-3.6-2.4-1.8-1.1-3.7-2.1-1.9-1.1-3.9-2-1.9-0.9-3.9-1.8-2-0.7-4-1.3-2.1-0.5-4.1-1-2.1-0.4-4.2-0.7-2.1-0.2-4.2-0.4-2.8-0.2-5.5-0.1-2.8 0.2-5.5 0.6-2.7 0.5-5.3 1.3-2.7 0.9-5.2 2c-16.3 7.9-23.1 26.7-25.6 43.5q-0.4 3.9-0.7 7.7-0.2 3.9-0.2 7.8 0 3.9 0.2 7.8 0.3 3.8 0.7 7.7 0.4 4 1 8 0.5 4 1.3 7.9 0.7 4 1.6 7.9 0.8 4 1.9 7.8 1 3.8 1.7 7.6 0.6 3.9 0.8 7.7 0.3 3.9 0.2 7.8-0.2 3.9-0.7 7.7l-3.3 24q-1.7 6.8-2.9 13.7-1.3 7-2.1 14-0.8 7-1.2 14-0.4 7-0.4 14v38.8c0 6.8 1.3 13.5 3.9 19.7 2.6 6.3 6.4 12 11.1 16.7 4.8 4.8 10.5 8.6 16.7 11.2 6.3 2.6 13 3.9 19.7 3.9h26.8c17 0 25.2 11.4 25.2 20.3h-228.5c0-8.9 8.2-20.3 25.2-20.3h26.8c6.7 0 13.4-1.3 19.7-3.9 6.2-2.6 11.9-6.4 16.7-11.1 4.7-4.8 8.5-10.5 11.1-16.8 2.6-6.2 3.9-12.9 3.9-19.7v-38.9q0-7-0.4-14-0.4-7-1.2-14-0.8-7-2.1-14-1.2-6.9-2.9-13.7l-3.3-24q-0.5-3.8-0.6-7.7-0.2-3.9 0.1-7.8 0.2-3.8 0.9-7.7 0.6-3.8 1.6-7.6 1.1-3.8 2-7.8 0.8-3.9 1.5-7.9 0.8-3.9 1.3-7.9 0.6-4 1-8 0.4-3.9 0.7-7.7 0.2-3.9 0.2-7.8 0.1-3.9-0.2-7.8-0.2-3.8-0.6-7.7c-2.4-16.8-9.3-35.6-25.6-43.5q-2.5-1.1-5.2-2-2.6-0.8-5.3-1.3-2.7-0.4-5.5-0.6-2.8-0.1-5.5 0.1-2.1 0.2-4.2 0.4-2.1 0.3-4.1 0.7-2.1 0.5-4.1 1-2 0.6-4 1.3-2 0.9-4 1.8-1.9 0.9-3.8 2-1.9 1-3.7 2.1-1.8 1.2-3.6 2.4l-15.2 9.7c-14.4 9.1-21.7 13.7-24.6 15.1q-1.7 0.9-3.4 1.7-1.8 0.8-3.5 1.5-1.8 0.8-3.6 1.5-1.8 0.7-3.6 1.3-1.9 0.7-3.8 1.2-2 0.6-4 1-2 0.3-4 0.6-2 0.3-4 0.4-1.6 0-3.2 0-1.6 0-3.1-0.2-1.6-0.1-3.2-0.4-1.5-0.3-3-0.7-2.3-0.6-4.5-1.5-2.2-0.8-4.3-1.9-2.1-1.1-4.1-2.4-1.9-1.3-3.8-2.8-1.1-0.9-2-1.8-0.1 0-0.3 0-0.1 0-0.2 0-0.1 0-0.2 0-0.1 0-0.3 0-0.3 0-0.7-0.1-0.3 0-0.6-0.1-0.4 0-0.7-0.1-0.3-0.1-0.7-0.2c-2.8-1.1-4.8-3.6-5.2-6.5-0.4-3 0.9-5.9 3.4-7.7 2.4-1.7 5.6-1.9 8.3-0.5 2.7 1.4 4.3 4.2 4.3 7.2q0 0.2 0 0.4 0 0.2 0 0.4-0.1 0.2-0.1 0.4 0 0.2-0.1 0.4 1.6 0.9 3.2 1.7 1.6 0.7 3.4 1.3 1.7 0.5 3.4 0.9 1.8 0.4 3.6 0.5l1.3 0.1q2 0.1 4-0.1 2-0.2 4-0.7 1.9-0.5 3.8-1.2 1.9-0.7 3.7-1.6 1.2-0.6 2.4-1.2 1.2-0.7 2.4-1.4 1.1-0.6 2.3-1.3 1.1-0.7 2.3-1.5c18-11.5 22.8-19.4 36.3-30.6 15.7-13.1 40.9-29 61.2-27.7q3.3 0.2 6.6 0.9 3.3 0.6 6.5 1.6 3.2 1.1 6.2 2.4 3.1 1.4 5.9 3.2 1.2 0.7 2.5 0.8 1.4 0.2 2.7-0.2 1.3-0.4 2.3-1.3 1-0.9 1.6-2.1c4.6-9.7 9.2-28.1 13.9-37.7 4.6 9.6 9.2 28.1 13.8 37.7q0.6 1.2 1.6 2 1 0.9 2.3 1.3 1.3 0.4 2.6 0.3 1.4-0.2 2.5-0.8 2.9-1.8 5.9-3.1 3.1-1.4 6.3-2.5 3.1-1 6.4-1.6 3.3-0.7 6.6-0.9c20.4-1.4 45.6 14.6 61.4 27.6 13.5 11.2 18.3 19.1 36.3 30.6 10.1 6.5 17.5 9.7 26.2 9q1.8-0.2 3.6-0.6 1.7-0.3 3.5-0.9 1.7-0.6 3.4-1.3 1.6-0.8 3.2-1.7-0.1-0.2-0.1-0.4 0-0.2 0-0.4-0.1-0.2-0.1-0.4 0-0.2 0-0.3c0.1-2.1 1-4.1 2.5-5.5 1.5-1.4 3.5-2.2 5.6-2.2 2 0 4 0.8 5.5 2.2 1.5 1.4 2.4 3.4 2.5 5.5z"/><path fill-rule="evenodd" class="d" d="m487.6 256.1q2.1 0.3 4.1 0.6 2.1 0.3 4.2 0.7 2.1 0.3 4.2 0.7v5.2l-12.3 0.4h-0.5l-11.7 0.2-14.6 0.2c5.1 2.3 15.4 6.7 25 8.2-2.7 8.7-8.3 16.2-15.9 21.1-7.6 5-16.7 7.2-25.8 6.1-9-1-17.4-5.1-23.7-11.7-6.3-6.5-10.1-15-10.8-24.1l-7.7-0.2v-5.4c5.6-1.1 11.2-1.9 16.8-2.4l29-101.3q1.1-0.9 2.1-1.8 0.2 0 0.3 0 0.1 0 0.2 0 0.2 0 0.3 0 0.1 0 0.3 0 0.3 0 0.6 0 0.4-0.1 0.7-0.1 0.3-0.1 0.6-0.1 0.3-0.1 0.6-0.2l29.8 103.5q2.1 0.2 4.2 0.4zm-13.3-1.2l-23.2-80.9-23.2 80.9c3.7-0.3 7.3-0.4 11-0.6l12.2-0.2c4.1 0.1 8.2 0.1 12.3 0.2 3.7 0.3 7.3 0.3 10.9 0.6z"/><path class="e" d="m229.1 329.4v25.9l-123-177.4 14.2-5.5 108.8 157z"/><path class="e" d="m94.4 135.5q-1.8 1-3.6 1.7-1.9 0.7-3.9 1.1-2 0.5-4 0.7-2 0.2-4 0.2l-17.2-24.9 14.8-4.5z"/><path class="e" d="m420.8 135.5q1.8 1 3.7 1.7 1.9 0.7 3.8 1.1 2 0.5 4 0.7 2 0.2 4 0.2l17.3-24.9-14.9-4.5z"/><path class="e" d="m285.4 349.5v6.7l109.7-158.3 0.2-26.3-108.9 157.2v0.5c-0.7 7-1 13.7-1 20.2z"/><path class="e" d="m229.2 383.9c0 0-2.4 9.7-7.2 14.8q-0.9 1-1.8 1.9-1 0.9-2 1.7-1 0.8-2.1 1.6-1 0.7-2.1 1.4-1.2 0.8-2.5 1.6-1.2 0.7-2.5 1.3-1.4 0.6-2.7 1.1-1.4 0.6-2.7 1l-4.9-7.2-4.1-6-63.8-91.6-3-27.7 24.1 29.4-25.8-45-3.5-32.5z"/><path class="e" d="m286 383.9c0 0 2.5 9.7 7.2 14.8q0.9 1 1.9 1.9 0.9 0.9 1.9 1.7 1 0.8 2.1 1.6 1 0.7 2.1 1.4 1.2 0.8 2.5 1.6 1.3 0.7 2.6 1.3 1.3 0.6 2.6 1.1 1.4 0.6 2.8 1c1.6-2.4 3.3-4.8 4.8-7.2l4.2-6q31.9-45.8 63.8-91.6l3-27.7-24.1 29.4 25.7-45 3.6-32.5z"/><path class="e" d="m108.6 437.6v12h-59.6v-131.7l12 15.2 8.1 97.3 39.5 7.2z"/><path class="e" d="m406.5 437.6v12h59.7v-131.7l-12 15.2-8.2 97.3-39.5 7.2z"/><path class="e" d="m188.4 58.5v-7.5h-139.4v40.8l12-7.1 8.1-14.5 119.3-11.7z"/><path class="e" d="m326.7 58.5v-7.5h139.5v40.8l-12-7.1-8.1-14.5-119.4-11.7z"/><path  d="m590.6 180.1l8.2 1.8q0 3-1.1 5.7-8.7-0.9-15.5-0.9-5.5-18.7-13.3-38.8-2.7 0.7-6.6 0.7h-4.1l-1.4 30.6 8.6 2q0 3.1-1.1 5.7-10.7-0.9-14.5-0.9l-9.9 0.9q0-3 1-5.7 4.2-1.6 7.1-4.8 2.7-29.3 4.7-73.7l-7.7-2.4q0-3.1 1-5.8 8.3 1 12.2 1l14.1-1.4q9.1 0 14.5 5.4 5.5 5.2 5.5 16.2 0 10.9-4 18.3-4.1 7.1-11.1 11 6.7 19.8 13.4 35.1zm-6.4-60.4q0-5.7-2.4-10.6-2.3-5.1-6.5-6.3h-13.8q-2.1 22.9-3 39h10.6q7.1-1.7 11-7.7 4.1-6.1 4.1-14.4zm57.5 58.3h8.7q0 3.1-1 5.7-7 1.1-12.6 4.3-1.5 0-2.7-1.5-1-1.4-1-4.5l2-19-1.1-0.8q-3.8 12-7.8 18.6-3.9 6.5-10.4 6.5-6.4 0-10.8-6-4.4-6.1-4.4-16.5 0-17.1 8-29.9 8-12.8 19.9-12.8 3.8 0 8.7 3.9 0.2-2.4 0.5-3.9 5.2-2 9.8-2-1.9 10.3-3.3 22.1-1.2 11.9-2.5 35.8zm-33.2-16.9q0 5.9 2.1 10.7 2.1 4.6 4.7 6.2h5q6-1.5 14.6-27.9 0.5-5.6 1.7-18.7h-16.6q-4.1 1-7.8 10.4-3.7 9.3-3.7 19.3zm90.6 16.9h8.6q0 3.1-1 5.7-7 1.1-12.6 4.3-1.5 0-2.7-1.5-1-1.4-1-4.5l2-19-1.1-0.8q-3.8 12-7.8 18.6-3.9 6.5-10.4 6.5-6.4 0-10.8-6-4.4-6.1-4.4-16.5 0-17.1 8-29.9 8-12.8 19.9-12.8 3.9 0 9.1 4.1 1.5-19.4 2-35.4h-8q0-3 1.1-5.7 5.9-1.1 11.5-4.3 1.5 0 2.6 1.8 1.2 1.6 1.2 4.2-3.5 37.2-6.2 91.2zm-33.3-16.9q0 5.9 2.1 10.7 2.1 4.6 4.7 6.2h5q6.3-1.6 15.2-29.3 0.1-1 1.5-17.3h-17q-4.1 1-7.8 10.4-3.7 9.3-3.7 19.3zm65.6 16.9h18.5q0 3.1-1.1 5.7-11 3.6-15.8 3.6-8.9 0-13.5-5.8-4.5-6-4.5-17.3 0-11.5 3-20.5 3.2-9.1 9.5-15.3 6.4-6.3 14.6-6.3 3.9 0 7.1 1.9 3.4 1.8 4.8 3.4-2.2 5-3.5 12l-0.5 2.3q-2.1 1.2-5.1 1.2 0.9-5.4 0.9-8 0-2.7-1.5-3.5h-11q-4.2 2.2-7.5 10.1-3.1 7.9-3.1 16.8 0 10.4 3 14.9 2.6 3.9 4.8 4.5zm70.3 0h8.8q0 3.1-1.1 5.8-6.9 1-12.6 4.2-1.5 0-2.7-1.4-1-1.5-1-4.6l2-19-1.1-0.8q-3.8 12-7.8 18.6-3.9 6.6-10.4 6.6-6.4 0-10.8-6-4.4-6.1-4.4-16.5 0-17.2 8.1-30 8-12.8 19.8-12.8 3.9 0 8.8 3.9 0.2-2.4 0.4-3.9 5.2-2 9.9-2-2 10.3-3.4 22.1-1.2 11.9-2.5 35.8zm-33.1-16.9q0 5.9 2 10.7 2.1 4.6 4.7 6.2h5q6-1.4 14.7-27.9 0.4-5.6 1.6-18.6h-16.6q-4.1 0.9-7.8 10.3-3.6 9.4-3.6 19.3zm85.5-65.6l14.3-1.3q9 0 14.4 5.3 5.5 5.2 5.5 16.9 0 15.1-8.9 23.7-8.7 8.5-21 8.5h-4.3l-1.3 30.6 8.5 2q0 3.1-1 5.8-10.7-1-13.9-1-4.5 0-9.2 0.8l-1.4 0.2q0-3.1 1.1-5.8 4.1-1.6 7.1-4.8 2.7-29.2 4.6-73.7l-7.7-2.4q0-3.1 1.1-5.7 8.3 0.9 12.1 0.9zm11.2 46.3q7-1.7 10.9-7.7 3.9-6.1 3.9-13.2 0-7-2.2-11.9-2.3-5-6.6-6.2h-13.8q-2.1 22.9-3 39zm30-10.3h-7.6q0-3.1 1.1-5.8 5.9-1 11.5-4.2 1.5 0 2.6 1.7 1.1 1.6 1.1 4.3l-1.7 15.9 1 0.8q2.6-7.6 8-14.7 5.5-7.4 10.6-7.4 2 0 3.6 1.1 1.6 1.1 2.3 2.1l0.6 1.1q-2.6 5.9-4 13l-0.5 2.3q-2.1 1.2-5.1 1.2 1-5.5 1-6.9 0-3.7-2-4.5-2.3 0-7.2 7.5-4.9 7.5-8 16.1-1.4 20-2.6 30.9-5.1 2-9.8 2 1.7-8.9 2.9-20.9 1.3-12 2.2-35.6zm76.5 46.5h8.7q0 3.1-1.1 5.8-6.9 1-12.5 4.2-1.6 0-2.7-1.4-1.1-1.5-1.1-4.6l2-19-1-0.8q-3.9 12-7.8 18.6-4 6.6-10.4 6.6-6.5 0-10.9-6-4.3-6.1-4.3-16.5 0-17.2 8-30 8-12.8 19.8-12.8 3.9 0 8.8 3.9 0.2-2.4 0.4-3.9 5.2-2 9.9-2-2 10.3-3.4 22.1-1.2 11.9-2.4 35.8zm-33.2-16.9q0 5.9 2.1 10.7 2 4.6 4.6 6.2h5q6.1-1.4 14.7-27.9 0.4-5.6 1.7-18.6h-16.7q-4 0.9-7.8 10.3-3.6 9.4-3.6 19.3zm92.8 16.9h6.2q4 0 7.6-4.2 3.5-4.4 5.3-12.7 1.9-8.3 1.9-17.1 0-8.8-3.3-17.6 0.4-0.5 1.2-1.3 0.7-0.8 3.4-2.2 2.8-1.4 5.9-1.4 0 34-7.8 51.8-6.2 14.1-19.1 14.1-3.9 0-6.2-1.4-2.4-1.3-2.9-2.6l-0.5-1.4 1.3-19-1.1-0.8q-0.4 1.2-1.5 4.5-1.1 3.4-1.7 5.1-0.6 1.6-1.9 4.5-1.1 2.8-2.4 4.4-1.1 1.6-2.8 3.3-3.2 3.4-7.7 3.4-4.4 0-6.8-1.4-2.4-1.3-2.9-2.6l-0.4-1.4q2-33.8 2.2-50.5h-7.3q0-3.1 1-5.8 5.9-1 11.5-4.2 1.5 0 2.6 1.7 1.2 1.6 1.2 4.3-2.9 27.5-2.9 50.5h4.7q4 0 8.3-8.6 4.2-8.7 7.5-20 0.3-7.4 1.3-22.2 4.8-2 9.5-2-1.7 10.2-1.8 14.4-1.3 17.8-1.4 33.7zm45.8-46.6h-7.6q0-3.1 1.1-5.8 5.9-1 11.5-4.2 1.5 0 2.6 1.7 1.2 1.6 1.2 4.3l-2 19 1 0.8q3.2-9.4 9.6-17.3 6.3-7.9 14.3-7.9 3.9 0 6.2 1.4 2.3 1.3 2.7 2.6l0.3 1.4q-2.4 25.7-3.2 50.6h8.3q0 3-1.1 5.7-6.9 1-12.5 4.2-1.6 0-2.7-1.4-1.1-1.5-1.1-4.6 2.3-18.6 4-50.5h-6.4q-4.1 0-9.9 8.3-5.7 8.3-9.2 18.3-1.1 16.5-2.4 27.9-5.1 2-9.8 2 1.7-8.9 2.9-20.9 1.3-11.9 2.2-35.6zm59.4 84.4l-2.8-1q0-2.5 0.9-5.6h23.7q4.7-2.9 8.3-18.7 2.2-10 3.3-27.6l-1.1-0.8q-3.2 9.5-9.5 17.3-6.4 7.9-14.4 7.9-3.8 0-6.1-1.4-2.3-1.3-2.6-2.6l-0.4-1.4q2.4-27.1 3.4-50.5h-7.2q0-3.1 1.1-5.8 5.9-1 11.5-4.2 1.5 0 2.6 1.7 1.2 1.6 1.2 4.3-2.6 18.6-4.3 50.6h6.3q4.3 0 10.1-8.7 5.8-8.7 9.2-18.6 1.4-17.1 2.8-28.7 5.2-2 9.9-2-2 10.3-2.6 16-0.7 5.6-1.5 15.3-0.7 9.7-1.2 16.1-0.6 6.3-1.5 14.1-0.9 7.8-2.1 12.7-1.1 4.8-3.2 10-2.1 5-4.8 7.8-6.2 6.6-16.3 6.6-4.3 0-12.7-2.8zm-583.2 74.8l8.6 2.5q0 3.1-1 5.8-8.9-1-12.7-1l-9.9 1q0-3.1 1-5.8 4.2-1.4 7.1-4.7 4.7-41.7 6.9-73.7l-8.7-2.5q0-3 1.1-5.7 6.3 0.9 10.4 0.9h8.9q9.1 46.1 16.1 72 8.5-23 23.5-72h9.5l10.9-0.9q0 3-1 5.7-4.7 1.1-7.7 4-2.7 36.6-3.2 74.8l8.8 2.1q0 3.1-1 5.8-8.7-1-12.4-1-5.7 0-10.7 0.8l-1.4 0.2q0-3.1 1.1-5.8 3.8-1.4 6.7-4.5 2.1-25.1 3.4-67.6-14.8 41.1-25.1 76.9l-1.5 1.4-6.1-1.4q-8-41.9-15.8-74.9-4.1 36.5-5.8 67.6zm117.2-0.6h8.7q0 3-1 5.7-7 1-12.6 4.2-1.6 0-2.7-1.4-1.1-1.5-1.1-4.6l2-19-1-0.8q-3.9 12-7.8 18.6-4 6.6-10.4 6.6-6.5 0-10.8-6-4.4-6.1-4.4-16.5 0-17.2 8-30 8-12.8 19.9-12.8 3.8 0 8.7 3.9 0.2-2.4 0.4-3.9 5.2-2 9.9-2-2 10.3-3.3 22.1-1.3 11.9-2.5 35.9zm-33.2-17q0 5.9 2.1 10.7 2.1 4.7 4.7 6.3h5q6-1.5 14.6-28 0.4-5.6 1.7-18.6h-16.7q-4 0.9-7.8 10.3-3.6 9.4-3.6 19.3zm61.7-70.2h-8q0-3.1 1-5.8 5.9-1 11.5-4.2 1.5 0 2.6 1.7 1.2 1.6 1.2 4.3-0.9 10.6-3 39.1 3.7-4.8 6.9-9.4l2.2-0.2 2.4 5.3-12.1 14.4q-0.7 10-2.6 42h8.1q0 3-1.1 5.7-6.9 1-12.6 4.2-1.5 0-2.7-1.4-1-1.5-1-4.6 1.5-15.8 3.1-35.5l-5.3 6.3q-2.4-1.2-3.6-4.6l9.7-11.4q2.3-28.8 3.3-45.9zm22.3 125l-2.8-1q0-3.2 1-5.6h23.7q4.7-2.9 8.2-18.7 2.3-10 3.3-27.6l-0.9-0.7q-3.9 12-7.8 18.5-4 6.6-10.4 6.6-6.5 0-10.8-6-4.4-6.1-4.4-16.5 0-17.2 8-30 8-12.8 19.9-12.8 3.9 0 8.6 3.8l0.4-3.8q5.2-2 9.9-2-2 10.3-2.6 16-0.6 5.6-1.5 15.3-0.7 9.7-1.2 16.1-0.5 6.3-1.5 14.1-0.9 7.8-2 12.7-1.2 4.8-3.3 10-2 5-4.8 7.8-6.2 6.6-16.3 6.6-4.2 0-12.7-2.8zm7-54.8q0 5.9 2.1 10.7 2.1 4.7 4.7 6.3h5q6.1-1.5 14.5-27.6 0.4-6.3 1.7-19h-16.6q-4 0.9-7.8 10.3-3.6 9.4-3.6 19.3zm61.9 16.7l0.8 0.3h10q4.4-2.2 7.7-10.3 3.3-8.1 3.3-16.6 0-10.6-2.9-14.9-2.6-3.9-4.6-4.6l-0.8-0.2h-10q-4.4 2.1-7.7 10.2-3.3 8.1-3.3 17.7 0 9.5 2.7 13.6 2.8 4.1 4.8 4.8zm26.6-12.5q-2.9 9-9.3 15.5-6.2 6.6-14.8 6.6-17.8 0-17.8-24.8 0-9.3 2.9-18.4 3-9 9.3-15.5 6.3-6.6 14.9-6.6 17.8 0 17.8 24.8 0 9.3-3 18.4zm17.3-33.8h-7.6q0-3.1 1-5.8 5.9-1 11.6-4.2 1.4 0 2.6 1.7 1.1 1.6 1.1 4.3l-1.8 15.9 1.1 0.8q2.6-7.5 8-14.7 5.5-7.4 10.6-7.4 2 0 3.5 1.1 1.7 1.1 2.3 2.1l0.6 1.1q-2.6 5.9-3.9 13l-0.5 2.3q-2.1 1.2-5.1 1.2 0.9-5.4 0.9-6.9 0-3.7-2-4.5-2.3 0-7.1 7.6-4.9 7.4-8.1 16.1-1.3 19.9-2.6 30.8-5 2-9.7 2 1.6-8.9 2.9-20.9 1.2-11.9 2.2-35.6zm45.7 8.3l-0.2 1.8q-2.9-1-4.7-3.3 2.4-10.7 2.4-15.4 0.3-0.8 5.8-0.8 5.5 0 22.1 3.8l2.4-3.8q4.2 0 6.4 2.4v1.4l-33 52.2h21.9q1.8-3.5 2.5-8.4l0.3-1.8q2.9 1 4.7 3.4-2.4 10.6-2.4 15.3-0.9 0.8-9.6 0.8-8.5 0-21.3-3.2l-2 3.2q-4.2 0-6.5-3.2v-1.4l33-51.3h-19.2q-1.7 3.4-2.6 8.3zm80 38.3h8.7q0 3-1 5.7-7 1-12.6 4.2-1.5 0-2.7-1.4-1-1.5-1-4.6l1.9-19-1-0.8q-3.8 12-7.8 18.6-3.9 6.6-10.4 6.6-6.4 0-10.8-6-4.4-6.1-4.4-16.5 0-17.2 8-30 8-12.8 19.9-12.8 3.8 0 8.7 3.9 0.2-2.4 0.4-3.9 5.2-2 9.9-2-1.9 10.3-3.3 22.1-1.2 11.9-2.5 35.9zm-33.2-17q0 5.9 2.1 10.7 2.1 4.7 4.7 6.3h5q6-1.5 14.6-28 0.5-5.6 1.7-18.6h-16.6q-4.1 0.9-7.8 10.3-3.7 9.4-3.7 19.3zm64.6-37l12.4-0.6q0 3.2-1.1 8h-11.9q-2 23.8-2.5 46.6h12.5q0 3-1.1 5.7-9 1-14.6 4.2-5.9 0-5.9-6 3.4-32.4 4.2-50.5h-5.4q0-3.1 1-5.8 0.2-0.1 0.6-0.2 0.4-0.3 1.4-1.4 1.1-1 1.9-2.5 2.3-4.1 2.9-11 3.3-2.4 7-2.4-0.6 7.6-1.4 15.9zm60 54h8.8q0 3-1.1 5.7-7 1-12.6 4.2-1.5 0-2.7-1.4-1-1.5-1-4.6l2-19-1.1-0.8q-3.8 12-7.8 18.6-3.9 6.6-10.4 6.6-6.4 0-10.8-6-4.4-6.1-4.4-16.5 0-17.2 8-30 8.1-12.8 19.9-12.8 3.9 0 8.7 3.9 0.3-2.4 0.5-3.9 5.2-2 9.8-2-1.9 10.3-3.3 22.1-1.2 11.9-2.5 35.9zm-33.2-17q0 5.9 2.1 10.7 2.1 4.7 4.7 6.3h5q6-1.5 14.7-28 0.4-5.6 1.6-18.6h-16.6q-4.1 0.9-7.8 10.3-3.7 9.4-3.7 19.3zm-467.5 62.1l-0.2 1.8q-3-1-4.7-3.4 2.4-10.8 2.4-15.4 3.5-1.5 11.9-1.5 8.4 0 27.9 4.4l1.7-2.9q4 0 6.9 1.9l1.1 0.5v1.3l-45 80.2h35.6q1.8-3.5 2.5-8.4l0.3-1.8q2.9 1 4.7 3.4-2.4 11.4-2.4 16.1-4.8 1.4-10.3 1.4-19 0-34.3-3.6l-1.3 2.2q-2 0-4.6-1-2.5-0.9-3.5-2.2v-1.4l45.4-80h-31.5q-1.8 3.5-2.6 8.4zm92.2 66.9h8.7q0 3-1 5.7-7 1-12.6 4.2-1.5 0-2.7-1.4-1-1.5-1-4.6l2-19-1.1-0.8q-3.8 12-7.8 18.6-3.9 6.6-10.4 6.6-6.4 0-10.8-6-4.4-6.1-4.4-16.5 0-17.2 8-30 8-12.8 19.9-12.8 3.8 0 8.7 3.9 0.2-2.4 0.5-3.9 5.2-2 9.8-2-1.9 10.3-3.3 22.1-1.2 11.9-2.5 35.9zm-33.2-17q0 5.9 2.1 10.7 2.1 4.7 4.7 6.3h5q6-1.5 14.6-28 0.5-5.6 1.7-18.6h-16.6q-4.1 0.9-7.8 10.3-3.7 9.4-3.7 19.3zm58.9-70.2h-7.6q0-3.1 1-5.8 6-1 11.6-4.2 1.4 0 2.6 1.7 1.1 1.6 1.1 4.3l-5.2 59.6 1.1 0.8q3.2-9.4 9.5-17.3 6.4-7.9 14.4-7.9 3.8 0 6.1 1.4 2.3 1.3 2.6 2.6l0.4 1.4q-0.8 11.9-6.6 20.6-5.7 8.7-10.8 11.3l9.5 18.7h10.2q0 3-1 5.7-7 1-12.6 4.2-2.5 0-3.8-3.2l-11.1-24.1v-1.3q8-4.5 12.5-11.2 4.6-6.6 5.4-16.7h-6.3q-4.2 0-9.9 8.3-5.7 8.3-9.3 18.3-1 16.5-2.3 27.9-5.1 2-9.8 2 1.6-8.9 2.1-13 2-19.6 6.2-84.1zm54.9 40.6h-7.6q0-3.1 1.1-5.8 5.9-1 11.5-4.2 1.5 0 2.6 1.7 1.1 1.6 1.1 4.3l-1.7 15.9 1 0.8q2.6-7.5 8-14.7 5.5-7.4 10.6-7.4 2 0 3.6 1.1 1.6 1.1 2.3 2.1l0.6 1.1q-2.6 5.9-4 13l-0.5 2.3q-2.1 1.2-5.1 1.2 0.9-5.4 0.9-6.9 0-3.7-1.9-4.5-2.3 0-7.2 7.6-4.9 7.4-8 16.1-1.4 19.9-2.6 30.8-5.1 2-9.8 2 1.7-8.9 2.9-20.9 1.3-11.9 2.2-35.6zm45.8 8.3l-0.2 1.8q-3-1-4.7-3.3 2.4-10.7 2.4-15.4 0.3-0.8 5.7-0.8 5.5 0 22.1 3.8l2.4-3.8q4.2 0 6.5 2.4v1.4l-33.1 52.2h22q1.7-3.5 2.5-8.4l0.3-1.8q2.9 1 4.6 3.4-2.3 10.6-2.3 15.3-1 0.8-9.6 0.8-8.5 0-21.3-3.2l-2 3.2q-4.3 0-6.6-3.2v-1.4l33-51.3h-19.1q-1.8 3.4-2.6 8.3zm56.9 38.3h18.5q0 3-1.1 5.7-11 3.6-15.8 3.6-17.9 0-17.9-24.9 0-9.2 3.2-18.3 3.1-9.1 9.4-15.5 6.5-6.6 14.6-6.6 5.1 0 7.5 3.4 2.4 3.3 2.4 8.1 0 24-29.4 24.8 0 18.2 8.6 19.7zm13.5-41.2q0-4.4-2.9-5.4h-9.6q-3.4 1.7-5.9 7.7-2.5 5.8-3.4 13.3 12-0.5 16.9-4.4 4.9-4 4.9-11.2zm58.8 41.2h6.2q4 0 7.6-4.3 3.5-4.4 5.3-12.7 1.8-8.3 1.8-17.1 0-8.8-3.2-17.6 0.4-0.5 1.2-1.3 0.7-0.8 3.4-2.2 2.8-1.4 5.9-1.4 0 34.1-7.8 51.8-6.2 14.1-19.1 14.1-3.9 0-6.3-1.4-2.3-1.3-2.8-2.6l-0.5-1.4 1.3-19-1.1-0.8q-0.4 1.2-1.5 4.5-1.1 3.4-1.7 5.1-0.6 1.6-1.9 4.5-1.1 2.8-2.4 4.4-1.1 1.6-2.8 3.3-3.2 3.4-7.7 3.4-4.4 0-6.8-1.4-2.4-1.3-2.9-2.6l-0.5-1.4q2.1-33.8 2.3-50.5h-7.4q0-3.1 1.1-5.8 5.9-1 11.5-4.2 1.5 0 2.6 1.7 1.2 1.6 1.2 4.3-2.9 27.5-2.9 50.6h4.6q4.1 0 8.4-8.7 4.2-8.7 7.5-20 0.3-7.4 1.3-22.2 4.8-2 9.5-2-1.7 10.3-1.8 14.4-1.4 17.8-1.5 33.7zm65.4-8.3q0-2.5-1.1-4-1-1.6-1.6-2.2-0.6-0.8-1.9-1.9-1.4-1.2-1.9-1.6-2.6-2-5.1-3.6-2.4-1.7-3.7-2.8-1.3-1.1-3.3-3.2-3.5-3.9-3.5-10 0-8.9 5.2-13.6 5.3-4.7 12.9-4.7 7.6 0 13.8 5.3-2.4 5.7-3.6 12.2l-0.4 2q-2.1 1.2-5.1 1.2 0.9-5.4 0.9-6.9 0-4.3-2.3-5.2h-10.1q-4.9 0.9-4.9 7.5 0 2.2 1.7 4.6 1.8 2.3 3.6 3.7 1.7 1.4 4.9 3.5 3.4 2.1 5.6 4 2.1 1.7 4.3 5.1 2.3 3.2 2.3 6.5 0 10.4-5.3 16.1-5.3 5.6-14.3 5.6-5.6 0-9.5-2.1-3.9-2.3-5-4.4l-1.1-2.2q2.2-5 3.3-10.9l0.3-1.7q2.1-1.2 5.1-1.2-0.9 4.4-0.9 7.6 0 4.6 5.9 6.2h10.8q4-2.9 4-8.9zm27.5-78.9h-7.6q0-3.1 1.1-5.8 5.9-1 11.5-4.2 1.5 0 2.6 1.7 1.2 1.6 1.2 4.3l-5.2 59.6 1 0.8q3.2-9.4 9.6-17.3 6.3-7.8 14.3-7.8 3.9 0 6.1 1.3 2.3 1.3 2.6 2.6l0.5 1.4q-0.9 12-6.7 20.6-5.7 8.7-10.8 11.3l9.6 18.7h10.2q0 3-1.1 5.7-7 1.1-12.6 4.2-2.5 0-3.8-3.1l-11-24.1v-1.4q8-4.5 12.4-11.2 4.6-6.6 5.4-16.7h-6.3q-4.2 0-9.9 8.4-5.7 8.2-9.2 18.2-1.1 16.5-2.4 27.9-5.1 2-9.8 2 1.7-8.9 2.1-13 2.1-19.6 6.2-84.1zm87.7 87.2h8.7q0 3-1 5.7-7 1.1-12.6 4.2-1.6 0-2.7-1.4-1-1.5-1-4.5l1.9-19.1-1-0.8q-3.9 12-7.8 18.7-4 6.5-10.4 6.5-6.5 0-10.8-6-4.4-6.1-4.4-16.5 0-17.2 8-30 8-12.7 19.9-12.7 3.8 0 8.7 3.8 0.2-2.4 0.4-3.8 5.2-2 9.9-2-2 10.2-3.3 22.1-1.3 11.8-2.5 35.8zm-33.2-16.9q0 5.8 2.1 10.6 2.1 4.7 4.7 6.3h5q6-1.5 14.6-28 0.4-5.6 1.7-18.6h-16.6q-4.1 0.9-7.8 10.4-3.7 9.3-3.7 19.3zm51.3-22.1h9.4q9.2 0 20.7-1.4l1.7 1.9-1.3 8.4h-30.5q-0.5-2.8-0.5-4.4zm68.7 40.2l8.7 2q0 3-1 5.7-8.6-0.8-13.2-0.9h-1.4l-9.8 0.9q0-3.1 1-5.7 4-1.5 6.9-4.5 2.7-29.2 4.6-73.5l-17.3 0.9q-1.9 3.9-2.7 9.2-2 0.9-5.3 1.2l-0.3-0.9q1.8-8.8 2.6-19.1 16.2 1 28.8 1l30.5-1 0.4 1q-2.3 6.6-3.7 16.2l-0.4 2.9q-2.3 1.2-5.5 1.2 1-5.7 1.4-11.7-9.6-0.7-19.6-0.9-2.9 32.3-4.7 76zm37.7-47.8h-7.6q0-3.1 1-5.7 5.9-1.1 11.5-4.3 1.5 0 2.6 1.7 1.2 1.6 1.2 4.3l-1.8 16 1.1 0.8q2.6-7.6 8-14.8 5.5-7.3 10.6-7.3 2 0 3.5 1 1.7 1.1 2.3 2.2l0.6 1q-2.6 5.9-3.9 13.1l-0.5 2.2q-2.1 1.2-5.1 1.2 0.9-5.4 0.9-6.9 0-3.7-2-4.5-2.3 0-7.2 7.6-4.8 7.4-8 16.1-1.3 20-2.6 30.9-5.1 2-9.7 2 1.6-8.9 2.9-20.9 1.2-12 2.2-35.7zm81.9 46.6h8.7q0 3-1 5.7-7 1.1-12.6 4.3-1.5 0-2.7-1.5-1-1.5-1-4.5l2-19.1-1.1-0.8q-3.2 9.5-9.6 17.4-6.3 7.8-14.3 7.8-3.9 0-6.1-1.3-2.3-1.4-2.6-2.7l-0.5-1.3q2.3-26.2 3.2-50.6h-7.2q0-3.1 1-5.7 6-1.1 11.6-4.3 1.4 0 2.6 1.7 1.1 1.6 1.1 4.3-2.3 18.6-3.9 50.6h6.3q4.3 0 10.1-8.7 5.8-8.6 9.1-18.6 1.5-17 2.9-28.6 5.2-2 9.8-2-1.9 10.2-3.3 22.1-1.2 11.8-2.5 35.8zm46.2-8.3q0-2.5-1.1-4-1-1.6-1.6-2.2-0.5-0.8-1.9-1.9-1.3-1.2-1.9-1.6-2.6-2-5.1-3.6-2.4-1.7-3.7-2.8-1.3-1-3.2-3.2-3.6-3.8-3.6-10 0-8.9 5.2-13.5 5.3-4.8 12.9-4.8 7.6 0 13.9 5.3-2.4 5.7-3.7 12.2l-0.4 2q-2.1 1.2-5.1 1.2 0.9-5.4 0.9-6.9 0-4.2-2.2-5.2h-10.1q-5 1-5 7.5 0 2.2 1.7 4.6 1.8 2.3 3.6 3.8 1.8 1.3 5 3.4 3.3 2.2 5.5 4 2.2 1.8 4.4 5.1 2.2 3.2 2.2 6.5 0 10.4-5.3 16.1-5.3 5.6-14.3 5.6-5.5 0-9.5-2.1-3.8-2.3-5-4.4l-1.1-2.1q2.3-5.1 3.3-11l0.3-1.7q2.1-1.2 5.1-1.2-0.9 4.4-0.9 7.6 0 4.7 5.9 6.3h10.8q4-3 4-9zm25.9-38.3h-8q0-3.1 1-5.7 5.9-1.1 11.6-4.3 1.4 0 2.6 1.7 1.1 1.6 1.1 4.3-2.4 26-3.2 50.6h8.3q0 3-1 5.7-7 1.1-12.6 4.3-1.6 0-2.7-1.5-1.1-1.5-1.1-4.5 2.3-18.7 4-50.6zm0.2-31.4q0.5-2 2.5-3.2 2-1.3 4-1.3 2.1 0 3.3 1.2 1.2 1.1 1.2 2.6l-0.5 4.8q-1.2 4-6.7 4-2 0-3.2-1.2-1-1.2-1-2.8zm34.1-9.2h-8q0-3 1-5.7 5.9-1.1 11.6-4.3 1.4 0 2.6 1.8 1.1 1.6 1.1 4.2-0.9 10.7-3 39.2 3.7-4.8 7-9.5l2.1-0.1 2.4 5.3-12.1 14.4q-0.7 10-2.6 41.9h8.1q0 3.1-1.1 5.7-6.9 1.1-12.5 4.3-1.6 0-2.8-1.5-1-1.4-1-4.5 1.5-15.8 3.1-35.5l-5.3 6.2q-2.4-1.2-3.6-4.5l9.8-11.5q2.2-28.7 3.2-45.9zm36.6 86.9l0.8 0.3h10q4.4-2.1 7.7-10.2 3.3-8.2 3.3-16.7 0-10.5-2.9-14.9-2.6-3.8-4.6-4.5l-0.8-0.3h-10q-4.3 2.2-7.7 10.3-3.3 8.1-3.3 17.7 0 9.4 2.7 13.6 2.8 4.1 4.8 4.7zm26.6-12.5q-2.9 9.1-9.2 15.6-6.3 6.5-14.9 6.5-17.8 0-17.8-24.7 0-9.3 2.9-18.4 3-9 9.3-15.6 6.3-6.5 14.9-6.5 17.8 0 17.8 24.8 0 9.3-3 18.3z"/></svg>